<?xml version="1.0" encoding="utf-8"?>
<!-- Generator: Adobe Illustrator 21.1.0, SVG Export Plug-In . SVG Version: 6.00 Build 0)  -->
<svg version="1.1" id="Isolation_Mode" xmlns="http://www.w3.org/2000/svg" xmlns:xlink="http://www.w3.org/1999/xlink" x="0px"
	 y="0px" viewBox="0 0 142.2 87.4" style="enable-background:new 0 0 142.2 87.4;" xml:space="preserve">
<style type="text/css">
	.st0{fill:none;}
	.st1{fill:#AB132D;}
</style>
<path class="st0" d="M26.6,98.3c-2.4-0.2-5.7,1.7-6.8,3.9C22.3,102.3,25.4,100.3,26.6,98.3z"/>
<path class="st0" d="M48.2,118.2c-0.8,2.3,0.1,5.9,2,7.6C50.9,123.4,49.8,119.8,48.2,118.2z"/>
<path class="st0" d="M30.5,117.5c-1,1.7-0.4,3.8,1.3,4.7c1.1,0.7,2.5,0.6,3.5,0c-1.1-2-1.7-4.2-1.6-6.4
	C32.4,115.8,31.2,116.4,30.5,117.5z"/>
<ellipse transform="matrix(0.866 -0.5001 0.5001 0.866 -49.5441 32.3233)" class="st0" cx="35.5" cy="108.6" rx="1.6" ry="1.6"/>
<path class="st0" d="M26.2,107.7c1.8-1.7,2.6-5.3,2-7.6C26.4,101.7,25.4,105.3,26.2,107.7z"/>
<path class="st0" d="M21.6,112.3c1,1.7,3.1,2.2,4.7,1.3c1.2-0.7,1.8-1.9,1.7-3.2c-2.2,0-4.5-0.6-6.4-1.6
	C21,109.8,21,111.2,21.6,112.3z"/>
<path class="st0" d="M44,115.7c-2.3-0.6-5.9,0.3-7.6,2C38.9,118.5,42.4,117.6,44,115.7z"/>
<ellipse transform="matrix(0.866 -0.5 0.5 0.866 -53.3575 45.519)" class="st0" cx="58.3" cy="122.3" rx="1.6" ry="1.6"/>
<path class="st0" d="M37.6,125.1c-0.3,0.3-0.6,0.6-0.8,1c-1,1.7-0.4,3.8,1.3,4.7c1.7,1,3.8,0.4,4.7-1.3c0.2-0.4,0.4-0.8,0.4-1.2
	c-1-0.3-2-0.7-3-1.3C39.2,126.5,38.3,125.9,37.6,125.1z"/>
<path class="st0" d="M60.8,129c-1.1,0.6-1.9,1.7-1.9,3.1c0,1.9,1.6,3.5,3.5,3.5c1.3,0,2.5-0.7,3-1.8C63.6,132.6,62,130.9,60.8,129z"
	/>
<path class="st0" d="M72.1,124.2c-1.1,2-1.3,5.7,0,7.8C73.5,130,73.4,126.3,72.1,124.2z"/>
<path class="st0" d="M47,128.8c-0.1,1.3,0.5,2.5,1.7,3.2c1.7,1,3.8,0.4,4.7-1.3c0.7-1.2,0.6-2.7-0.2-3.8
	C51.3,128.1,49.2,128.8,47,128.8z"/>
<path class="st0" d="M41.9,124.1c2.3-1.1,4.1-4.3,3.9-6.8C43.8,118.5,41.8,121.6,41.9,124.1z"/>
<path class="st0" d="M20.1,69.5c-0.6-2.2-3.1-4.9-5.5-5.5C15.1,66.4,17.7,69,20.1,69.5z"/>
<ellipse transform="matrix(0.866 -0.5001 0.5001 0.866 -39.5635 22.3409)" class="st0" cx="21.9" cy="85" rx="1.6" ry="1.6"/>
<path class="st0" d="M20.1,74.3c-2.4,0.5-5,3.1-5.5,5.5C17,79.3,19.5,76.6,20.1,74.3z"/>
<path class="st0" d="M11.8,72c2.1,1.3,5.8,1.1,7.8,0C17.6,70.6,13.9,70.6,11.8,72z"/>
<ellipse transform="matrix(0.866 -0.5 0.5 0.866 -26.2371 18.8586)" class="st0" cx="22.1" cy="58.4" rx="1.6" ry="1.6"/>
<path class="st0" d="M64.2,129.3c2.5-0.5,5.1-3.1,5.5-5.5C67.5,124.4,64.8,126.9,64.2,129.3z"/>
<path class="st0" d="M15.6,101c-0.4,0.1-0.8,0.2-1.2,0.4c-1.7,1-2.2,3.1-1.3,4.7c1,1.7,3.1,2.2,4.7,1.3c0.4-0.2,0.7-0.5,1-0.8
	c-0.7-0.8-1.4-1.6-2-2.6S15.8,102,15.6,101z"/>
<path class="st0" d="M25.8,95.9c-1.7-1.6-5.2-2.7-7.6-2C19.9,95.8,23.4,96.7,25.8,95.9z"/>
<path class="st0" d="M16.9,90.9c-1.1-0.8-2.6-0.9-3.8-0.2c-1.7,1-2.2,3.1-1.3,4.7c0.7,1.2,1.9,1.8,3.2,1.7
	C15.2,94.9,15.8,92.8,16.9,90.9z"/>
<path class="st0" d="M10.3,65.2c1.2-1.9,2.8-3.4,4.7-4.5c-0.5-1.2-1.8-2.1-3.2-2.1c-1.9,0-3.5,1.6-3.5,3.5
	C8.3,63.5,9.1,64.6,10.3,65.2z"/>
<path class="st0" d="M14.9,83.2c-2-1.1-3.6-2.7-4.7-4.6c-1.1,0.6-1.8,1.7-1.8,3c0,1.9,1.6,3.5,3.5,3.5
	C13.1,85.1,14.3,84.3,14.9,83.2z"/>
<path class="st0" d="M8.3,72c0-1.1,0.1-2.2,0.4-3.2c-0.4-0.2-0.8-0.2-1.3-0.2C5.6,68.5,4,70.1,4,72c0,1.9,1.6,3.5,3.5,3.5
	c0.4,0,0.9-0.1,1.3-0.2C8.5,74.2,8.3,73.1,8.3,72z"/>
<path class="st0" d="M124.1,69.4c2.4-0.5,5-3.1,5.5-5.5C127.3,64.5,124.8,67.2,124.1,69.4z"/>
<path class="st0" d="M118.2,95.7c2.3,0.8,5.9-0.1,7.6-2C123.4,93,119.9,94.1,118.2,95.7z"/>
<path class="st0" d="M117.5,98c1.1,2.2,4.3,4.1,6.8,3.9C123.1,99.7,119.8,98,117.5,98z"/>
<path class="st0" d="M124.6,71.7c2,1.4,5.7,1.4,7.8,0C130.3,70.5,126.6,70.6,124.6,71.7z"/>
<path class="st0" d="M115.8,99.9c-0.6,2.3,0.3,5.9,2,7.6C118.6,105.1,117.6,101.5,115.8,99.9z"/>
<ellipse transform="matrix(0.866 -0.5 0.5 0.866 -12.7165 69.2012)" class="st0" cx="122.8" cy="58.3" rx="1.6" ry="1.6"/>
<path class="st0" d="M130.8,90.5c-1.2-0.7-2.5-0.6-3.6,0.1c1.1,1.9,1.8,4.1,1.8,6.4c1.2,0,2.4-0.6,3.1-1.7
	C133,93.6,132.5,91.5,130.8,90.5z"/>
<path class="st0" d="M129.7,101c-0.4-0.2-0.8-0.4-1.2-0.4c-0.3,1-0.7,2-1.3,3c-0.6,1-1.2,1.8-2,2.6c0.3,0.3,0.6,0.6,1,0.8
	c1.7,1,3.8,0.4,4.7-1.3C132,104.1,131.4,102,129.7,101z"/>
<path class="st0" d="M72.1,135.5c-1.1,0-2.2-0.1-3.2-0.4c-0.2,0.4-0.2,0.8-0.2,1.3c0,1.9,1.6,3.5,3.5,3.5c1.9,0,3.5-1.6,3.5-3.5
	c0-0.4-0.1-0.9-0.2-1.3C74.3,135.4,73.2,135.5,72.1,135.5z"/>
<path class="st0" d="M129.4,60.5c2,1.1,3.6,2.7,4.7,4.6c1.1-0.6,1.8-1.7,1.8-3c0-1.9-1.6-3.5-3.5-3.5
	C131.1,58.6,129.9,59.4,129.4,60.5z"/>
<path class="st0" d="M134,78.5c-1.2,1.9-2.8,3.4-4.7,4.5c0.5,1.2,1.8,2.1,3.2,2.1c1.9,0,3.5-1.6,3.5-3.5
	C135.9,80.3,135.1,79.1,134,78.5z"/>
<path class="st0" d="M135.9,71.7c0,1.1-0.1,2.2-0.4,3.2c0.4,0.2,0.8,0.2,1.3,0.2c1.9,0,3.5-1.6,3.5-3.5c0-1.9-1.6-3.5-3.5-3.5
	c-0.4,0-0.9,0.1-1.3,0.2C135.8,69.5,135.9,70.6,135.9,71.7z"/>
<path class="st0" d="M115.9,110.1c-0.1,1.3,0.5,2.7,1.7,3.4c1.7,1,3.8,0.4,4.7-1.3c0.7-1.2,0.6-2.6-0.1-3.6
	C120.3,109.6,118.1,110.1,115.9,110.1z"/>
<path class="st0" d="M107.8,117.8c-1.7-1.8-5.3-2.6-7.6-2C101.8,117.6,105.4,118.6,107.8,117.8z"/>
<path class="st0" d="M96,118.2c-1.6,1.7-2.7,5.2-2,7.6C95.9,124.1,96.8,120.6,96,118.2z"/>
<ellipse transform="matrix(0.866 -0.5001 0.5001 0.866 -50.2968 59.4201)" class="st0" cx="85.7" cy="123.6" rx="1.6" ry="1.6"/>
<path class="st0" d="M90.8,130.9c1,1.7,3.1,2.2,4.7,1.3c1.2-0.7,1.8-1.9,1.7-3.2c-2.2-0.1-4.4-0.7-6.3-1.8
	C90.2,128.1,90.1,129.6,90.8,130.9z"/>
<path class="st0" d="M83.4,128.9c-1.1,1.9-2.6,3.6-4.5,4.7c0.6,1.1,1.7,1.9,3.1,1.9c1.9,0,3.5-1.6,3.5-3.5
	C85.4,130.7,84.6,129.4,83.4,128.9z"/>
<path class="st0" d="M74.6,123.8c0.5,2.4,3.1,5,5.5,5.5C79.6,126.9,76.8,124.4,74.6,123.8z"/>
<path class="st0" d="M106.7,125.2c-0.8,0.7-1.6,1.4-2.6,2c-1,0.6-2,1-3,1.3c0.1,0.4,0.2,0.8,0.4,1.2c1,1.7,3.1,2.2,4.7,1.3
	c1.7-1,2.2-3.1,1.3-4.7C107.3,125.8,107,125.5,106.7,125.2z"/>
<path class="st0" d="M98.4,117.4c-0.2,2.4,1.7,5.7,3.9,6.8C102.4,121.7,100.4,118.6,98.4,117.4z"/>
<path class="st0" d="M129.7,79.8c-0.5-2.5-3.1-5.1-5.5-5.5C124.8,76.5,127.3,79.2,129.7,79.8z"/>
<path class="st0" d="M110.6,115.9c0,2.2-0.6,4.5-1.6,6.4c1,0.6,2.4,0.7,3.5,0c1.7-1,2.2-3.1,1.3-4.7
	C113.1,116.5,111.8,115.8,110.6,115.9z"/>
<ellipse transform="matrix(0.866 -0.5001 0.5001 0.866 -39.8499 69.8652)" class="st0" cx="110.4" cy="109.3" rx="1.6" ry="1.6"/>
<ellipse transform="matrix(0.866 -0.5001 0.5001 0.866 -26.2986 73.3165)" class="st0" cx="123.6" cy="85.7" rx="1.6" ry="1.6"/>
<path class="st1" d="M10.8,0.2C10.8,0.2,10.8,0.2,10.8,0.2C10.8,0.2,10.8,0.2,10.8,0.2c-3.6,0-6.4,2.9-6.4,6.4
	c0,1.3,0.4,2.5,1.1,3.6c-3.1,0.5-5.4,3.1-5.4,6.3c0,3.1,2.3,5.8,5.3,6.3c-0.6,1-0.9,2.1-0.9,3.3c0,3.5,2.9,6.4,6.4,6.4c0,0,0,0,0,0
	c-0.1,0-0.1,0-0.2,0.1c-3.1,1.8-4.1,5.7-2.3,8.8c0.7,1.1,1.6,2,2.7,2.5c-2.4,2-3.1,5.4-1.5,8.2c1.6,2.7,4.8,3.9,7.7,2.8
	c0,1.1,0.2,2.3,0.9,3.4c1.8,3.1,5.7,4.1,8.8,2.3c0,0,0.1-0.1,0.1-0.1c-1.8,3.1-0.7,7,2.4,8.8c1.1,0.6,2.2,0.9,3.4,0.9
	c-1,2.9,0.1,6.1,2.8,7.7c2.8,1.6,6.2,0.9,8.2-1.5c0.5,1.1,1.4,2.1,2.5,2.7c3.1,1.8,7,0.7,8.8-2.3c0,0,0,0,0-0.1
	c0.1,3.5,2.9,6.3,6.4,6.3c1.2,0,2.4-0.3,3.3-0.9c0.5,3,3.2,5.3,6.3,5.3c3.2,0,5.8-2.3,6.3-5.4c1,0.7,2.2,1.1,3.6,1.1
	c3.4,0,6.2-2.6,6.4-6C89.2,80,93,81,96,79.2c1.1-0.7,2-1.6,2.5-2.7c2,2.4,5.4,3.1,8.2,1.5c2.7-1.6,3.9-4.8,2.8-7.7
	c1.1,0,2.3-0.2,3.4-0.9c3.1-1.8,4.1-5.7,2.3-8.8c0,0,0,0,0-0.1c3.1,1.7,6.9,0.6,8.7-2.4c0.7-1.1,0.9-2.4,0.8-3.6
	c2.9,1.1,6.2,0,7.8-2.8c1.6-2.7,0.9-6.1-1.4-8.1c1-0.5,1.9-1.4,2.5-2.4c1.8-3,0.7-6.9-2.3-8.7c0,0,0,0,0.1,0c3.5,0,6.4-2.9,6.4-6.4
	c0-1.3-0.4-2.5-1.1-3.6c3.1-0.5,5.4-3.1,5.4-6.3c0-3.1-2.3-5.8-5.3-6.3c0.6-1,0.9-2.1,0.9-3.3c0-3.5-2.8-6.3-6.2-6.4c0,0,0,0,0,0
	H10.8z M20.3,1.5C21,1.1,22,1.3,22.5,2.1s0.2,1.8-0.6,2.2c-0.8,0.5-1.8,0.2-2.2-0.6C19.2,3,19.5,2,20.3,1.5z M20.1,28.1
	c0.8-0.5,1.8-0.2,2.2,0.6c0.5,0.8,0.2,1.8-0.6,2.2c-0.8,0.5-1.8,0.2-2.2-0.6C19,29.6,19.3,28.6,20.1,28.1z M19.1,18.9
	c-0.6,2.2-3.1,4.9-5.5,5.5C14.1,21.9,16.7,19.4,19.1,18.9z M10.8,16.5c2.1-1.4,5.8-1.4,7.8,0C16.6,17.7,12.9,17.8,10.8,16.5z
	 M19.1,14c-2.4-0.5-5-3.1-5.5-5.5C16,9.1,18.5,11.8,19.1,14z M10.8,3.2c1.4,0,2.6,0.9,3.2,2.1C12,6.3,10.4,7.9,9.3,9.8
	C8.1,9.2,7.3,8,7.3,6.7C7.3,4.7,8.9,3.2,10.8,3.2z M3,16.5c0-1.9,1.6-3.5,3.5-3.5c0.4,0,0.9,0.1,1.3,0.2c-0.3,1-0.4,2.1-0.4,3.2
	c0,1.1,0.1,2.2,0.4,3.2C7.3,19.9,6.9,20,6.5,20C4.6,20,3,18.5,3,16.5z M10.8,29.7c-1.9,0-3.5-1.6-3.5-3.5c0-1.3,0.7-2.5,1.8-3
	c1.1,1.9,2.8,3.5,4.7,4.6C13.3,28.9,12.1,29.7,10.8,29.7z M10.9,40c-1-1.7-0.4-3.8,1.3-4.7c1.2-0.7,2.7-0.6,3.8,0.2
	c-1.1,1.9-1.8,4.1-1.8,6.3C12.8,41.8,11.6,41.1,10.9,40z M16.8,52c-1.7,1-3.8,0.4-4.7-1.3c-1-1.7-0.4-3.8,1.3-4.7
	c0.4-0.2,0.8-0.4,1.2-0.4c0.3,1,0.7,2,1.3,3s1.2,1.8,2,2.6C17.5,51.4,17.2,51.7,16.8,52z M17.2,38.4c2.4-0.7,5.9,0.4,7.6,2
	C22.4,41.2,18.9,40.3,17.2,38.4z M18.8,46.8c1.1-2.3,4.3-4.1,6.8-3.9C24.4,44.9,21.3,46.8,18.8,46.8z M25.4,58.1
	c-1.7,1-3.8,0.4-4.7-1.3c-0.7-1.1-0.6-2.5,0-3.5c2,1.1,4.2,1.7,6.4,1.6C27.2,56.2,26.5,57.5,25.4,58.1z M25.2,52.2
	c-0.8-2.4,0.2-6,2-7.6C27.8,46.9,26.9,50.5,25.2,52.2z M47.2,62.7c1.6,1.7,2.7,5.2,2,7.6C47.4,68.6,46.4,65,47.2,62.7z M43,60.3
	c-1.6,1.8-5.2,2.8-7.6,2C37.2,60.5,40.8,59.7,43,60.3z M30.8,66.8c-1.7-1-2.2-3.1-1.3-4.7c0.7-1.2,1.9-1.8,3.2-1.7
	c0,2.2,0.6,4.5,1.6,6.4C33.3,67.4,31.9,67.5,30.8,66.8z M33.1,54c-0.5-0.8-0.2-1.8,0.6-2.2c0.8-0.5,1.8-0.2,2.2,0.6
	c0.5,0.8,0.2,1.8-0.6,2.2C34.6,55,33.6,54.7,33.1,54z M41.7,74.1c-1,1.7-3.1,2.2-4.7,1.3c-1.7-1-2.2-3.1-1.3-4.7
	c0.2-0.4,0.5-0.7,0.8-1c0.8,0.7,1.6,1.4,2.6,2c1,0.6,2,1,3,1.3C42.1,73.3,41.9,73.7,41.7,74.1z M40.9,68.6c0-2.5,1.9-5.6,3.9-6.8
	C45,64.3,43.1,67.5,40.9,68.6z M52.4,75.3c-1,1.7-3.1,2.2-4.7,1.3c-1.2-0.7-1.8-1.9-1.7-3.2c2.2-0.1,4.4-0.7,6.3-1.8
	C53,72.6,53.2,74.1,52.4,75.3z M71.1,68.8c1.4,2,1.4,5.7,0,7.8C69.8,74.5,70,70.8,71.1,68.8z M55.8,67.7c-0.5-0.8-0.2-1.8,0.6-2.2
	c0.8-0.5,1.8-0.2,2.2,0.6c0.5,0.8,0.2,1.8-0.6,2.2C57.3,68.7,56.3,68.5,55.8,67.7z M61.4,80.1c-1.9,0-3.5-1.6-3.5-3.5
	c0-1.3,0.8-2.5,1.9-3.1c1.1,2,2.7,3.6,4.6,4.7C63.9,79.4,62.8,80.1,61.4,80.1z M63.2,73.8c0.6-2.4,3.3-4.9,5.5-5.5
	C68.3,70.7,65.7,73.3,63.2,73.8z M71.1,84.4c-1.9,0-3.5-1.6-3.5-3.5c0-0.4,0.1-0.9,0.2-1.3c1,0.3,2.1,0.4,3.2,0.4
	c1.1,0,2.2-0.1,3.2-0.4c0.2,0.4,0.2,0.8,0.2,1.3C74.6,82.9,73,84.4,71.1,84.4z M73.6,68.3c2.2,0.6,4.9,3.1,5.5,5.5
	C76.7,73.3,74.1,70.7,73.6,68.3z M81,80.1c-1.4,0-2.5-0.8-3.1-1.9c1.9-1.2,3.4-2.8,4.5-4.7c1.2,0.5,2.1,1.8,2.1,3.2
	C84.4,78.5,82.9,80.1,81,80.1z M85.5,69.5c-0.8,0.5-1.8,0.2-2.2-0.6c-0.5-0.8-0.2-1.8,0.6-2.2c0.8-0.5,1.8-0.2,2.2,0.6
	C86.6,68.1,86.3,69.1,85.5,69.5z M106.8,62.4c-2.4,0.8-6-0.2-7.6-2C101.5,59.8,105.1,60.6,106.8,62.4z M95,62.8
	c0.8,2.3-0.1,5.9-2,7.6C92.3,68,93.4,64.5,95,62.8z M94.5,76.7c-1.7,1-3.8,0.4-4.7-1.3c-0.7-1.2-0.6-2.7,0.2-3.8
	c1.9,1.1,4.1,1.8,6.3,1.8C96.3,74.7,95.7,76,94.5,76.7z M97.4,61.9c2,1.2,4,4.3,3.9,6.8C99.1,67.6,97.3,64.4,97.4,61.9z M105.3,75.5
	c-1.7,1-3.8,0.4-4.7-1.3c-0.2-0.4-0.4-0.8-0.4-1.2c1-0.3,2-0.7,3-1.3c1-0.6,1.8-1.2,2.6-2c0.3,0.3,0.6,0.6,0.8,1
	C107.5,72.4,106.9,74.5,105.3,75.5z M108.6,52.4c0.8-0.5,1.8-0.2,2.2,0.6c0.5,0.8,0.2,1.8-0.6,2.2c-0.8,0.5-1.8,0.2-2.2-0.6
	C107.6,53.9,107.8,52.9,108.6,52.4z M111.5,66.9c-1.1,0.7-2.5,0.6-3.5,0c1.1-2,1.7-4.2,1.6-6.4c1.3-0.1,2.5,0.6,3.2,1.7
	C113.7,63.8,113.1,65.9,111.5,66.9z M123.1,18.8c2.4,0.5,5,3.1,5.5,5.5C126.3,23.8,123.8,21.1,123.1,18.8z M123.5,31.7
	c-0.8,0.5-1.8,0.2-2.2-0.6c-0.5-0.8-0.2-1.8,0.6-2.2c0.8-0.5,1.8-0.2,2.2,0.6C124.5,30.2,124.2,31.2,123.5,31.7z M123.6,16.3
	c2-1.1,5.7-1.3,7.8,0C129.3,17.7,125.6,17.7,123.6,16.3z M123.1,14c0.6-2.2,3.1-4.9,5.5-5.5C128.2,10.9,125.5,13.5,123.1,14z
	 M120.9,1.5c0.8-0.5,1.8-0.2,2.2,0.6c0.5,0.8,0.2,1.8-0.6,2.2c-0.8,0.5-1.8,0.2-2.2-0.6C119.9,2.9,120.2,1.9,120.9,1.5z M114.8,44.5
	c1.8,1.6,2.8,5.2,2,7.6C115.1,50.3,114.2,46.7,114.8,44.5z M121.3,56.7c-1,1.7-3.1,2.2-4.7,1.3c-1.2-0.7-1.9-2.1-1.7-3.4
	c2.2,0,4.4-0.5,6.3-1.5C121.9,54.1,122,55.6,121.3,56.7z M116.5,42.5c2.3,0,5.6,1.8,6.8,3.9C120.7,46.6,117.6,44.7,116.5,42.5z
	 M117.2,40.3c1.7-1.6,5.2-2.7,7.6-2C123.1,40.1,119.5,41,117.2,40.3z M130,50.3c-1,1.7-3.1,2.2-4.7,1.3c-0.4-0.2-0.7-0.5-1-0.8
	c0.7-0.8,1.4-1.6,2-2.6c0.6-1,1-2,1.3-3c0.4,0.1,0.8,0.2,1.2,0.4C130.4,46.6,131,48.7,130,50.3z M131.1,39.8
	c-0.7,1.1-1.9,1.8-3.1,1.7c0-2.2-0.6-4.4-1.8-6.4c1.1-0.7,2.4-0.8,3.6-0.1C131.5,36,132,38.2,131.1,39.8z M131.4,29.6
	c-1.4,0-2.6-0.8-3.2-2.1c1.9-1.1,3.6-2.6,4.7-4.5c1.1,0.6,1.9,1.7,1.9,3.1C134.9,28.1,133.4,29.6,131.4,29.6z M139.2,16.3
	c0,1.9-1.6,3.5-3.5,3.5c-0.4,0-0.9-0.1-1.3-0.2c0.3-1,0.4-2.1,0.4-3.2c0-1.1-0.1-2.2-0.4-3.2c0.4-0.2,0.8-0.2,1.3-0.2
	C137.7,12.8,139.2,14.4,139.2,16.3z M134.9,6.6c0,1.3-0.7,2.5-1.8,3c-1.1-1.9-2.8-3.5-4.7-4.6c0.6-1.1,1.7-1.9,3.1-1.9
	C133.4,3.2,134.9,4.7,134.9,6.6z"/>
</svg>
