<?xml version="1.0" encoding="iso-8859-1"?>
<!-- Generator: Adobe Illustrator 19.0.0, SVG Export Plug-In . SVG Version: 6.00 Build 0)  -->
<svg version="1.1" id="Layer_2" xmlns="http://www.w3.org/2000/svg" xmlns:xlink="http://www.w3.org/1999/xlink" x="0px" y="0px"
	 viewBox="0 0 503.607 503.607" style="enable-background:new 0 0 503.607 503.607; fill:#ab132d;" xml:space="preserve">
<g>
	<g>
		<path d="M495.213,297.967h-33.572v-66.631c2.492-0.347,5.243-0.517,8.391-0.517c13.868,0,25.18-11.312,25.18-25.18v-16.82
			c0-13.885-11.262-25.147-25.147-25.147h-42.001v-21.261l38.358-32.161c9.394-7.924,16.078-18.203,18.952-29.562
			c1.375-5.413,1.677-9.954,1.302-13.482c-0.036-0.335-0.075-0.636-0.117-0.903c-2.132-20.793-18.288-36.927-39.06-36.927
			c-10.884,0-20.451,3.873-27.356,10.783c-7.214-6.868-17.315-10.783-28.301-10.783c-20.767,0-36.929,16.136-39.06,36.927
			c-0.042,0.267-0.081,0.568-0.117,0.903c-0.375,3.528-0.073,8.071,1.304,13.496c2.873,11.348,9.558,21.625,18.932,29.532
			l38.377,32.17v21.267H260.196v-46.448l38.357-32.154c9.393-7.923,16.078-18.2,18.952-29.552c1.376-5.421,1.678-9.964,1.303-13.492
			c-0.036-0.335-0.075-0.636-0.117-0.903c-2.131-20.79-18.294-36.927-39.06-36.927c-10.986,0-21.087,3.915-28.301,10.783
			c-6.905-6.91-16.472-10.783-27.356-10.783c-20.767,0-36.929,16.136-39.06,36.927c-0.042,0.267-0.081,0.568-0.117,0.903
			c-0.375,3.528-0.073,8.069,1.304,13.49c2.872,11.351,9.556,21.63,18.931,29.538l38.377,32.177v46.441H92.327v-21.267
			l38.357-32.154c9.393-7.923,16.078-18.2,18.952-29.552c1.376-5.421,1.678-9.964,1.303-13.492
			c-0.036-0.335-0.075-0.636-0.117-0.903c-2.131-20.79-18.294-36.927-39.06-36.927c-10.986,0-21.087,3.915-28.301,10.783
			C76.556,33.25,66.99,29.377,56.105,29.377c-20.767,0-36.929,16.136-39.06,36.927c-0.042,0.267-0.081,0.568-0.117,0.903
			c-0.375,3.528-0.073,8.069,1.304,13.49c2.872,11.351,9.556,21.63,18.931,29.538l38.377,32.177v21.261H33.539
			c-13.885,0-25.147,11.262-25.147,25.147v16.82c0,13.868,11.312,25.18,25.18,25.18h8.396v67.148H8.393
			c-4.636,0-8.393,3.758-8.393,8.393v33.574c0,4.636,3.758,8.393,8.393,8.393h177.103c3.889,19.155,20.824,33.574,41.126,33.574
			v15.184c-12.952,7.486-21.977,20.365-24.478,35.177h-28.049c-22.224,0-41.181,16.097-44.785,38.03l-2.101,12.331H100.72
			c-4.636,0-8.393,3.758-8.393,8.393c0,4.636,3.758,8.393,8.393,8.393h33.573H369.31h33.575c4.636,0,8.393-3.758,8.393-8.393
			c0-4.636-3.758-8.393-8.393-8.393h-26.49l-2.109-12.38c-3.596-21.884-22.553-37.981-44.777-37.981h-28.047
			c-2.501-14.812-11.526-27.69-24.478-35.177v-15.184c20.302,0,37.237-14.419,41.126-33.574h177.104
			c4.636,0,8.393-3.758,8.393-8.393v-33.574C503.607,301.725,499.849,297.967,495.213,297.967z M370.242,76.578
			c-0.882-3.474-1.051-6.019-0.883-7.597c0.006-0.055,0.103-0.761,0.103-0.761c1.207-12.671,10.545-22.057,22.381-22.057
			c9.588,0,17.523,4.637,20.791,11.855c2.977,6.576,12.316,6.576,15.293,0c3.413-7.539,10.344-11.855,19.574-11.855
			c11.841,0,21.174,9.382,22.381,22.057l0.137,0.91c0.134,1.427-0.035,3.969-0.915,7.433c-1.988,7.859-6.718,15.133-13.484,20.84
			l-35.943,30.136l-35.97-30.153C376.959,91.696,372.228,84.422,370.242,76.578z M202.373,51.391
			c-0.882-3.472-1.051-6.014-0.884-7.59c0.006-0.054,0.103-0.761,0.103-0.761c1.207-12.671,10.545-22.057,22.381-22.057
			c9.229,0,16.161,4.317,19.574,11.855c2.977,6.576,12.316,6.576,15.293,0c3.268-7.218,11.203-11.855,20.791-11.855
			c11.836,0,21.174,9.386,22.381,22.057l0.137,0.91c0.134,1.428-0.035,3.974-0.916,7.443c-1.987,7.849-6.718,15.123-13.484,20.829
			l-35.951,30.136l-35.962-30.152C209.089,66.515,204.359,59.241,202.373,51.391z M34.504,76.571
			c-0.882-3.472-1.051-6.014-0.884-7.59c0.006-0.055,0.103-0.761,0.103-0.761c1.207-12.671,10.545-22.057,22.381-22.057
			c9.229,0,16.161,4.317,19.574,11.855c2.977,6.576,12.316,6.576,15.293,0c3.268-7.218,11.202-11.855,20.791-11.855
			c11.836,0,21.174,9.386,22.381,22.057l0.137,0.91c0.134,1.428-0.036,3.974-0.916,7.443c-1.987,7.849-6.718,15.123-13.484,20.829
			L83.93,127.539L47.968,97.387C41.22,91.695,36.49,84.422,34.504,76.571z M25.179,205.639v-16.82c0-4.614,3.746-8.36,8.36-8.36
			h436.526c4.614,0,8.36,3.746,8.36,8.36v16.82c0,4.597-3.796,8.393-8.393,8.393c-20.377,0-31.035,5.958-42.999,19.659
			c-0.442,0.506-1.003,1.153-1.96,2.257c-7.669,8.824-11.916,11.513-21.445,11.644c-0.247,0.003-0.483,0.013-0.738,0.013
			c-8.333-0.002-13.653-1.952-20.758-7.492c-1.64-1.279-3.375-2.749-5.264-4.431c-0.49-0.436-2.531-2.264-3.064-2.739
			c-14.905-13.268-26.411-18.911-46.458-18.911c0,0-0.001,0-0.001,0s-0.001,0-0.001,0c-20.047,0-31.551,5.643-46.455,18.911
			c-0.533,0.474-2.571,2.3-3.06,2.735c-10.079,8.974-15.768,11.927-26.025,11.927c-3.204,0-5.963-0.289-8.549-0.959
			c-5.689-1.475-10.543-4.798-17.471-10.965c-0.49-0.436-2.531-2.264-3.064-2.739c-1.915-1.704-3.772-3.278-5.6-4.735
			c-12.4-9.885-23.383-14.176-40.855-14.176c0,0-0.001,0-0.001,0c0,0-0.001,0-0.001,0c-31.42,0-50.361,13.789-50.361,41.967v8.393
			c0,3.757-4.635,8.392-8.392,8.393c-0.627,0-1.28-0.141-1.932-0.377c-0.077-0.028-0.153-0.047-0.23-0.078
			c-0.001,0-0.002-0.001-0.004-0.002c-1.698-0.679-3.372-2.048-4.557-3.64c-1.016-1.366-1.67-2.896-1.67-4.298V256
			c0-22.508-31.817-41.967-58.754-41.967c0,0-0.001,0-0.001,0c-0.001,0-0.001,0-0.002,0H33.573
			C28.976,214.033,25.179,210.237,25.179,205.639z M58.756,231.668c0.132,0.025,0.263,0.047,0.395,0.074
			c0.201,0.04,0.401,0.082,0.601,0.125c0.383,0.081,0.765,0.166,1.147,0.256c0.196,0.046,0.393,0.092,0.589,0.14
			c0.404,0.099,0.806,0.204,1.209,0.313c0.168,0.045,0.336,0.089,0.504,0.135c0.504,0.141,1.007,0.289,1.509,0.443
			c0.063,0.019,0.126,0.037,0.188,0.056c0.582,0.181,1.162,0.372,1.739,0.57c0.074,0.026,0.148,0.053,0.222,0.079
			c0.486,0.17,0.971,0.345,1.452,0.526c0.155,0.058,0.308,0.119,0.462,0.179c0.403,0.155,0.804,0.314,1.202,0.477
			c0.17,0.07,0.339,0.14,0.508,0.211c0.388,0.163,0.773,0.329,1.156,0.499c0.161,0.072,0.323,0.143,0.483,0.216
			c0.407,0.184,0.809,0.373,1.21,0.565c0.127,0.061,0.255,0.12,0.382,0.182c1.067,0.521,2.11,1.066,3.122,1.634
			c0.054,0.03,0.106,0.062,0.159,0.092c0.44,0.249,0.875,0.502,1.303,0.76c0.122,0.073,0.241,0.148,0.362,0.222
			c0.36,0.22,0.715,0.442,1.065,0.667c0.132,0.085,0.263,0.171,0.394,0.257c0.339,0.223,0.674,0.448,1.003,0.675
			c0.122,0.084,0.244,0.168,0.365,0.252c0.353,0.248,0.699,0.499,1.039,0.752c0.084,0.062,0.169,0.124,0.252,0.186
			c0.86,0.648,1.676,1.31,2.442,1.982c0.043,0.038,0.083,0.076,0.126,0.114c0.327,0.29,0.646,0.582,0.954,0.876
			c0.087,0.083,0.171,0.167,0.257,0.25c0.26,0.253,0.514,0.507,0.759,0.763c0.091,0.094,0.18,0.189,0.268,0.283
			c0.236,0.252,0.463,0.504,0.683,0.757c0.079,0.091,0.159,0.182,0.236,0.273c0.235,0.277,0.458,0.555,0.673,0.834
			c0.049,0.063,0.101,0.127,0.149,0.19c0.528,0.698,0.994,1.398,1.391,2.097c0.031,0.054,0.056,0.107,0.086,0.161
			c0.159,0.287,0.308,0.574,0.443,0.861c0.043,0.091,0.082,0.183,0.122,0.274c0.112,0.251,0.216,0.502,0.309,0.752
			c0.037,0.1,0.073,0.2,0.107,0.3c0.084,0.247,0.158,0.493,0.222,0.738c0.025,0.095,0.052,0.189,0.074,0.284
			c0.063,0.269,0.111,0.537,0.15,0.803c0.009,0.065,0.024,0.131,0.031,0.196c0.041,0.337,0.064,0.671,0.064,1.003v8.393
			c0,5.283,2.01,10.43,5.269,14.679c3.488,4.55,8.409,8.068,13.829,9.625c0.03,0.009,0.06,0.02,0.091,0.028
			c0.037,0.01,0.074,0.018,0.111,0.028c1.914,0.531,3.887,0.82,5.88,0.82c0,0,0.001,0,0.001,0s0.001,0,0.001,0
			c13.029,0,25.18-12.151,25.18-25.18V256c0-17.548,10.483-25.18,33.572-25.18c12.935,0,20.599,2.804,29.999,10.209
			c1.697,1.337,3.443,2.805,5.295,4.454c0.508,0.452,2.545,2.277,3.059,2.735c8.871,7.898,15.954,12.594,24.49,14.75
			c3.84,0.97,7.973,1.427,12.696,1.427c0,0,0.001,0,0.001,0s0.001,0,0.001,0c15.224,0,24.327-4.725,37.189-16.177
			c0.514-0.458,2.552-2.283,3.059-2.735c12.11-10.781,20.022-14.662,35.292-14.662c15.27,0,23.183,3.881,35.296,14.663
			c0.508,0.452,2.546,2.277,3.061,2.735c2.412,2.147,4.691,4.057,6.904,5.744c9.381,7.155,17.571,10.284,29.505,10.415
			c0.259,0.003,0.507,0.016,0.769,0.016c0.001,0,0.002,0,0.003,0c0.001,0,0.002,0,0.004,0c15.83,0,24.116-5.052,34.903-17.384
			c0.989-1.133,1.528-1.752,1.948-2.229c1.867-2.125,3.527-3.884,5.117-5.363v58.549H58.756V231.668z M357.729,473.014l1.637,9.609
			H144.238l1.629-9.561c2.279-13.87,14.225-24.013,28.229-24.013h35.74h83.934h35.738
			C343.512,449.049,355.458,459.193,357.729,473.014z M265.22,409.918c9.545,4.183,16.532,12.467,19.09,22.344h-65.015
			c2.557-9.877,9.544-18.161,19.09-22.344c3.053-1.338,5.025-4.355,5.025-7.688v-20.329h16.787v20.329
			C260.196,405.563,262.168,408.581,265.22,409.918z M276.983,365.115h-8.393h-33.574h-8.393c-10.963,0-20.29-7.007-23.747-16.787
			h97.855C297.273,358.107,287.945,365.115,276.983,365.115z M486.82,331.541H310.557H193.048H16.787v-16.787h33.575h402.885h33.572
			V331.541z"/>
	</g>
</g>
<g>
</g>
<g>
</g>
<g>
</g>
<g>
</g>
<g>
</g>
<g>
</g>
<g>
</g>
<g>
</g>
<g>
</g>
<g>
</g>
<g>
</g>
<g>
</g>
<g>
</g>
<g>
</g>
<g>
</g>
</svg>
