<?xml version="1.0" encoding="iso-8859-1"?>
<!-- Generator: Adobe Illustrator 19.0.0, SVG Export Plug-In . SVG Version: 6.00 Build 0)  -->
<svg version="1.1" id="Layer_7" xmlns="http://www.w3.org/2000/svg" xmlns:xlink="http://www.w3.org/1999/xlink" x="0px" y="0px"
	 viewBox="0 0 512 512" style="enable-background:new 0 0 512 512; fill:#ab132d;" xml:space="preserve">
<g>
	<g>
		<path id="nhancuoi" d="M378.238,66.909c-11.795-7.6-17.707-13.513-25.306-25.305c-1.443-2.239-3.925-3.592-6.588-3.592s-5.145,1.353-6.588,3.592
			c-7.6,11.793-13.512,17.706-25.306,25.305c-2.239,1.443-3.592,3.924-3.592,6.588s1.353,5.145,3.592,6.588
			c11.795,7.6,17.707,13.513,25.306,25.306c1.443,2.239,3.925,3.592,6.588,3.592c2.663,0,5.145-1.353,6.588-3.592
			c7.599-11.794,13.512-17.706,25.306-25.306c2.239-1.443,3.592-3.924,3.592-6.588S380.478,68.352,378.238,66.909z M346.343,87.554
			c-4.245-5.416-8.641-9.813-14.057-14.057c5.416-4.245,9.812-8.642,14.057-14.057c4.245,5.416,8.642,9.813,14.057,14.057
			C354.984,77.742,350.587,82.139,346.343,87.554z"/>
	</g>
</g>
<g>
	<g>
		<path d="M308.563,105.009L289.753,86.2c-3.059-3.062-8.022-3.06-11.082,0l-18.808,18.808c-1.469,1.47-2.295,3.463-2.295,5.541
			c0,2.078,0.826,4.072,2.296,5.542l18.809,18.808c1.53,1.53,3.536,2.295,5.541,2.295s4.011-0.765,5.542-2.296l18.807-18.808
			C311.624,113.03,311.624,108.068,308.563,105.009z M284.215,118.275l-7.728-7.726l7.725-7.725l7.727,7.726L284.215,118.275z"/>
	</g>
</g>
<g>
	<g>
		<path d="M111.077,55.898L92.268,37.09c-3.059-3.062-8.022-3.061-11.082,0L62.377,55.898c-1.47,1.469-2.296,3.463-2.296,5.541
			s0.825,4.072,2.296,5.542l18.81,18.808c1.53,1.53,3.536,2.295,5.541,2.295c2.005,0,4.011-0.765,5.542-2.296l18.807-18.808
			C114.138,63.92,114.138,58.958,111.077,55.898z M86.729,69.164l-7.728-7.726l7.726-7.725l7.727,7.726L86.729,69.164z"/>
	</g>
</g>
<g>
	<g>
		<path d="M487.112,253.666c-2.443-3.573-7.321-4.486-10.893-2.043c-3.571,2.444-4.487,7.321-2.042,10.893
			c14.491,21.179,22.15,45.994,22.15,71.764c0,70.167-57.085,127.253-127.252,127.253c-70.166,0-127.251-57.086-127.251-127.253
			c0-33.599,13.1-64.187,34.447-86.954c3.942,7.097,7.151,14.593,9.568,22.381c-13.88,17.851-22.162,40.261-22.162,64.574
			c0,58.119,47.282,105.402,105.398,105.402c58.118,0,105.401-47.283,105.401-105.402c0-58.118-47.283-105.401-105.401-105.401
			c-13.762,0-26.912,2.662-38.975,7.484c-2.94-6.735-6.31-13.241-10.054-19.498c7.876-3.301,16.154-5.827,24.736-7.493
			l17.236,13.829c1.936,1.552,4.37,2.407,6.85,2.407h0.413c2.49,0,4.928-0.858,6.858-2.411l17.237-13.83
			c23.083,4.467,44.562,15.259,62.104,31.489c3.176,2.939,8.132,2.747,11.075-0.429c2.939-3.177,2.747-8.135-0.429-11.075
			c-16.513-15.281-36.133-26.273-57.316-32.388c6.936-5.848,10.895-14.313,10.895-23.437c0-16.92-13.765-30.686-30.685-30.686
			c-7.378,0-14.388,2.602-19.941,7.361c-5.555-4.762-12.564-7.361-19.941-7.361c-16.92,0-30.686,13.766-30.686,30.686
			c0,9.131,3.965,17.602,10.911,23.45c-6.223,1.802-12.268,4.023-18.113,6.618c-23.336-31.907-57.361-55.519-96.769-65.506
			l3.627-2.91c8.723-6.778,13.724-16.992,13.724-28.034c0-19.571-15.922-35.494-35.494-35.494c-9.014,0-17.553,3.357-24.138,9.471
			c-6.585-6.114-15.125-9.471-24.139-9.471c-19.571,0-35.494,15.922-35.494,35.494c0,11.042,5.001,21.255,13.725,28.035l3.626,2.909
			C55.343,156.989,0,224.649,0,305.012c0,41.492,14.965,81.573,42.141,112.862c1.549,1.784,3.728,2.698,5.919,2.698
			c1.822,0,3.652-0.631,5.136-1.919c3.267-2.838,3.616-7.789,0.777-11.056c-24.697-28.437-38.3-64.868-38.3-102.584
			c0-77.27,56.283-141.638,130.006-154.271l18.998,15.244c2.054,1.649,4.635,2.556,7.267,2.556h0.502
			c2.635,0,5.217-0.909,7.264-2.555l19.001-15.245c73.723,12.632,130.006,77,130.006,154.271c0,31.877-9.38,62.186-27.211,88.21
			c-5.31-6.066-9.745-12.767-13.249-20.026c12.188-20.666,18.609-44.146,18.609-68.185c0-45.614-22.881-87.793-61.208-112.829
			c-3.624-2.366-8.48-1.35-10.847,2.276c-2.367,3.624-1.348,8.479,2.276,10.847c11.939,7.798,22.173,17.483,30.433,28.512
			c-25.559,25.836-41.369,61.334-41.369,100.462c0,24.018,5.975,46.66,16.485,66.55c-20.35,14.978-45.112,23.179-70.44,23.179
			c-65.615,0-118.998-53.382-118.998-118.997s53.383-118.998,118.998-118.998c12.802,0,25.4,2.03,37.446,6.033
			c4.103,1.365,8.543-0.858,9.908-4.964c1.366-4.108-0.858-8.543-4.965-9.909c-13.642-4.535-27.904-6.834-42.388-6.834
			c-74.258,0-134.672,60.413-134.672,134.672c0,74.258,60.413,134.671,134.672,134.671c28.165,0,55.72-8.937,78.519-25.323
			c4.106,6.059,8.67,11.795,13.651,17.157c-26.643,19.411-59.047,30.017-92.169,30.017c-34.825,0-67.787-11.191-95.322-32.363
			c-3.431-2.639-8.352-1.995-10.989,1.436c-2.638,3.431-1.996,8.352,1.436,10.989c30.297,23.297,66.562,35.611,104.874,35.611
			c37.376,0,73.918-12.281,103.65-34.698c25.046,21.606,57.632,34.698,93.229,34.698C447.884,477.207,512,413.091,512,334.28
			C512,305.34,503.394,277.464,487.112,253.666z M349.135,158.516c3.928,0,7.641,1.507,10.459,4.245
			c1.05,1.019,1.94,2.174,2.647,3.434c1.388,2.471,4.001,4.002,6.835,4.002c2.834,0,5.447-1.53,6.835-4.002
			c0.706-1.26,1.597-2.415,2.649-3.437c2.816-2.737,6.53-4.243,10.457-4.243c8.278,0,15.012,6.734,15.012,15.012
			c0,4.68-2.126,9.009-5.834,11.879c-0.036,0.028-0.071,0.056-0.108,0.086l-29.012,23.277l-29.013-23.277
			c-0.036-0.029-0.071-0.057-0.108-0.086c-3.707-2.869-5.834-7.199-5.834-11.879C334.123,165.25,340.857,158.516,349.135,158.516z
			 M208.453,122.831c-0.037,0.028-0.072,0.056-0.109,0.086l-36.15,29.004l-36.148-29.004c-0.036-0.029-0.071-0.057-0.109-0.086
			c-4.894-3.788-7.701-9.504-7.701-15.684c0-10.93,8.892-19.821,19.821-19.821c5.187,0,10.091,1.99,13.811,5.604
			c1.382,1.343,2.558,2.869,3.495,4.537c1.388,2.47,4.001,3.999,6.834,3.999c2.834-0.001,5.446-1.53,6.833-4.001
			c0.935-1.665,2.111-3.191,3.495-4.536c3.719-3.612,8.622-5.603,13.809-5.603c10.929,0,19.821,8.891,19.821,19.821
			C216.154,113.327,213.347,119.044,208.453,122.831z M344.391,305.012c0-18.855-3.055-37.008-8.682-54
			c10.318-4.158,21.575-6.46,33.366-6.46c49.476,0,89.727,40.252,89.727,89.727c0,49.477-40.252,89.729-89.727,89.729
			c-21.228,0-40.739-7.432-56.117-19.807C333.546,375.094,344.391,340.958,344.391,305.012z M291.192,305.012
			c0,16.443-3.417,32.585-9.951,47.513c-1.23-5.893-1.891-11.991-1.891-18.244c0-15.587,4.016-30.244,11.037-43.027
			C290.912,295.788,291.192,300.378,291.192,305.012z"/>
	</g>
</g>
<g>
</g>
<g>
</g>
<g>
</g>
<g>
</g>
<g>
</g>
<g>
</g>
<g>
</g>
<g>
</g>
<g>
</g>
<g>
</g>
<g>
</g>
<g>
</g>
<g>
</g>
<g>
</g>
<g>
</g>
</svg>
