<?xml version="1.0" encoding="iso-8859-1"?>
<!-- Generator: Adobe Illustrator 18.0.0, SVG Export Plug-In . SVG Version: 6.00 Build 0)  -->
<!DOCTYPE svg PUBLIC "-//W3C//DTD SVG 1.1//EN" "http://www.w3.org/Graphics/SVG/1.1/DTD/svg11.dtd">
<svg version="1.1" id="Layer_3" xmlns="http://www.w3.org/2000/svg" xmlns:xlink="http://www.w3.org/1999/xlink" x="0px" y="0px"
	 viewBox="0 0 431.589 431.589" style="enable-background:new 0 0 431.589 431.589; fill:#ab132d;" xml:space="preserve">
<g>
	<path d="M154.967,329.982l53.755,53.756c1.875,1.875,4.419,2.929,7.071,2.929s5.196-1.054,7.071-2.929l53.755-53.756
		c9.068-9.068,14.063-21.125,14.063-33.949s-4.994-24.881-14.062-33.949c-9.068-9.068-21.125-14.062-33.949-14.062
		c-9.726,0-19.012,2.873-26.886,8.217c-18.667-12.615-44.308-10.666-60.819,5.845c-9.068,9.068-14.062,21.125-14.062,33.949
		S145.899,320.914,154.967,329.982z M169.109,276.226c5.46-5.461,12.633-8.191,19.807-8.191c7.173,0,14.346,2.73,19.806,8.191
		c3.905,3.905,10.237,3.905,14.143,0c10.921-10.921,28.692-10.921,39.613,0c5.291,5.291,8.205,12.325,8.205,19.807
		c0,7.482-2.914,14.516-8.205,19.807l-46.685,46.685l-46.685-46.685c-5.291-5.291-8.204-12.325-8.204-19.807
		C160.905,288.551,163.818,281.516,169.109,276.226z"/>
	<path d="M407.322,139.402H359.75c-4.569-5.18-9.594-9.825-15.003-13.886c6.703-15.553,9.311-32.536,7.529-49.641
		c-0.49-4.701-4.203-8.417-8.904-8.91c-6.163-0.646-12.342-0.696-18.483-0.196c0.376-5.651,0.278-11.376-0.322-17.124
		c-0.491-4.701-4.206-8.417-8.908-8.908c-9.231-0.964-18.405-0.639-27.306,0.886c-0.923-8.074-2.819-16.017-5.712-23.727
		c-1.661-4.426-6.194-7.085-10.867-6.373c-10.864,1.654-21.503,5.16-31.255,10.251c-5.165-7.218-11.34-13.791-18.432-19.543
		c-3.672-2.978-8.927-2.978-12.599,0c-7.094,5.753-13.271,12.329-18.437,19.549c-9.747-5.094-20.383-8.602-31.247-10.257
		c-4.673-0.712-9.208,1.947-10.868,6.373c-2.892,7.706-4.788,15.649-5.715,23.726c-8.898-1.524-18.071-1.849-27.301-0.885
		c-4.701,0.491-8.417,4.206-8.907,8.908c-0.6,5.747-0.698,11.472-0.322,17.123c-6.141-0.501-12.32-0.45-18.485,0.196
		c-4.698,0.493-8.411,4.206-8.903,8.904c-1.791,17.099,0.815,34.085,7.522,49.651c-5.407,4.059-10.43,8.703-14.997,13.881H24.267
		c-5.523,0-10,4.477-10,10v63.694c0,5.523,4.477,10,10,10h12.781v198.493c0,5.523,4.477,10,10,10h337.49c5.523,0,10-4.477,10-10
		V223.096h12.784c5.523,0,10-4.477,10-10v-63.694C417.322,143.879,412.845,139.402,407.322,139.402z M296.011,130.304
		c1.075-1.075,2.115-2.177,3.135-3.293c11.071,1.944,21.464,6.158,30.628,12.391h-44.222
		C289.213,136.635,292.711,133.603,296.011,130.304z M332.821,86.421c-0.009,9.868-1.838,19.565-5.404,28.691
		c-4.953-2.319-10.105-4.227-15.416-5.699c4.008-6.985,7.138-14.413,9.331-22.13C325.141,86.719,328.977,86.428,332.821,86.421z
		 M305.113,60.193c-0.024,20.95-8.26,40.983-23.245,55.969c-11.727,11.727-26.547,19.297-42.476,22.056l31.049-34.32
		c3.705-4.095,3.389-10.419-0.707-14.125c-4.095-3.704-10.419-3.389-14.125,0.707l-27.484,30.38
		c3.379-13.999,10.542-26.946,21.019-37.422C264.131,68.452,284.161,60.217,305.113,60.193z M266.481,33.023
		c1.199,4.622,1.965,9.324,2.313,14.074c-4.572,1.804-9.011,3.951-13.284,6.428c-1.321-4.932-3.014-9.729-5.064-14.36
		C255.547,36.562,260.936,34.488,266.481,33.023z M215.788,23.442c11.747,11.751,19.409,26.705,22.077,43.114
		c-0.968,0.895-1.926,1.803-2.864,2.74c-7.979,7.979-14.43,17.1-19.211,26.965c-4.782-9.865-11.232-18.986-19.211-26.965
		c0,0,0,0,0,0c-0.938-0.938-1.898-1.848-2.867-2.744C196.38,50.144,204.042,35.192,215.788,23.442z M165.098,33.025
		c5.544,1.466,10.932,3.542,16.029,6.147c-2.048,4.628-3.74,9.422-5.06,14.351c-4.273-2.477-8.713-4.624-13.286-6.428
		C163.133,42.344,163.9,37.643,165.098,33.025z M182.437,83.438c10.477,10.477,17.641,23.425,21.02,37.426L175.969,90.48
		c-3.705-4.096-10.029-4.412-14.125-0.707c-4.095,3.705-4.412,10.029-0.707,14.125l31.048,34.319
		c-15.927-2.76-30.748-10.33-42.472-22.055c-14.986-14.986-23.221-35.018-23.245-55.969
		C147.419,60.218,167.451,68.453,182.437,83.438z M98.754,86.421c3.846,0.007,7.684,0.298,11.494,0.862
		c2.193,7.717,5.323,15.144,9.331,22.129c-5.315,1.473-10.469,3.383-15.425,5.703C100.588,105.983,98.759,96.285,98.754,86.421z
		 M132.436,127.011c1.02,1.116,2.06,2.218,3.135,3.293c3.299,3.299,6.797,6.331,10.459,9.098h-44.224
		C110.97,133.169,121.364,128.955,132.436,127.011z M374.538,411.589H57.048V223.096h317.49V411.589z M397.322,203.096H34.267
		v-43.694h363.055V203.096z"/>
</g>
<g>
</g>
<g>
</g>
<g>
</g>
<g>
</g>
<g>
</g>
<g>
</g>
<g>
</g>
<g>
</g>
<g>
</g>
<g>
</g>
<g>
</g>
<g>
</g>
<g>
</g>
<g>
</g>
<g>
</g>
</svg>
