<svg id="Isolation_Mode" data-name="Isolation Mode" xmlns="http://www.w3.org/2000/svg" viewBox="0 0 1528.95 28.85"><defs><style>.cls-1{fill:#fff;}</style></defs><title>ren4</title><path class="cls-1" d="M1392.43,28.85a4.81,4.81,0,0,0,4-2.26,4.62,4.62,0,0,0,7.52-2.58,4.83,4.83,0,0,0,4.54-.64,4.76,4.76,0,0,0,1.77-3.88c0-.11,0-.23,0-.34a4.82,4.82,0,0,0,4.09-2.08,4.48,4.48,0,0,0,.73-2.48,5.59,5.59,0,0,0-.45-2.09,4.83,4.83,0,0,0,3.21-3.29,4.37,4.37,0,0,0,.14-1.09s0,0,0-.07a3.7,3.7,0,0,0,.93.51,3.56,3.56,0,0,0-.29,1.33,2.86,2.86,0,0,0,.47,1.58,3.08,3.08,0,0,0,2.61,1.33c0,.07,0,.15,0,.22a3,3,0,0,0,1.13,2.48,3.09,3.09,0,0,0,2.9.41,2.95,2.95,0,0,0,4.8,1.65,3,3,0,0,0,5.09,0,2.95,2.95,0,0,0,4.8-1.65,3.08,3.08,0,0,0,2.9-.41,3,3,0,0,0,1.13-2.48c0-.07,0-.15,0-.22a3.08,3.08,0,0,0,2.61-1.33,2.86,2.86,0,0,0,.46-1.58,3.57,3.57,0,0,0-.29-1.33l.1,0a4.31,4.31,0,0,0,.11.7,4.83,4.83,0,0,0,3.21,3.29,5.6,5.6,0,0,0-.45,2.09,4.48,4.48,0,0,0,.73,2.48,4.81,4.81,0,0,0,4.09,2.08c0,.12,0,.23,0,.34a4.76,4.76,0,0,0,1.77,3.88,4.83,4.83,0,0,0,4.54.64,4.62,4.62,0,0,0,7.52,2.58,4.65,4.65,0,0,0,8,0A4.62,4.62,0,0,0,1484.3,24a4.83,4.83,0,0,0,4.54-.64,4.76,4.76,0,0,0,1.77-3.88c0-.11,0-.23,0-.34a4.82,4.82,0,0,0,4.09-2.08,4.48,4.48,0,0,0,.73-2.48,5.59,5.59,0,0,0-.45-2.09,4.83,4.83,0,0,0,3.21-3.29,4.37,4.37,0,0,0,.14-1.09s0,0,0-.07a3.7,3.7,0,0,0,.93.51,3.56,3.56,0,0,0-.29,1.33,2.86,2.86,0,0,0,.47,1.58A3.08,3.08,0,0,0,1502,12.8c0,.07,0,.15,0,.22a3,3,0,0,0,1.13,2.48,3.09,3.09,0,0,0,2.9.41,2.95,2.95,0,0,0,4.8,1.65,3,3,0,0,0,5.09,0,2.95,2.95,0,0,0,4.8-1.65,3.08,3.08,0,0,0,2.9-.41,3,3,0,0,0,1.13-2.48c0-.07,0-.15,0-.22a3.08,3.08,0,0,0,2.61-1.33,2.86,2.86,0,0,0,.46-1.58,3.57,3.57,0,0,0-.29-1.33,3.08,3.08,0,0,0,2.05-2.1,2.78,2.78,0,0,0,.09-.7c0-1.74-1.6-3.3-4-3.92a5.07,5.07,0,0,0-1-.14h5V0H731.57V0H729.7V0H8.31V0H6.43V1.7H8.31A11.28,11.28,0,0,0,7,1.95C3.25,2.91.74,5.39.74,8.11A4.36,4.36,0,0,0,.88,9.21,4.83,4.83,0,0,0,4.09,12.5a5.59,5.59,0,0,0-.45,2.09,4.49,4.49,0,0,0,.73,2.48,4.82,4.82,0,0,0,4.09,2.08c0,.12,0,.23,0,.34a4.76,4.76,0,0,0,1.77,3.88,4.83,4.83,0,0,0,4.54.64,4.8,4.8,0,0,0,3,3.44,4.83,4.83,0,0,0,4.49-.85,4.65,4.65,0,0,0,8,0A4.62,4.62,0,0,0,37.78,24a4.83,4.83,0,0,0,4.54-.64,4.76,4.76,0,0,0,1.77-3.88c0-.11,0-.23,0-.34a4.82,4.82,0,0,0,4.09-2.08,4.5,4.5,0,0,0,.73-2.48,5.59,5.59,0,0,0-.45-2.09,4.83,4.83,0,0,0,3.21-3.29,4.3,4.3,0,0,0,.14-1.09s0,0,0-.07a3.7,3.7,0,0,0,.93.51,3.58,3.58,0,0,0-.29,1.33,2.86,2.86,0,0,0,.46,1.58,3.08,3.08,0,0,0,2.61,1.33c0,.07,0,.15,0,.22a3,3,0,0,0,1.13,2.48,3.09,3.09,0,0,0,2.9.41,2.95,2.95,0,0,0,4.8,1.65,3,3,0,0,0,5.1,0,2.95,2.95,0,0,0,4.8-1.65,3.08,3.08,0,0,0,2.9-.41A3,3,0,0,0,78.25,13c0-.07,0-.15,0-.22a3.08,3.08,0,0,0,2.61-1.33,2.86,2.86,0,0,0,.46-1.58A3.59,3.59,0,0,0,81,8.55l.09,0a4.32,4.32,0,0,0,.11.7,4.83,4.83,0,0,0,3.21,3.29A5.59,5.59,0,0,0,84,14.59a4.49,4.49,0,0,0,.73,2.48,4.82,4.82,0,0,0,4.09,2.08c0,.12,0,.23,0,.34a4.76,4.76,0,0,0,1.77,3.88,4.83,4.83,0,0,0,4.54.64,4.62,4.62,0,0,0,7.52,2.58,4.65,4.65,0,0,0,8,0A4.62,4.62,0,0,0,118.14,24a4.83,4.83,0,0,0,4.54-.64,4.76,4.76,0,0,0,1.77-3.88c0-.11,0-.23,0-.34a4.82,4.82,0,0,0,4.09-2.08,4.5,4.5,0,0,0,.73-2.48,5.59,5.59,0,0,0-.45-2.09A4.83,4.83,0,0,0,132,9.21a4.31,4.31,0,0,0,.14-1.09s0,0,0-.07a3.7,3.7,0,0,0,.93.51,3.58,3.58,0,0,0-.29,1.33,2.86,2.86,0,0,0,.46,1.58,3.08,3.08,0,0,0,2.61,1.33c0,.07,0,.15,0,.22A3,3,0,0,0,137,15.49a3.09,3.09,0,0,0,2.9.41,2.95,2.95,0,0,0,4.8,1.65,3,3,0,0,0,5.1,0,2.95,2.95,0,0,0,4.8-1.65,3.08,3.08,0,0,0,2.9-.41A3,3,0,0,0,158.61,13c0-.07,0-.15,0-.22a3.08,3.08,0,0,0,2.61-1.33,2.86,2.86,0,0,0,.46-1.58,3.59,3.59,0,0,0-.29-1.33l.09,0a4.32,4.32,0,0,0,.11.7,4.83,4.83,0,0,0,3.21,3.29,5.59,5.59,0,0,0-.45,2.09,4.49,4.49,0,0,0,.73,2.48,4.82,4.82,0,0,0,4.09,2.08c0,.12,0,.23,0,.34a4.76,4.76,0,0,0,1.77,3.88,4.83,4.83,0,0,0,4.54.64A4.62,4.62,0,0,0,183,26.59a4.65,4.65,0,0,0,8,0A4.62,4.62,0,0,0,198.5,24a4.83,4.83,0,0,0,4.54-.64,4.76,4.76,0,0,0,1.77-3.88c0-.11,0-.23,0-.34a4.82,4.82,0,0,0,4.09-2.08,4.5,4.5,0,0,0,.73-2.48,5.59,5.59,0,0,0-.45-2.09,4.83,4.83,0,0,0,3.21-3.29,4.3,4.3,0,0,0,.14-1.09s0,0,0-.07a3.7,3.7,0,0,0,.93.51,3.58,3.58,0,0,0-.29,1.33,2.86,2.86,0,0,0,.46,1.58,3.08,3.08,0,0,0,2.61,1.33c0,.07,0,.15,0,.22a3,3,0,0,0,1.13,2.48,3.09,3.09,0,0,0,2.9.41,2.95,2.95,0,0,0,4.8,1.65,3,3,0,0,0,5.1,0,2.95,2.95,0,0,0,4.8-1.65,3.08,3.08,0,0,0,2.9-.41A3,3,0,0,0,239,13c0-.07,0-.15,0-.22a3.08,3.08,0,0,0,2.61-1.33A2.86,2.86,0,0,0,242,9.88a3.59,3.59,0,0,0-.29-1.33l.09,0a4.32,4.32,0,0,0,.11.7,4.83,4.83,0,0,0,3.21,3.29,5.59,5.59,0,0,0-.45,2.09,4.49,4.49,0,0,0,.73,2.48,4.82,4.82,0,0,0,4.09,2.08c0,.12,0,.23,0,.34a4.76,4.76,0,0,0,1.77,3.88,4.83,4.83,0,0,0,4.54.64,4.62,4.62,0,0,0,7.52,2.58,4.65,4.65,0,0,0,8,0A4.62,4.62,0,0,0,278.86,24a4.83,4.83,0,0,0,4.54-.64,4.76,4.76,0,0,0,1.77-3.88c0-.11,0-.23,0-.34a4.82,4.82,0,0,0,4.09-2.08,4.5,4.5,0,0,0,.73-2.48,5.59,5.59,0,0,0-.45-2.09,4.83,4.83,0,0,0,3.21-3.29,4.3,4.3,0,0,0,.14-1.09s0,0,0-.07a3.7,3.7,0,0,0,.93.51,3.58,3.58,0,0,0-.29,1.33,2.86,2.86,0,0,0,.46,1.58,3.08,3.08,0,0,0,2.61,1.33c0,.07,0,.15,0,.22a3,3,0,0,0,1.13,2.48,3.09,3.09,0,0,0,2.9.41,2.95,2.95,0,0,0,4.8,1.65,3,3,0,0,0,5.1,0,2.95,2.95,0,0,0,4.8-1.65,3.08,3.08,0,0,0,2.9-.41A3,3,0,0,0,319.34,13c0-.07,0-.15,0-.22a3.08,3.08,0,0,0,2.61-1.33,2.86,2.86,0,0,0,.46-1.58,3.59,3.59,0,0,0-.29-1.33l.09,0a4.32,4.32,0,0,0,.11.7,4.83,4.83,0,0,0,3.21,3.29,5.6,5.6,0,0,0-.45,2.09,4.49,4.49,0,0,0,.73,2.48,4.82,4.82,0,0,0,4.09,2.08c0,.12,0,.23,0,.34a4.75,4.75,0,0,0,1.77,3.88,4.83,4.83,0,0,0,4.54.64,4.62,4.62,0,0,0,7.52,2.58,4.65,4.65,0,0,0,8,0A4.62,4.62,0,0,0,359.22,24a4.83,4.83,0,0,0,4.54-.64,4.76,4.76,0,0,0,1.77-3.88c0-.11,0-.23,0-.34a4.82,4.82,0,0,0,4.09-2.08,4.49,4.49,0,0,0,.73-2.48,5.59,5.59,0,0,0-.45-2.09,4.83,4.83,0,0,0,3.21-3.29,4.35,4.35,0,0,0,.14-1.09s0,0,0-.07a3.7,3.7,0,0,0,.93.51,3.58,3.58,0,0,0-.29,1.33,2.86,2.86,0,0,0,.47,1.58A3.07,3.07,0,0,0,377,12.8c0,.07,0,.15,0,.22a3,3,0,0,0,1.13,2.48,3.09,3.09,0,0,0,2.9.41,2.95,2.95,0,0,0,4.8,1.65,3,3,0,0,0,5.09,0,2.95,2.95,0,0,0,4.8-1.65,3.08,3.08,0,0,0,2.9-.41A3,3,0,0,0,399.7,13c0-.07,0-.15,0-.22a3.08,3.08,0,0,0,2.61-1.33,2.86,2.86,0,0,0,.46-1.58,3.57,3.57,0,0,0-.29-1.33l.09,0a4.32,4.32,0,0,0,.11.7,4.84,4.84,0,0,0,3.21,3.29,5.59,5.59,0,0,0-.45,2.09,4.48,4.48,0,0,0,.73,2.48,4.81,4.81,0,0,0,4.09,2.08c0,.12,0,.23,0,.34A4.76,4.76,0,0,0,412,23.37a4.83,4.83,0,0,0,4.54.64,4.62,4.62,0,0,0,7.52,2.58,4.65,4.65,0,0,0,8,0A4.62,4.62,0,0,0,439.58,24a4.83,4.83,0,0,0,4.54-.64,4.76,4.76,0,0,0,1.77-3.88c0-.11,0-.23,0-.34A4.82,4.82,0,0,0,450,17.06a4.49,4.49,0,0,0,.73-2.48,5.59,5.59,0,0,0-.45-2.09,4.83,4.83,0,0,0,3.21-3.29,4.37,4.37,0,0,0,.14-1.09s0,0,0-.07a3.7,3.7,0,0,0,.93.51,3.56,3.56,0,0,0-.29,1.33,2.86,2.86,0,0,0,.47,1.58,3.08,3.08,0,0,0,2.61,1.33c0,.07,0,.15,0,.22a3,3,0,0,0,1.13,2.48,3.09,3.09,0,0,0,2.9.41,2.95,2.95,0,0,0,4.8,1.65,3,3,0,0,0,5.09,0A2.95,2.95,0,0,0,476,15.9a3.08,3.08,0,0,0,2.9-.41A3,3,0,0,0,480.06,13c0-.07,0-.15,0-.22a3.08,3.08,0,0,0,2.61-1.33,2.86,2.86,0,0,0,.46-1.58,3.57,3.57,0,0,0-.29-1.33l.1,0a4.32,4.32,0,0,0,.11.7,4.83,4.83,0,0,0,3.21,3.29,5.6,5.6,0,0,0-.45,2.09,4.48,4.48,0,0,0,.73,2.48,4.82,4.82,0,0,0,4.09,2.08c0,.12,0,.23,0,.34a4.76,4.76,0,0,0,1.77,3.88,4.83,4.83,0,0,0,4.54.64,4.62,4.62,0,0,0,7.52,2.58,4.65,4.65,0,0,0,8,0A4.62,4.62,0,0,0,519.95,24a4.83,4.83,0,0,0,4.54-.64,4.76,4.76,0,0,0,1.77-3.88c0-.11,0-.23,0-.34a4.82,4.82,0,0,0,4.09-2.08,4.48,4.48,0,0,0,.73-2.48,5.59,5.59,0,0,0-.45-2.09,4.83,4.83,0,0,0,3.21-3.29A4.37,4.37,0,0,0,534,8.11s0,0,0-.07a3.7,3.7,0,0,0,.93.51,3.56,3.56,0,0,0-.29,1.33,2.86,2.86,0,0,0,.47,1.58,3.08,3.08,0,0,0,2.61,1.33c0,.07,0,.15,0,.22a3,3,0,0,0,1.13,2.48,3.09,3.09,0,0,0,2.9.41,2.95,2.95,0,0,0,4.8,1.65,3,3,0,0,0,5.09,0,2.95,2.95,0,0,0,4.8-1.65,3.08,3.08,0,0,0,2.9-.41A3,3,0,0,0,560.42,13c0-.07,0-.15,0-.22A3.08,3.08,0,0,0,563,11.47a2.86,2.86,0,0,0,.46-1.58,3.57,3.57,0,0,0-.29-1.33l.1,0a4.32,4.32,0,0,0,.11.7,4.83,4.83,0,0,0,3.21,3.29,5.59,5.59,0,0,0-.45,2.09,4.48,4.48,0,0,0,.73,2.48A4.81,4.81,0,0,0,571,19.15c0,.12,0,.23,0,.34a4.76,4.76,0,0,0,1.77,3.88,4.83,4.83,0,0,0,4.54.64,4.62,4.62,0,0,0,7.52,2.58,4.65,4.65,0,0,0,8,0A4.62,4.62,0,0,0,600.31,24a4.83,4.83,0,0,0,4.54-.64,4.76,4.76,0,0,0,1.77-3.88c0-.11,0-.23,0-.34a4.82,4.82,0,0,0,4.09-2.08,4.48,4.48,0,0,0,.73-2.48A5.59,5.59,0,0,0,611,12.5a4.83,4.83,0,0,0,3.21-3.29,4.37,4.37,0,0,0,.14-1.09s0,0,0-.07a3.7,3.7,0,0,0,.93.51A3.56,3.56,0,0,0,615,9.88a2.86,2.86,0,0,0,.47,1.58A3.08,3.08,0,0,0,618,12.8c0,.07,0,.15,0,.22a3,3,0,0,0,1.13,2.48,3.09,3.09,0,0,0,2.9.41,2.95,2.95,0,0,0,4.8,1.65,3,3,0,0,0,5.09,0,2.95,2.95,0,0,0,4.8-1.65,3.08,3.08,0,0,0,2.9-.41A3,3,0,0,0,640.78,13c0-.07,0-.15,0-.22a3.08,3.08,0,0,0,2.61-1.33,2.86,2.86,0,0,0,.46-1.58,3.57,3.57,0,0,0-.29-1.33l.1,0a4.32,4.32,0,0,0,.11.7A4.83,4.83,0,0,0,647,12.5a5.59,5.59,0,0,0-.45,2.09,4.48,4.48,0,0,0,.73,2.48,4.81,4.81,0,0,0,4.09,2.08c0,.12,0,.23,0,.34a4.76,4.76,0,0,0,1.77,3.88,4.83,4.83,0,0,0,4.54.64,4.62,4.62,0,0,0,7.52,2.58,4.65,4.65,0,0,0,8,0A4.62,4.62,0,0,0,680.67,24a4.83,4.83,0,0,0,4.54-.64A4.76,4.76,0,0,0,687,19.49c0-.11,0-.23,0-.34a4.82,4.82,0,0,0,4.09-2.08,4.48,4.48,0,0,0,.73-2.48,5.59,5.59,0,0,0-.45-2.09,4.83,4.83,0,0,0,3.21-3.29,4.37,4.37,0,0,0,.14-1.09s0,0,0-.07a3.7,3.7,0,0,0,.93.51,3.56,3.56,0,0,0-.29,1.33,2.86,2.86,0,0,0,.47,1.58,3.08,3.08,0,0,0,2.61,1.33c0,.07,0,.15,0,.22a3,3,0,0,0,1.13,2.48,3.09,3.09,0,0,0,2.9.41,2.95,2.95,0,0,0,4.8,1.65,3,3,0,0,0,5.09,0,2.95,2.95,0,0,0,4.8-1.65,3.08,3.08,0,0,0,2.9-.41A3,3,0,0,0,721.15,13c0-.07,0-.15,0-.22a3.08,3.08,0,0,0,2.61-1.33,2.86,2.86,0,0,0,.46-1.58,3.57,3.57,0,0,0-.29-1.33l.1,0c0,.05,0,.1,0,.16v0a4,4,0,0,0,.08.52,4.83,4.83,0,0,0,3.21,3.29,5.6,5.6,0,0,0-.45,2.09,4.48,4.48,0,0,0,.73,2.48,4.81,4.81,0,0,0,4.09,2.08c0,.12,0,.23,0,.34a4.76,4.76,0,0,0,1.77,3.88,4.46,4.46,0,0,0,2.7.93A5.75,5.75,0,0,0,738,24a4.8,4.8,0,0,0,3,3.43,4.36,4.36,0,0,0,1.7.23,5.28,5.28,0,0,0,2.8-1.07,4.81,4.81,0,0,0,4,2.26h0a4.81,4.81,0,0,0,4-2.26,5.28,5.28,0,0,0,2.8,1.07,4.35,4.35,0,0,0,1.7-.23A4.8,4.8,0,0,0,761,24a5.76,5.76,0,0,0,1.84.28,4.46,4.46,0,0,0,2.7-.92,4.76,4.76,0,0,0,1.77-3.88c0-.11,0-.23,0-.34a4.82,4.82,0,0,0,4.09-2.08,4.5,4.5,0,0,0,.73-2.48,5.59,5.59,0,0,0-.45-2.09,4.83,4.83,0,0,0,3.21-3.29,4.31,4.31,0,0,0,.14-1.09s0,0,0-.06a3.68,3.68,0,0,0,.91.5,3.56,3.56,0,0,0-.29,1.33,2.86,2.86,0,0,0,.47,1.58,3.08,3.08,0,0,0,2.61,1.33c0,.07,0,.15,0,.22a3,3,0,0,0,1.13,2.48,2.91,2.91,0,0,0,2.11.57,3.83,3.83,0,0,0,.79-.16,3.07,3.07,0,0,0,1.93,2.19,2.78,2.78,0,0,0,.73.14,3.25,3.25,0,0,0,2.14-.68A3.07,3.07,0,0,0,790.13,19h0a3.07,3.07,0,0,0,2.54-1.44,3.25,3.25,0,0,0,2.14.68,2.77,2.77,0,0,0,.73-.14,3.07,3.07,0,0,0,1.93-2.19,3.83,3.83,0,0,0,.79.16,2.91,2.91,0,0,0,2.11-.57A3,3,0,0,0,801.52,13c0-.07,0-.15,0-.22a3.08,3.08,0,0,0,2.61-1.33,2.86,2.86,0,0,0,.46-1.58,3.59,3.59,0,0,0-.29-1.33l.09,0a4.33,4.33,0,0,0,.11.7,4.83,4.83,0,0,0,3.21,3.29,5.59,5.59,0,0,0-.45,2.09,4.49,4.49,0,0,0,.73,2.48,4.82,4.82,0,0,0,4.09,2.08c0,.12,0,.23,0,.34a4.76,4.76,0,0,0,1.77,3.88,4.83,4.83,0,0,0,4.54.64,4.62,4.62,0,0,0,7.52,2.58,4.65,4.65,0,0,0,8,0A4.62,4.62,0,0,0,841.41,24a4.83,4.83,0,0,0,4.54-.64,4.76,4.76,0,0,0,1.77-3.88c0-.11,0-.23,0-.34a4.82,4.82,0,0,0,4.09-2.08,4.5,4.5,0,0,0,.73-2.48,5.59,5.59,0,0,0-.45-2.09,4.83,4.83,0,0,0,3.21-3.29,4.31,4.31,0,0,0,.14-1.09s0,0,0-.07a3.7,3.7,0,0,0,.93.51,3.58,3.58,0,0,0-.29,1.33,2.86,2.86,0,0,0,.46,1.58,3.08,3.08,0,0,0,2.61,1.33c0,.07,0,.15,0,.22a3,3,0,0,0,1.13,2.48,3.09,3.09,0,0,0,2.9.41,2.95,2.95,0,0,0,4.8,1.65,3,3,0,0,0,5.1,0,2.95,2.95,0,0,0,4.8-1.65,3.08,3.08,0,0,0,2.9-.41A3,3,0,0,0,881.88,13c0-.07,0-.15,0-.22a3.08,3.08,0,0,0,2.61-1.33,2.86,2.86,0,0,0,.46-1.58,3.59,3.59,0,0,0-.29-1.33l.09,0a4.31,4.31,0,0,0,.11.7,4.83,4.83,0,0,0,3.21,3.29,5.59,5.59,0,0,0-.45,2.09,4.49,4.49,0,0,0,.73,2.48,4.82,4.82,0,0,0,4.09,2.08c0,.12,0,.23,0,.34a4.75,4.75,0,0,0,1.77,3.88,4.83,4.83,0,0,0,4.54.64,4.62,4.62,0,0,0,7.52,2.58,4.65,4.65,0,0,0,8,0A4.62,4.62,0,0,0,921.77,24a4.83,4.83,0,0,0,4.54-.64,4.76,4.76,0,0,0,1.77-3.88c0-.11,0-.23,0-.34a4.82,4.82,0,0,0,4.09-2.08,4.5,4.5,0,0,0,.73-2.48,5.59,5.59,0,0,0-.45-2.09,4.83,4.83,0,0,0,3.21-3.29,4.3,4.3,0,0,0,.14-1.09s0,0,0-.07a3.7,3.7,0,0,0,.93.51,3.58,3.58,0,0,0-.29,1.33,2.86,2.86,0,0,0,.46,1.58,3.08,3.08,0,0,0,2.61,1.33c0,.07,0,.15,0,.22a3,3,0,0,0,1.13,2.48,3.09,3.09,0,0,0,2.9.41,2.95,2.95,0,0,0,4.8,1.65,3,3,0,0,0,5.1,0,2.95,2.95,0,0,0,4.8-1.65,3.08,3.08,0,0,0,2.9-.41A3,3,0,0,0,962.24,13c0-.07,0-.15,0-.22a3.08,3.08,0,0,0,2.61-1.33,2.86,2.86,0,0,0,.46-1.58A3.59,3.59,0,0,0,965,8.55l.09,0a4.31,4.31,0,0,0,.11.7,4.83,4.83,0,0,0,3.21,3.29,5.59,5.59,0,0,0-.45,2.09,4.49,4.49,0,0,0,.73,2.48,4.82,4.82,0,0,0,4.09,2.08c0,.12,0,.23,0,.34a4.76,4.76,0,0,0,1.77,3.88,4.83,4.83,0,0,0,4.54.64,4.62,4.62,0,0,0,7.52,2.58,4.65,4.65,0,0,0,8,0,4.62,4.62,0,0,0,7.52-2.58,4.83,4.83,0,0,0,4.54-.64,4.76,4.76,0,0,0,1.77-3.88c0-.11,0-.23,0-.34a4.82,4.82,0,0,0,4.09-2.08,4.5,4.5,0,0,0,.73-2.48,5.59,5.59,0,0,0-.45-2.09A4.83,4.83,0,0,0,1016,9.21a4.31,4.31,0,0,0,.14-1.09s0,0,0-.07a3.7,3.7,0,0,0,.93.51,3.58,3.58,0,0,0-.29,1.33,2.86,2.86,0,0,0,.46,1.58,3.08,3.08,0,0,0,2.61,1.33c0,.07,0,.15,0,.22a3,3,0,0,0,1.13,2.48,3.09,3.09,0,0,0,2.9.41,2.95,2.95,0,0,0,4.8,1.65,3,3,0,0,0,5.1,0,2.95,2.95,0,0,0,4.8-1.65,3.08,3.08,0,0,0,2.9-.41,3,3,0,0,0,1.13-2.48c0-.07,0-.15,0-.22a3.08,3.08,0,0,0,2.61-1.33,2.86,2.86,0,0,0,.46-1.58,3.59,3.59,0,0,0-.29-1.33l.09,0a4.33,4.33,0,0,0,.11.7,4.83,4.83,0,0,0,3.21,3.29,5.6,5.6,0,0,0-.45,2.09,4.49,4.49,0,0,0,.73,2.48,4.82,4.82,0,0,0,4.09,2.08c0,.12,0,.23,0,.34a4.75,4.75,0,0,0,1.77,3.88,4.83,4.83,0,0,0,4.54.64,4.62,4.62,0,0,0,7.52,2.58,4.65,4.65,0,0,0,8,0,4.62,4.62,0,0,0,7.52-2.58,4.83,4.83,0,0,0,4.54-.64,4.76,4.76,0,0,0,1.77-3.88c0-.11,0-.23,0-.34a4.82,4.82,0,0,0,4.09-2.08,4.49,4.49,0,0,0,.73-2.48,5.59,5.59,0,0,0-.45-2.09,4.83,4.83,0,0,0,3.21-3.29,4.35,4.35,0,0,0,.14-1.09s0,0,0-.07a3.7,3.7,0,0,0,.93.51,3.58,3.58,0,0,0-.29,1.33,2.86,2.86,0,0,0,.47,1.58,3.07,3.07,0,0,0,2.61,1.33c0,.07,0,.15,0,.22a3,3,0,0,0,1.13,2.48,3.09,3.09,0,0,0,2.9.41,2.95,2.95,0,0,0,4.8,1.65,3,3,0,0,0,5.09,0,2.95,2.95,0,0,0,4.8-1.65,3.08,3.08,0,0,0,2.9-.41A3,3,0,0,0,1123,13c0-.07,0-.15,0-.22a3.08,3.08,0,0,0,2.61-1.33,2.86,2.86,0,0,0,.46-1.58,3.57,3.57,0,0,0-.29-1.33l.09,0a4.31,4.31,0,0,0,.11.7,4.84,4.84,0,0,0,3.21,3.29,5.59,5.59,0,0,0-.45,2.09,4.48,4.48,0,0,0,.73,2.48,4.81,4.81,0,0,0,4.09,2.08c0,.12,0,.23,0,.34a4.76,4.76,0,0,0,1.77,3.88,4.83,4.83,0,0,0,4.54.64,4.62,4.62,0,0,0,7.52,2.58,4.65,4.65,0,0,0,8,0,4.62,4.62,0,0,0,7.52-2.58,4.83,4.83,0,0,0,4.54-.64,4.76,4.76,0,0,0,1.77-3.88c0-.11,0-.23,0-.34a4.82,4.82,0,0,0,4.09-2.08,4.49,4.49,0,0,0,.73-2.48,5.59,5.59,0,0,0-.45-2.09,4.83,4.83,0,0,0,3.21-3.29,4.37,4.37,0,0,0,.14-1.09s0,0,0-.07a3.7,3.7,0,0,0,.93.51,3.56,3.56,0,0,0-.29,1.33,2.86,2.86,0,0,0,.47,1.58,3.07,3.07,0,0,0,2.61,1.33c0,.07,0,.15,0,.22a3,3,0,0,0,1.13,2.48,3.09,3.09,0,0,0,2.9.41,2.95,2.95,0,0,0,4.8,1.65,3,3,0,0,0,5.09,0,2.95,2.95,0,0,0,4.8-1.65,3.08,3.08,0,0,0,2.9-.41,3,3,0,0,0,1.13-2.48c0-.07,0-.15,0-.22a3.08,3.08,0,0,0,2.61-1.33,2.86,2.86,0,0,0,.46-1.58,3.57,3.57,0,0,0-.29-1.33l.1,0a4.31,4.31,0,0,0,.11.7,4.83,4.83,0,0,0,3.21,3.29,5.6,5.6,0,0,0-.45,2.09,4.48,4.48,0,0,0,.73,2.48,4.81,4.81,0,0,0,4.09,2.08c0,.12,0,.23,0,.34a4.76,4.76,0,0,0,1.77,3.88,4.83,4.83,0,0,0,4.54.64,4.62,4.62,0,0,0,7.52,2.58,4.65,4.65,0,0,0,8,0,4.62,4.62,0,0,0,7.52-2.58,4.83,4.83,0,0,0,4.54-.64,4.76,4.76,0,0,0,1.77-3.88c0-.11,0-.23,0-.34a4.82,4.82,0,0,0,4.09-2.08,4.48,4.48,0,0,0,.73-2.48,5.59,5.59,0,0,0-.45-2.09,4.83,4.83,0,0,0,3.21-3.29,4.37,4.37,0,0,0,.14-1.09s0,0,0-.07a3.7,3.7,0,0,0,.93.51,3.56,3.56,0,0,0-.29,1.33,2.86,2.86,0,0,0,.47,1.58A3.07,3.07,0,0,0,1261,12.8c0,.07,0,.15,0,.22a3,3,0,0,0,1.13,2.48,3.09,3.09,0,0,0,2.9.41,2.95,2.95,0,0,0,4.8,1.65,3,3,0,0,0,5.09,0,2.95,2.95,0,0,0,4.8-1.65,3.08,3.08,0,0,0,2.9-.41,3,3,0,0,0,1.13-2.48c0-.07,0-.15,0-.22a3.08,3.08,0,0,0,2.61-1.33,2.86,2.86,0,0,0,.46-1.58,3.57,3.57,0,0,0-.29-1.33l.1,0a4.32,4.32,0,0,0,.11.7,4.83,4.83,0,0,0,3.21,3.29,5.59,5.59,0,0,0-.45,2.09,4.48,4.48,0,0,0,.73,2.48,4.81,4.81,0,0,0,4.09,2.08c0,.12,0,.23,0,.34a4.76,4.76,0,0,0,1.77,3.88,4.83,4.83,0,0,0,4.54.64,4.62,4.62,0,0,0,7.52,2.58,4.65,4.65,0,0,0,8,0,4.62,4.62,0,0,0,7.52-2.58,4.83,4.83,0,0,0,4.54-.64,4.76,4.76,0,0,0,1.77-3.88c0-.11,0-.23,0-.34a4.82,4.82,0,0,0,4.09-2.08,4.48,4.48,0,0,0,.73-2.48,5.59,5.59,0,0,0-.45-2.09,4.83,4.83,0,0,0,3.21-3.29,4.37,4.37,0,0,0,.14-1.09s0,0,0-.07a3.7,3.7,0,0,0,.93.51,3.56,3.56,0,0,0-.29,1.33,2.86,2.86,0,0,0,.47,1.58,3.08,3.08,0,0,0,2.61,1.33c0,.07,0,.15,0,.22a3,3,0,0,0,1.13,2.48,3.09,3.09,0,0,0,2.9.41,2.95,2.95,0,0,0,4.8,1.65,3,3,0,0,0,5.09,0,2.95,2.95,0,0,0,4.8-1.65,3.09,3.09,0,0,0,2.9-.41,3,3,0,0,0,1.13-2.48c0-.07,0-.15,0-.22a3.08,3.08,0,0,0,2.61-1.33,2.86,2.86,0,0,0,.46-1.58,3.57,3.57,0,0,0-.29-1.33l.1,0a4.32,4.32,0,0,0,.11.7,4.83,4.83,0,0,0,3.21,3.29,5.59,5.59,0,0,0-.45,2.09,4.48,4.48,0,0,0,.73,2.48,4.81,4.81,0,0,0,4.09,2.08c0,.12,0,.23,0,.34a4.76,4.76,0,0,0,1.77,3.88,4.83,4.83,0,0,0,4.54.64,4.62,4.62,0,0,0,7.52,2.58A4.81,4.81,0,0,0,1392.43,28.85Zm7.51-4.25c-1.3.45-3-1.2-3.89-3.68s-.48-4.85.83-5.29,3,1.2,3.89,3.68S1401.25,24.16,1399.94,24.61Zm6.7-3.61c-1.09.84-3.27-.15-4.88-2.22s-2-4.43-.93-5.28,3.27.15,4.88,2.22S1407.74,20.15,1406.65,21Zm-15.79-9.24c-1.23,1.23-2.52,1.93-2.88,1.57s.34-1.65,1.57-2.88a10.28,10.28,0,0,1,.79-.71,9.94,9.94,0,0,1-1.05.06c-1.74,0-3.15-.41-3.15-.92s1.41-.92,3.15-.92a10,10,0,0,1,1.06.06,10.27,10.27,0,0,1-.79-.71c-1.23-1.23-1.93-2.52-1.57-2.88s1.65.34,2.88,1.57a9.94,9.94,0,0,1,.71.79,10.11,10.11,0,0,1-.06-1.05c0-1.74.41-3.15.92-3.15s.92,1.41.92,3.15a10.11,10.11,0,0,1-.06,1.06A9.9,9.9,0,0,1,1394,6c1.23-1.23,2.52-1.93,2.88-1.57s-.34,1.65-1.57,2.88a10,10,0,0,1-.79.71,10,10,0,0,1,1.06-.06c1.74,0,3.15.41,3.15.92s-1.41.92-3.15.92a10,10,0,0,1-1.06-.06,10.17,10.17,0,0,1,.79.71c1.23,1.23,1.93,2.52,1.57,2.88s-1.65-.34-2.88-1.57a10.26,10.26,0,0,1-.71-.79,10.11,10.11,0,0,1,.06,1.06c0,1.74-.41,3.15-.92,3.15s-.92-1.41-.92-3.15a10.13,10.13,0,0,1,.06-1.06A10.24,10.24,0,0,1,1390.86,11.76Zm-36.35-4.51c.79.79,1.23,1.61,1,1.84s-1.05-.22-1.84-1a6.37,6.37,0,0,1-.45-.5,6.36,6.36,0,0,1,0,.67c0,1.11-.26,2-.59,2s-.59-.9-.59-2a6.36,6.36,0,0,1,0-.67,6.37,6.37,0,0,1-.45.5c-.78.78-1.61,1.23-1.84,1s.22-1.05,1-1.84a6.65,6.65,0,0,1,.5-.45,6.37,6.37,0,0,1-.67,0c-1.11,0-2-.26-2-.59s.9-.59,2-.59a6.33,6.33,0,0,1,.67,0,6.45,6.45,0,0,1-.5-.45c-.78-.78-1.23-1.61-1-1.84s1.05.22,1.84,1a6.45,6.45,0,0,1,.45.5,6.35,6.35,0,0,1,0-.67c0-1.11.26-2,.59-2s.59.9.59,2a6.35,6.35,0,0,1,0,.67,6.55,6.55,0,0,1,.45-.5c.78-.79,1.61-1.23,1.84-1s-.22,1.05-1,1.84a6.38,6.38,0,0,1-.5.45,6.36,6.36,0,0,1,.67,0c1.11,0,2,.26,2,.59s-.9.59-2,.59a6.39,6.39,0,0,1-.67,0A6.56,6.56,0,0,1,1354.51,7.25Zm-12.86-.49c-1.62.42-3.11.07-3.33-.78s.91-1.88,2.53-2.3,3.11-.07,3.33.78S1343.27,6.33,1341.65,6.75Zm19.52-2.3c.22-.85,1.71-1.2,3.33-.78s2.75,1.45,2.53,2.3-1.71,1.2-3.33.78S1360.95,5.3,1361.17,4.45Zm50.65,11c-.76,1.15-3.15.91-5.33-.53s-3.34-3.54-2.58-4.69,3.15-.91,5.33.53S1412.58,14.26,1411.82,15.41Zm3.09-7c-.35,1.34-2.68,1.88-5.22,1.23s-4.31-2.27-4-3.61,2.68-1.88,5.22-1.22S1415.26,7.12,1414.92,8.45Zm17.53-4.22c0-1.11.26-2,.59-2s.59.9.59,2a6.35,6.35,0,0,1,0,.67,6.55,6.55,0,0,1,.45-.5c.78-.79,1.61-1.23,1.84-1s-.22,1.05-1,1.84a6.39,6.39,0,0,1-.5.45,6.36,6.36,0,0,1,.67,0c1.11,0,2,.26,2,.59s-.9.59-2,.59a6.39,6.39,0,0,1-.67,0,6.54,6.54,0,0,1,.5.45c.79.79,1.23,1.61,1,1.84s-1.05-.22-1.84-1a6.37,6.37,0,0,1-.45-.5,6.36,6.36,0,0,1,0,.67c0,1.11-.26,2-.59,2s-.59-.9-.59-2a6.4,6.4,0,0,1,0-.67,6.38,6.38,0,0,1-.45.5c-.78.78-1.61,1.23-1.84,1s.22-1.05,1-1.84a6.65,6.65,0,0,1,.5-.45,6.36,6.36,0,0,1-.67,0c-1.11,0-2-.26-2-.59s.9-.59,2-.59a6.33,6.33,0,0,1,.67,0,6.45,6.45,0,0,1-.5-.45c-.78-.78-1.23-1.61-1-1.84s1.05.22,1.84,1a6.45,6.45,0,0,1,.45.5A6.38,6.38,0,0,1,1432.45,4.24Zm39.42,1.5c0-1.74.41-3.15.92-3.15s.92,1.41.92,3.15a10.11,10.11,0,0,1-.06,1.06,9.91,9.91,0,0,1,.71-.79c1.23-1.23,2.52-1.93,2.88-1.57s-.34,1.65-1.57,2.88a10,10,0,0,1-.79.71,10,10,0,0,1,1.06-.06c1.74,0,3.15.41,3.15.92s-1.41.92-3.15.92a10,10,0,0,1-1.06-.06,10.19,10.19,0,0,1,.79.71c1.23,1.23,1.93,2.52,1.57,2.88s-1.65-.34-2.88-1.57a10.28,10.28,0,0,1-.71-.79,10.11,10.11,0,0,1,.06,1.06c0,1.74-.41,3.15-.92,3.15s-.92-1.41-.92-3.15a10.1,10.1,0,0,1,.06-1.06,10.28,10.28,0,0,1-.71.79c-1.23,1.23-2.52,1.93-2.88,1.57s.34-1.65,1.57-2.88a10.29,10.29,0,0,1,.79-.71,9.94,9.94,0,0,1-1.05.06c-1.74,0-3.15-.41-3.15-.92s1.41-.92,3.15-.92a10,10,0,0,1,1.06.06,10.24,10.24,0,0,1-.79-.71c-1.23-1.23-1.93-2.52-1.57-2.88s1.65.34,2.88,1.57a9.94,9.94,0,0,1,.71.79A10.08,10.08,0,0,1,1471.87,5.74Zm-27-2.07c1.62.42,2.75,1.45,2.53,2.3s-1.71,1.2-3.33.78-2.75-1.45-2.53-2.3S1443.24,3.25,1444.86,3.67Zm-20.32.78c.22.85-.91,1.88-2.53,2.3s-3.11.07-3.33-.78.91-1.88,2.53-2.3S1424.32,3.6,1424.55,4.45Zm-3.89,6c-.48-.73.25-2.08,1.65-3s2.92-1.07,3.4-.34-.25,2.08-1.65,3S1421.14,11.15,1420.66,10.41ZM1424,14c-.7-.54-.43-2,.59-3.37s2.42-2,3.11-1.42.43,2-.59,3.37S1424.66,14.51,1424,14Zm4.28,2.3c-.83-.28-1.07-1.8-.53-3.38s1.65-2.63,2.49-2.35,1.07,1.8.53,3.38S1429.08,16.56,1428.24,16.28Zm4.79.8c-.88,0-1.59-1.36-1.59-3s.71-3,1.59-3,1.59,1.35,1.59,3S1433.92,17.08,1433,17.08Zm4.79-.8c-.83.29-1.95-.77-2.49-2.35s-.3-3.09.53-3.38,1.95.77,2.49,2.35S1438.67,16,1437.83,16.28Zm4.28-2.3c-.7.54-2.09-.1-3.11-1.42s-1.29-2.83-.59-3.37,2.09.1,3.11,1.42S1442.81,13.44,1442.11,14Zm3.3-3.56c-.48.73-2,.58-3.4-.34s-2.13-2.26-1.65-3,2-.58,3.4.34S1445.9,9.68,1445.42,10.41Zm4.89-2c-.35-1.33,1.43-2.95,4-3.6s4.87-.11,5.22,1.22-1.43,2.95-4,3.61S1450.65,9.79,1450.31,8.45Zm3.09,7c-.76-1.15.4-3.25,2.59-4.69s4.57-1.68,5.33-.53-.4,3.25-2.58,4.69S1454.16,16.56,1453.4,15.41Zm5.18,5.58c-1.09-.84-.67-3.21.93-5.28s3.78-3.07,4.88-2.22.67,3.21-.93,5.28S1459.67,21.84,1458.58,21Zm6.7,3.61c-1.3-.45-1.67-2.82-.83-5.29s2.59-4.13,3.89-3.68,1.67,2.82.83,5.29S1466.59,25.05,1465.28,24.61Zm7.51,1.25c-1.38,0-2.5-2.12-2.5-4.74s1.12-4.74,2.5-4.74,2.5,2.12,2.5,4.74S1474.17,25.85,1472.79,25.85Zm7.51-1.25c-1.3.45-3-1.2-3.89-3.68s-.48-4.85.83-5.29,3,1.2,3.89,3.68S1481.61,24.16,1480.3,24.61ZM1487,21c-1.09.84-3.27-.15-4.88-2.22s-2-4.43-.93-5.28,3.27.15,4.88,2.22S1488.1,20.15,1487,21Zm5.18-5.58c-.76,1.15-3.15.91-5.33-.53s-3.34-3.54-2.58-4.69,3.15-.91,5.33.53S1492.94,14.26,1492.19,15.41Zm3.09-7c-.35,1.34-2.68,1.88-5.22,1.23s-4.31-2.27-4-3.61,2.68-1.88,5.22-1.22S1495.62,7.12,1495.28,8.45Zm6.3-4.79c1.62-.42,3.11-.07,3.33.78s-.91,1.88-2.53,2.3-3.11.07-3.33-.78S1500,4.09,1501.58,3.67Zm-.56,6.74c-.48-.73.25-2.08,1.65-3s2.92-1.07,3.4-.34-.25,2.08-1.65,3S1501.51,11.15,1501,10.41Zm3.3,3.56c-.7-.54-.43-2,.59-3.37s2.42-2,3.11-1.42.43,2-.59,3.37S1505,14.51,1504.33,14Zm4.28,2.3c-.83-.28-1.07-1.8-.53-3.38s1.65-2.63,2.49-2.35,1.07,1.8.53,3.38S1509.44,16.56,1508.61,16.28Zm4.79.8c-.88,0-1.59-1.36-1.59-3s.71-3,1.59-3,1.59,1.35,1.59,3S1514.28,17.08,1513.4,17.08Zm4.79-.8c-.83.29-1.95-.77-2.49-2.35s-.3-3.09.53-3.38,1.95.77,2.49,2.35S1519,16,1518.2,16.28Zm4.28-2.3c-.7.54-2.09-.1-3.11-1.42s-1.29-2.83-.59-3.37,2.09.1,3.11,1.42S1523.17,13.44,1522.47,14Zm3.3-3.56c-.48.73-2,.58-3.4-.34s-2.13-2.26-1.65-3,2-.58,3.4.34S1526.26,9.68,1525.78,10.41Zm-.56-6.74c1.62.42,2.75,1.45,2.53,2.3s-1.71,1.2-3.33.78-2.75-1.45-2.53-2.3S1523.61,3.25,1525.22,3.67ZM1514,4.24a6.36,6.36,0,0,1,0,.67,6.55,6.55,0,0,1,.45-.5c.78-.79,1.61-1.23,1.84-1s-.22,1.05-1,1.84a6.4,6.4,0,0,1-.5.45,6.36,6.36,0,0,1,.67,0c1.11,0,2,.26,2,.59s-.9.59-2,.59a6.39,6.39,0,0,1-.67,0,6.59,6.59,0,0,1,.5.45c.79.79,1.23,1.61,1,1.84s-1.05-.22-1.84-1a6.37,6.37,0,0,1-.45-.5,6.38,6.38,0,0,1,0,.67c0,1.11-.26,2-.59,2s-.59-.9-.59-2a6.4,6.4,0,0,1,0-.67,6.37,6.37,0,0,1-.45.5c-.78.78-1.61,1.23-1.84,1s.22-1.05,1-1.84a6.66,6.66,0,0,1,.5-.45,6.36,6.36,0,0,1-.67,0c-1.11,0-2-.26-2-.59s.9-.59,2-.59a6.33,6.33,0,0,1,.67,0,6.46,6.46,0,0,1-.5-.45c-.78-.78-1.23-1.61-1-1.84s1.05.22,1.84,1a6.45,6.45,0,0,1,.45.5,6.38,6.38,0,0,1,0-.67c0-1.11.26-2,.59-2S1514,3.13,1514,4.24ZM1502.1,1.7a5.06,5.06,0,0,0-1,.14c-2.06.53-3.53,1.78-3.9,3.22a9.4,9.4,0,0,0-5.13-3.11,11.19,11.19,0,0,0-1.32-.25Zm-47.28,0a11.3,11.3,0,0,0-1.31.25A10,10,0,0,0,1449,4.38a5.54,5.54,0,0,0-3.64-2.55,5.06,5.06,0,0,0-1-.14Zm-33.09,0a5.06,5.06,0,0,0-1,.14c-2.06.53-3.53,1.78-3.9,3.22a9.41,9.41,0,0,0-5.13-3.11,11.18,11.18,0,0,0-1.32-.25Zm-47.28,0a11.3,11.3,0,0,0-1.31.25,10,10,0,0,0-4.54,2.44A5.55,5.55,0,0,0,1365,1.84a5.07,5.07,0,0,0-1-.14Zm-33.09,0a5.06,5.06,0,0,0-1,.14c-2.06.53-3.53,1.78-3.9,3.22a9.4,9.4,0,0,0-5.13-3.11A11.18,11.18,0,0,0,1330,1.7ZM1315.21,8c1.74,0,3.15.41,3.15.92s-1.41.92-3.15.92a10,10,0,0,1-1.06-.06,10.18,10.18,0,0,1,.79.71c1.23,1.23,1.93,2.52,1.57,2.88s-1.65-.34-2.88-1.57a10.25,10.25,0,0,1-.71-.79A10.15,10.15,0,0,1,1313,12c0,1.74-.41,3.15-.92,3.15s-.92-1.41-.92-3.15a10.13,10.13,0,0,1,.06-1.06,10.25,10.25,0,0,1-.71.79c-1.23,1.23-2.52,1.93-2.88,1.57s.34-1.65,1.57-2.88a10.27,10.27,0,0,1,.79-.71,9.94,9.94,0,0,1-1.05.06c-1.74,0-3.15-.41-3.15-.92s1.41-.92,3.15-.92A10,10,0,0,1,1310,8a10.26,10.26,0,0,1-.79-.71c-1.23-1.23-1.93-2.52-1.57-2.88s1.65.34,2.88,1.57a10,10,0,0,1,.71.79,10.11,10.11,0,0,1-.06-1.05c0-1.74.41-3.15.92-3.15S1313,4,1313,5.74a10.15,10.15,0,0,1-.06,1.06,9.88,9.88,0,0,1,.71-.79c1.23-1.23,2.52-1.93,2.88-1.57s-.34,1.65-1.57,2.88a10,10,0,0,1-.79.71A10,10,0,0,1,1315.21,8Zm-41.06-.71c.79.79,1.23,1.61,1,1.84s-1.05-.22-1.84-1a6.36,6.36,0,0,1-.45-.5,6.4,6.4,0,0,1,0,.67c0,1.11-.26,2-.59,2s-.59-.9-.59-2a6.38,6.38,0,0,1,0-.67,6.36,6.36,0,0,1-.45.5c-.78.78-1.61,1.23-1.84,1s.22-1.05,1-1.84a6.66,6.66,0,0,1,.5-.45,6.37,6.37,0,0,1-.67,0c-1.11,0-2-.26-2-.59s.9-.59,2-.59a6.33,6.33,0,0,1,.67,0,6.46,6.46,0,0,1-.5-.45c-.78-.78-1.23-1.61-1-1.84s1.05.22,1.84,1a6.44,6.44,0,0,1,.45.5,6.36,6.36,0,0,1,0-.67c0-1.11.26-2,.59-2s.59.9.59,2a6.38,6.38,0,0,1,0,.67,6.54,6.54,0,0,1,.45-.5c.78-.79,1.61-1.23,1.84-1s-.22,1.05-1,1.84a6.38,6.38,0,0,1-.5.45,6.36,6.36,0,0,1,.67,0c1.11,0,2,.26,2,.59s-.9.59-2,.59a6.39,6.39,0,0,1-.67,0A6.58,6.58,0,0,1,1274.15,7.25Zm-12.86-.49c-1.62.42-3.11.07-3.33-.78s.91-1.88,2.53-2.3,3.11-.07,3.33.78S1262.91,6.33,1261.29,6.75Zm19.52-2.3c.22-.85,1.71-1.2,3.33-.78s2.75,1.45,2.53,2.3-1.71,1.2-3.33.78S1280.59,5.3,1280.81,4.45Zm13.3-2.76a11.3,11.3,0,0,0-1.31.25,10,10,0,0,0-4.54,2.44,5.54,5.54,0,0,0-3.64-2.55,5.06,5.06,0,0,0-1-.14ZM1261,1.7a5.06,5.06,0,0,0-1,.14c-2.06.53-3.53,1.78-3.9,3.22A9.41,9.41,0,0,0,1251,1.95a11.18,11.18,0,0,0-1.32-.25ZM1234.85,8c1.74,0,3.15.41,3.15.92s-1.41.92-3.15.92a10,10,0,0,1-1.06-.06,10.2,10.2,0,0,1,.79.71c1.23,1.23,1.93,2.52,1.57,2.88s-1.65-.34-2.88-1.57a10.25,10.25,0,0,1-.71-.79,10.15,10.15,0,0,1,.06,1.06c0,1.74-.41,3.15-.92,3.15s-.92-1.41-.92-3.15a10.12,10.12,0,0,1,.06-1.06,10.29,10.29,0,0,1-.71.79c-1.23,1.23-2.52,1.93-2.88,1.57s.34-1.65,1.57-2.88a10.24,10.24,0,0,1,.79-.71,9.94,9.94,0,0,1-1.05.06c-1.74,0-3.15-.41-3.15-.92s1.41-.92,3.15-.92a10,10,0,0,1,1.06.06,10.23,10.23,0,0,1-.79-.71c-1.23-1.23-1.93-2.52-1.57-2.88s1.65.34,2.88,1.57a10,10,0,0,1,.71.79,10.1,10.1,0,0,1-.06-1.05c0-1.74.41-3.15.92-3.15s.92,1.41.92,3.15a10.15,10.15,0,0,1-.06,1.06,9.88,9.88,0,0,1,.71-.79c1.23-1.23,2.52-1.93,2.88-1.57s-.34,1.65-1.57,2.88a10,10,0,0,1-.79.71A10,10,0,0,1,1234.85,8Zm-41.06-.71c.79.79,1.23,1.61,1,1.84s-1.05-.22-1.84-1a6.37,6.37,0,0,1-.45-.5,6.4,6.4,0,0,1,0,.67c0,1.11-.26,2-.59,2s-.59-.9-.59-2a6.36,6.36,0,0,1,0-.67,6.37,6.37,0,0,1-.45.5c-.78.78-1.61,1.23-1.84,1s.22-1.05,1-1.84a6.67,6.67,0,0,1,.5-.45,6.36,6.36,0,0,1-.67,0c-1.11,0-2-.26-2-.59s.9-.59,2-.59a6.33,6.33,0,0,1,.67,0,6.47,6.47,0,0,1-.5-.45c-.78-.78-1.23-1.61-1-1.84s1.05.22,1.84,1a6.45,6.45,0,0,1,.45.5,6.35,6.35,0,0,1,0-.67c0-1.11.26-2,.59-2s.59.9.59,2a6.38,6.38,0,0,1,0,.67,6.55,6.55,0,0,1,.45-.5c.78-.79,1.61-1.23,1.84-1s-.22,1.05-1,1.84a6.35,6.35,0,0,1-.5.45,6.36,6.36,0,0,1,.67,0c1.11,0,2,.26,2,.59s-.9.59-2,.59a6.39,6.39,0,0,1-.67,0A6.54,6.54,0,0,1,1193.79,7.25Zm-12.86-.49c-1.62.42-3.11.07-3.33-.78s.91-1.88,2.53-2.3,3.11-.07,3.33.78S1182.55,6.33,1180.93,6.75Zm19.52-2.3c.22-.85,1.71-1.2,3.33-.78s2.75,1.45,2.53,2.3-1.71,1.2-3.33.78S1200.23,5.3,1200.45,4.45Zm13.3-2.76a11.3,11.3,0,0,0-1.31.25,10,10,0,0,0-4.54,2.44,5.55,5.55,0,0,0-3.64-2.55,5.07,5.07,0,0,0-1-.14Zm-33.09,0a5.06,5.06,0,0,0-1,.14c-2.06.53-3.53,1.78-3.9,3.22a9.4,9.4,0,0,0-5.13-3.11,11.18,11.18,0,0,0-1.32-.25ZM1154.49,8c1.74,0,3.15.41,3.15.92s-1.41.92-3.15.92a10,10,0,0,1-1.06-.06,10.17,10.17,0,0,1,.79.71c1.23,1.23,1.93,2.52,1.57,2.88s-1.65-.34-2.88-1.57a10.26,10.26,0,0,1-.71-.79,10.13,10.13,0,0,1,.06,1.06c0,1.74-.41,3.15-.92,3.15s-.92-1.41-.92-3.15a10.12,10.12,0,0,1,.06-1.06,10.26,10.26,0,0,1-.71.79c-1.23,1.23-2.52,1.93-2.88,1.57s.34-1.65,1.57-2.88a10.27,10.27,0,0,1,.79-.71,9.94,9.94,0,0,1-1.05.06c-1.74,0-3.15-.41-3.15-.92s1.41-.92,3.15-.92a10,10,0,0,1,1.06.06,10.27,10.27,0,0,1-.79-.71c-1.23-1.23-1.93-2.52-1.57-2.88s1.65.34,2.88,1.57a10,10,0,0,1,.71.79,10.1,10.1,0,0,1-.06-1.05c0-1.74.41-3.15.92-3.15s.92,1.41.92,3.15a10.13,10.13,0,0,1-.06,1.06,9.9,9.9,0,0,1,.71-.79c1.23-1.23,2.52-1.93,2.88-1.57s-.34,1.65-1.57,2.88a10,10,0,0,1-.79.71A10,10,0,0,1,1154.49,8Zm-41.06-.71c.79.79,1.23,1.61,1,1.84s-1.05-.22-1.84-1a6.28,6.28,0,0,1-.45-.5,6.38,6.38,0,0,1,0,.67c0,1.11-.26,2-.59,2s-.59-.9-.59-2a6.14,6.14,0,0,1,0-.67,6.48,6.48,0,0,1-.45.5c-.79.78-1.61,1.23-1.84,1s.22-1.05,1-1.84a6.66,6.66,0,0,1,.5-.45,6.37,6.37,0,0,1-.67,0c-1.11,0-2-.26-2-.59s.9-.59,2-.59a6.34,6.34,0,0,1,.67,0,6.46,6.46,0,0,1-.5-.45c-.78-.78-1.23-1.61-1-1.84s1.05.22,1.84,1a6.66,6.66,0,0,1,.45.5,6.12,6.12,0,0,1,0-.67c0-1.11.26-2,.59-2s.59.9.59,2a6.37,6.37,0,0,1,0,.67,6.45,6.45,0,0,1,.45-.5c.79-.79,1.61-1.23,1.84-1s-.22,1.05-1,1.84a6.46,6.46,0,0,1-.5.45,6.36,6.36,0,0,1,.67,0c1.11,0,2,.26,2,.59s-.9.59-2,.59a6.36,6.36,0,0,1-.67,0A6.66,6.66,0,0,1,1113.43,7.25Zm-12.86-.49c-1.62.42-3.11.07-3.33-.78s.91-1.88,2.53-2.3,3.11-.07,3.33.78S1102.19,6.33,1100.57,6.75Zm19.52-2.3c.22-.85,1.71-1.2,3.33-.78s2.75,1.45,2.53,2.3-1.71,1.2-3.33.78S1119.86,5.3,1120.08,4.45Zm13.3-2.76a11.3,11.3,0,0,0-1.31.25,10,10,0,0,0-4.54,2.44,5.54,5.54,0,0,0-3.64-2.55,5.07,5.07,0,0,0-1-.14Zm-33.09,0a5.05,5.05,0,0,0-1,.14c-2.06.53-3.53,1.78-3.9,3.22a9.4,9.4,0,0,0-5.13-3.11,11.17,11.17,0,0,0-1.32-.25ZM1074.13,8c1.74,0,3.15.41,3.15.92s-1.41.92-3.15.92a10,10,0,0,1-1.06-.06,10.18,10.18,0,0,1,.79.71c1.23,1.23,1.93,2.52,1.57,2.88s-1.65-.34-2.88-1.57a10.16,10.16,0,0,1-.71-.79,10.26,10.26,0,0,1,.06,1.06c0,1.74-.41,3.15-.92,3.15s-.92-1.41-.92-3.15a10,10,0,0,1,.06-1.06,10.38,10.38,0,0,1-.71.79c-1.23,1.23-2.52,1.93-2.88,1.57s.34-1.65,1.57-2.88a10.18,10.18,0,0,1,.79-.71,9.94,9.94,0,0,1-1.05.06c-1.74,0-3.15-.41-3.15-.92s1.41-.92,3.15-.92a10,10,0,0,1,1.05.06,10.35,10.35,0,0,1-.79-.71c-1.23-1.23-1.93-2.52-1.57-2.88s1.65.34,2.88,1.57a10,10,0,0,1,.71.79,10,10,0,0,1-.06-1.05c0-1.74.41-3.15.92-3.15s.92,1.41.92,3.15a10.26,10.26,0,0,1-.06,1.06,9.8,9.8,0,0,1,.71-.79c1.23-1.23,2.52-1.93,2.88-1.57s-.34,1.65-1.57,2.88a9.82,9.82,0,0,1-.79.71A10,10,0,0,1,1074.13,8Zm-41.06-.71c.79.79,1.23,1.61,1,1.84s-1.05-.22-1.84-1a6.48,6.48,0,0,1-.45-.5,6.11,6.11,0,0,1,0,.67c0,1.11-.26,2-.59,2s-.59-.9-.59-2a6.14,6.14,0,0,1,0-.67,6.45,6.45,0,0,1-.45.5c-.79.78-1.61,1.23-1.84,1s.22-1.05,1-1.84c.17-.17.34-.32.5-.45a6.35,6.35,0,0,1-.67,0c-1.11,0-2-.26-2-.59s.9-.59,2-.59a6.32,6.32,0,0,1,.67,0,6.64,6.64,0,0,1-.5-.45c-.78-.78-1.23-1.61-1-1.84s1.05.22,1.84,1a6.64,6.64,0,0,1,.45.5,6.12,6.12,0,0,1,0-.67c0-1.11.26-2,.59-2s.59.9.59,2a6.09,6.09,0,0,1,0,.67,6.67,6.67,0,0,1,.45-.5c.79-.79,1.61-1.23,1.84-1s-.22,1.05-1,1.84a6.3,6.3,0,0,1-.5.45,6.39,6.39,0,0,1,.68,0c1.11,0,2,.26,2,.59s-.9.59-2,.59a6.36,6.36,0,0,1-.67,0C1032.73,6.93,1032.9,7.08,1033.07,7.25Zm-12.86-.49c-1.62.42-3.11.07-3.33-.78s.91-1.88,2.53-2.3,3.11-.07,3.33.78S1021.82,6.33,1020.21,6.75Zm19.52-2.3c.22-.85,1.71-1.2,3.33-.78s2.75,1.45,2.53,2.3-1.71,1.2-3.33.78S1039.5,5.3,1039.72,4.45ZM1053,1.7a11.28,11.28,0,0,0-1.31.25,10,10,0,0,0-4.54,2.44,5.55,5.55,0,0,0-3.64-2.55,5.07,5.07,0,0,0-1-.14Zm-33.09,0a5.07,5.07,0,0,0-1,.14c-2.06.53-3.53,1.78-3.9,3.22a9.41,9.41,0,0,0-5.13-3.11,11.17,11.17,0,0,0-1.32-.25ZM993.77,8c1.74,0,3.15.41,3.15.92s-1.41.92-3.15.92a10,10,0,0,1-1.06-.06,10.17,10.17,0,0,1,.79.71c1.23,1.23,1.93,2.52,1.57,2.88s-1.65-.34-2.88-1.57a10.42,10.42,0,0,1-.71-.79,10,10,0,0,1,.06,1.06c0,1.74-.41,3.15-.92,3.15s-.92-1.41-.92-3.15a10,10,0,0,1,.06-1.06,10.37,10.37,0,0,1-.71.79c-1.23,1.23-2.52,1.93-2.88,1.57s.34-1.65,1.57-2.88a10.19,10.19,0,0,1,.79-.71,10,10,0,0,1-1.05.06c-1.74,0-3.15-.41-3.15-.92S985.74,8,987.48,8a10,10,0,0,1,1.05.06,10.54,10.54,0,0,1-.79-.71c-1.23-1.23-1.93-2.52-1.57-2.88s1.65.34,2.88,1.57a10.13,10.13,0,0,1,.7.79,10,10,0,0,1-.06-1.05c0-1.74.41-3.15.92-3.15s.92,1.41.92,3.15a10,10,0,0,1-.06,1.06,10,10,0,0,1,.71-.79c1.23-1.23,2.52-1.93,2.88-1.57s-.34,1.65-1.57,2.88a10,10,0,0,1-.79.71A10,10,0,0,1,993.77,8Zm-41.06-.71c.79.79,1.23,1.61,1,1.84s-1.05-.22-1.84-1a6.48,6.48,0,0,1-.45-.5,6.14,6.14,0,0,1,0,.67c0,1.11-.26,2-.59,2s-.59-.9-.59-2a6.14,6.14,0,0,1,0-.67,6.48,6.48,0,0,1-.45.5c-.79.78-1.61,1.23-1.84,1s.22-1.05,1-1.84c.17-.17.34-.32.5-.45a6.35,6.35,0,0,1-.67,0c-1.11,0-2-.26-2-.59s.9-.59,2-.59a6.32,6.32,0,0,1,.67,0,6.64,6.64,0,0,1-.5-.45c-.78-.78-1.23-1.61-1-1.84s1.05.22,1.84,1a6.67,6.67,0,0,1,.45.5,6.12,6.12,0,0,1,0-.67c0-1.11.26-2,.59-2s.59.9.59,2a6.12,6.12,0,0,1,0,.67,6.67,6.67,0,0,1,.45-.5c.79-.79,1.61-1.23,1.84-1s-.22,1.05-1,1.84a6.31,6.31,0,0,1-.5.45,6.39,6.39,0,0,1,.68,0c1.11,0,2,.26,2,.59s-.9.59-2,.59a6.36,6.36,0,0,1-.67,0C952.37,6.93,952.54,7.08,952.71,7.25Zm-12.86-.49c-1.62.42-3.11.07-3.33-.78s.91-1.88,2.53-2.3,3.11-.07,3.33.78S941.46,6.33,939.85,6.75Zm19.52-2.3c.22-.85,1.71-1.2,3.33-.78s2.75,1.45,2.53,2.3-1.71,1.2-3.33.78S959.14,5.3,959.36,4.45Zm13.3-2.76a11.28,11.28,0,0,0-1.31.25,10,10,0,0,0-4.54,2.44,5.55,5.55,0,0,0-3.64-2.55,5.07,5.07,0,0,0-1-.14Zm-33.09,0a5.07,5.07,0,0,0-1,.14c-2.06.53-3.53,1.78-3.9,3.22a9.41,9.41,0,0,0-5.13-3.11,11.16,11.16,0,0,0-1.32-.25ZM913.41,8c1.74,0,3.15.41,3.15.92s-1.41.92-3.15.92a10,10,0,0,1-1.06-.06,10.17,10.17,0,0,1,.79.71c1.23,1.23,1.93,2.52,1.57,2.88s-1.65-.34-2.88-1.57a10.37,10.37,0,0,1-.71-.79,10,10,0,0,1,.06,1.06c0,1.74-.41,3.15-.92,3.15s-.92-1.41-.92-3.15a10,10,0,0,1,.06-1.06,10.36,10.36,0,0,1-.71.79c-1.23,1.23-2.52,1.93-2.88,1.57s.34-1.65,1.57-2.88a10.19,10.19,0,0,1,.79-.71,10,10,0,0,1-1.05.06c-1.74,0-3.15-.41-3.15-.92S905.38,8,907.12,8a10,10,0,0,1,1.05.06,10.56,10.56,0,0,1-.79-.71c-1.23-1.23-1.93-2.52-1.57-2.88s1.65.34,2.88,1.57a10.13,10.13,0,0,1,.71.79,10,10,0,0,1-.06-1.05c0-1.74.41-3.15.92-3.15s.92,1.41.92,3.15a10,10,0,0,1-.06,1.06,10,10,0,0,1,.71-.79c1.23-1.23,2.52-1.93,2.88-1.57s-.34,1.65-1.57,2.88a10,10,0,0,1-.79.71A10,10,0,0,1,913.41,8Zm-41.06-.71c.79.79,1.23,1.61,1,1.84s-1.05-.22-1.84-1a6.45,6.45,0,0,1-.45-.5,6.14,6.14,0,0,1,0,.67c0,1.11-.26,2-.59,2s-.59-.9-.59-2a6.11,6.11,0,0,1,0-.67,6.48,6.48,0,0,1-.45.5c-.79.78-1.61,1.23-1.84,1s.22-1.05,1-1.84c.17-.17.34-.32.5-.45a6.35,6.35,0,0,1-.67,0c-1.11,0-2-.26-2-.59s.9-.59,2-.59a6.32,6.32,0,0,1,.67,0,6.64,6.64,0,0,1-.5-.45c-.78-.78-1.23-1.61-1-1.84s1.05.22,1.84,1a6.67,6.67,0,0,1,.45.5,6.09,6.09,0,0,1,0-.67c0-1.11.26-2,.59-2s.59.9.59,2a6.12,6.12,0,0,1,0,.67,6.64,6.64,0,0,1,.45-.5c.79-.79,1.61-1.23,1.84-1s-.22,1.05-1,1.84a6.3,6.3,0,0,1-.5.45,6.39,6.39,0,0,1,.68,0c1.11,0,2,.26,2,.59s-.9.59-2,.59a6.36,6.36,0,0,1-.67,0C872,6.93,872.18,7.08,872.34,7.25Zm-12.86-.49c-1.62.42-3.11.07-3.33-.78s.91-1.88,2.53-2.3,3.11-.07,3.33.78S861.1,6.33,859.48,6.75ZM879,4.45c.22-.85,1.71-1.2,3.33-.78s2.75,1.45,2.53,2.3-1.71,1.2-3.33.78S878.78,5.3,879,4.45ZM892.3,1.7a11.28,11.28,0,0,0-1.31.25,10,10,0,0,0-4.54,2.44,5.55,5.55,0,0,0-3.64-2.55,5.07,5.07,0,0,0-1-.14Zm-33.09,0a5.07,5.07,0,0,0-1,.14c-2.06.53-3.53,1.78-3.9,3.22a9.41,9.41,0,0,0-5.13-3.11,11.16,11.16,0,0,0-1.32-.25ZM833,8c1.74,0,3.15.41,3.15.92s-1.41.92-3.15.92A10,10,0,0,1,832,9.75a10.21,10.21,0,0,1,.79.71c1.23,1.23,1.93,2.52,1.57,2.88s-1.65-.34-2.88-1.57a10.37,10.37,0,0,1-.71-.79,10,10,0,0,1,.06,1.06c0,1.74-.41,3.15-.92,3.15S829,13.77,829,12A10,10,0,0,1,829,11a10.38,10.38,0,0,1-.71.79c-1.23,1.23-2.52,1.93-2.88,1.57s.34-1.65,1.57-2.88a10.16,10.16,0,0,1,.79-.71,10,10,0,0,1-1.05.06c-1.74,0-3.15-.41-3.15-.92S825,8,826.75,8a10,10,0,0,1,1.05.06,10.53,10.53,0,0,1-.79-.71c-1.23-1.23-1.93-2.52-1.57-2.88s1.65.34,2.88,1.57a10.14,10.14,0,0,1,.71.79A10,10,0,0,1,829,5.74c0-1.74.41-3.15.92-3.15s.92,1.41.92,3.15a10,10,0,0,1-.06,1.06,10,10,0,0,1,.71-.79c1.23-1.23,2.52-1.93,2.88-1.57s-.34,1.65-1.57,2.88A10,10,0,0,1,832,8,10,10,0,0,1,833,8ZM711.61,7.25c.79.79,1.23,1.61,1,1.84s-1.05-.22-1.84-1a6.37,6.37,0,0,1-.45-.5,6.36,6.36,0,0,1,0,.67c0,1.11-.26,2-.59,2s-.59-.9-.59-2a6.4,6.4,0,0,1,0-.67,6.38,6.38,0,0,1-.45.5c-.78.78-1.61,1.23-1.84,1s.22-1.05,1-1.84a6.65,6.65,0,0,1,.5-.45,6.36,6.36,0,0,1-.67,0c-1.11,0-2-.26-2-.59s.9-.59,2-.59a6.33,6.33,0,0,1,.67,0,6.45,6.45,0,0,1-.5-.45c-.78-.78-1.23-1.61-1-1.84s1.05.22,1.84,1a6.45,6.45,0,0,1,.45.5,6.38,6.38,0,0,1,0-.67c0-1.11.26-2,.59-2s.59.9.59,2a6.35,6.35,0,0,1,0,.67,6.55,6.55,0,0,1,.45-.5c.78-.79,1.61-1.23,1.84-1s-.22,1.05-1,1.84a6.39,6.39,0,0,1-.5.45,6.36,6.36,0,0,1,.67,0c1.11,0,2,.26,2,.59s-.9.59-2,.59a6.39,6.39,0,0,1-.67,0A6.54,6.54,0,0,1,711.61,7.25ZM672.31,8c1.74,0,3.15.41,3.15.92s-1.41.92-3.15.92a10,10,0,0,1-1.06-.06,10.17,10.17,0,0,1,.79.71c1.23,1.23,1.93,2.52,1.57,2.88S672,13,670.73,11.76A10.26,10.26,0,0,1,670,11a10.11,10.11,0,0,1,.06,1.06c0,1.74-.41,3.15-.92,3.15s-.92-1.41-.92-3.15A10.13,10.13,0,0,1,668.3,11a10.24,10.24,0,0,1-.71.79c-1.23,1.23-2.52,1.93-2.88,1.57s.34-1.65,1.57-2.88a10.28,10.28,0,0,1,.79-.71,9.94,9.94,0,0,1-1.05.06c-1.74,0-3.15-.41-3.15-.92S664.28,8,666,8a10,10,0,0,1,1.06.06,10.27,10.27,0,0,1-.79-.71c-1.23-1.23-1.93-2.52-1.57-2.88s1.65.34,2.88,1.57a9.94,9.94,0,0,1,.71.79,10.11,10.11,0,0,1-.06-1.05c0-1.74.41-3.15.92-3.15s.92,1.41.92,3.15A10.11,10.11,0,0,1,670,6.79a9.9,9.9,0,0,1,.71-.79c1.23-1.23,2.52-1.93,2.88-1.57s-.34,1.65-1.57,2.88a10,10,0,0,1-.79.71A10,10,0,0,1,672.31,8Zm-41.06-.71c.79.79,1.23,1.61,1,1.84s-1.05-.22-1.84-1a6.37,6.37,0,0,1-.45-.5,6.38,6.38,0,0,1,0,.67c0,1.11-.26,2-.59,2s-.59-.9-.59-2a6.35,6.35,0,0,1,0-.67,6.37,6.37,0,0,1-.45.5c-.78.78-1.61,1.23-1.84,1s.22-1.05,1-1.84a6.66,6.66,0,0,1,.5-.45,6.37,6.37,0,0,1-.67,0c-1.11,0-2-.26-2-.59s.9-.59,2-.59a6.33,6.33,0,0,1,.67,0,6.46,6.46,0,0,1-.5-.45c-.78-.78-1.23-1.61-1-1.84s1.05.22,1.84,1a6.45,6.45,0,0,1,.45.5,6.33,6.33,0,0,1,0-.67c0-1.11.26-2,.59-2s.59.9.59,2a6.36,6.36,0,0,1,0,.67,6.55,6.55,0,0,1,.45-.5c.78-.79,1.61-1.23,1.84-1s-.22,1.05-1,1.84a6.38,6.38,0,0,1-.5.45,6.36,6.36,0,0,1,.67,0c1.11,0,2,.26,2,.59s-.9.59-2,.59a6.39,6.39,0,0,1-.67,0A6.56,6.56,0,0,1,631.24,7.25ZM591.95,8c1.74,0,3.15.41,3.15.92s-1.41.92-3.15.92a10,10,0,0,1-1.06-.06,10.18,10.18,0,0,1,.79.71c1.23,1.23,1.93,2.52,1.57,2.88s-1.65-.34-2.88-1.57a10.26,10.26,0,0,1-.71-.79,10.13,10.13,0,0,1,.06,1.06c0,1.74-.41,3.15-.92,3.15s-.92-1.41-.92-3.15a10.12,10.12,0,0,1,.06-1.06,10.26,10.26,0,0,1-.71.79c-1.23,1.23-2.52,1.93-2.88,1.57s.34-1.65,1.57-2.88a10.27,10.27,0,0,1,.79-.71,9.94,9.94,0,0,1-1.05.06c-1.74,0-3.15-.41-3.15-.92S583.92,8,585.65,8a10,10,0,0,1,1.06.06,10.26,10.26,0,0,1-.79-.71c-1.23-1.23-1.93-2.52-1.57-2.88S586,4.78,587.23,6a10,10,0,0,1,.71.79,10.1,10.1,0,0,1-.06-1.05c0-1.74.41-3.15.92-3.15s.92,1.41.92,3.15a10.13,10.13,0,0,1-.06,1.06,9.9,9.9,0,0,1,.71-.79c1.23-1.23,2.52-1.93,2.88-1.57s-.34,1.65-1.57,2.88a10,10,0,0,1-.79.71A10,10,0,0,1,591.95,8Zm-41.06-.71c.79.79,1.23,1.61,1,1.84s-1.05-.22-1.84-1a6.37,6.37,0,0,1-.45-.5,6.38,6.38,0,0,1,0,.67c0,1.11-.26,2-.59,2s-.59-.9-.59-2a6.38,6.38,0,0,1,0-.67,6.37,6.37,0,0,1-.45.5c-.78.78-1.61,1.23-1.84,1s.22-1.05,1-1.84a6.66,6.66,0,0,1,.5-.45,6.36,6.36,0,0,1-.67,0c-1.11,0-2-.26-2-.59s.9-.59,2-.59a6.33,6.33,0,0,1,.67,0,6.46,6.46,0,0,1-.5-.45c-.78-.78-1.23-1.61-1-1.84s1.05.22,1.84,1a6.45,6.45,0,0,1,.45.5,6.36,6.36,0,0,1,0-.67c0-1.11.26-2,.59-2s.59.9.59,2a6.36,6.36,0,0,1,0,.67,6.55,6.55,0,0,1,.45-.5c.78-.79,1.61-1.23,1.84-1s-.22,1.05-1,1.84a6.38,6.38,0,0,1-.5.45,6.36,6.36,0,0,1,.67,0c1.11,0,2,.26,2,.59s-.9.59-2,.59a6.39,6.39,0,0,1-.67,0A6.56,6.56,0,0,1,550.88,7.25ZM511.58,8c1.74,0,3.15.41,3.15.92s-1.41.92-3.15.92a10,10,0,0,1-1.06-.06,10.18,10.18,0,0,1,.79.71c1.23,1.23,1.93,2.52,1.57,2.88S511.24,13,510,11.76a10.26,10.26,0,0,1-.71-.79,10.13,10.13,0,0,1,.06,1.06c0,1.74-.41,3.15-.92,3.15s-.92-1.41-.92-3.15a10.12,10.12,0,0,1,.06-1.06,10.29,10.29,0,0,1-.71.79c-1.23,1.23-2.52,1.93-2.88,1.57s.34-1.65,1.57-2.88a10.24,10.24,0,0,1,.79-.71,9.94,9.94,0,0,1-1.05.06c-1.74,0-3.15-.41-3.15-.92S503.55,8,505.29,8a10,10,0,0,1,1.06.06,10.23,10.23,0,0,1-.79-.71c-1.23-1.23-1.93-2.52-1.57-2.88s1.65.34,2.88,1.57a10,10,0,0,1,.71.79,10.1,10.1,0,0,1-.06-1.05c0-1.74.41-3.15.92-3.15s.92,1.41.92,3.15a10.13,10.13,0,0,1-.06,1.06A9.9,9.9,0,0,1,510,6c1.23-1.23,2.52-1.93,2.88-1.57s-.34,1.65-1.57,2.88a10,10,0,0,1-.79.71A10,10,0,0,1,511.58,8Zm-41.06-.71c.79.79,1.23,1.61,1,1.84s-1.05-.22-1.84-1a6.37,6.37,0,0,1-.45-.5,6.38,6.38,0,0,1,0,.67c0,1.11-.26,2-.59,2s-.59-.9-.59-2a6.38,6.38,0,0,1,0-.67,6.37,6.37,0,0,1-.45.5c-.78.78-1.61,1.23-1.84,1s.22-1.05,1-1.84a6.66,6.66,0,0,1,.5-.45,6.36,6.36,0,0,1-.67,0c-1.11,0-2-.26-2-.59s.9-.59,2-.59a6.33,6.33,0,0,1,.67,0,6.46,6.46,0,0,1-.5-.45c-.78-.78-1.23-1.61-1-1.84s1.05.22,1.84,1a6.45,6.45,0,0,1,.45.5,6.36,6.36,0,0,1,0-.67c0-1.11.26-2,.59-2s.59.9.59,2a6.36,6.36,0,0,1,0,.67,6.55,6.55,0,0,1,.45-.5c.78-.79,1.61-1.23,1.84-1s-.22,1.05-1,1.84a6.35,6.35,0,0,1-.5.45,6.36,6.36,0,0,1,.67,0c1.11,0,2,.26,2,.59s-.9.59-2,.59a6.39,6.39,0,0,1-.67,0A6.54,6.54,0,0,1,470.52,7.25ZM431.22,8c1.74,0,3.15.41,3.15.92s-1.41.92-3.15.92a10,10,0,0,1-1.06-.06,10.16,10.16,0,0,1,.79.71c1.23,1.23,1.93,2.52,1.57,2.88s-1.65-.34-2.88-1.57a10.26,10.26,0,0,1-.71-.79A10.13,10.13,0,0,1,429,12c0,1.74-.41,3.15-.92,3.15s-.92-1.41-.92-3.15a10.12,10.12,0,0,1,.06-1.06,10.26,10.26,0,0,1-.71.79c-1.23,1.23-2.52,1.93-2.88,1.57s.34-1.65,1.57-2.88a10.29,10.29,0,0,1,.79-.71,9.94,9.94,0,0,1-1.05.06c-1.74,0-3.15-.41-3.15-.92S423.19,8,424.93,8A10,10,0,0,1,426,8a10.28,10.28,0,0,1-.79-.71c-1.23-1.23-1.93-2.52-1.57-2.88s1.65.34,2.88,1.57a10,10,0,0,1,.71.79,10.1,10.1,0,0,1-.06-1.05c0-1.74.41-3.15.92-3.15S429,4,429,5.74a10.13,10.13,0,0,1-.06,1.06,9.9,9.9,0,0,1,.71-.79c1.23-1.23,2.52-1.93,2.88-1.57s-.34,1.65-1.57,2.88a10,10,0,0,1-.79.71A10,10,0,0,1,431.22,8Zm-41.06-.71c.79.79,1.23,1.61,1,1.84s-1.05-.22-1.84-1a6.26,6.26,0,0,1-.45-.5,6.38,6.38,0,0,1,0,.67c0,1.11-.26,2-.59,2s-.59-.9-.59-2a6.16,6.16,0,0,1,0-.67,6.48,6.48,0,0,1-.45.5c-.79.78-1.61,1.23-1.84,1s.22-1.05,1-1.84a6.66,6.66,0,0,1,.5-.45,6.37,6.37,0,0,1-.67,0c-1.11,0-2-.26-2-.59s.9-.59,2-.59a6.34,6.34,0,0,1,.67,0,6.46,6.46,0,0,1-.5-.45c-.78-.78-1.23-1.61-1-1.84s1.05.22,1.84,1a6.66,6.66,0,0,1,.45.5,6.14,6.14,0,0,1,0-.67c0-1.11.26-2,.59-2s.59.9.59,2a6.37,6.37,0,0,1,0,.67,6.44,6.44,0,0,1,.45-.5c.79-.79,1.61-1.23,1.84-1s-.22,1.05-1,1.84a6.47,6.47,0,0,1-.5.45,6.36,6.36,0,0,1,.67,0c1.11,0,2,.26,2,.59s-.9.59-2,.59a6.36,6.36,0,0,1-.67,0A6.66,6.66,0,0,1,390.16,7.25ZM350.86,8c1.74,0,3.15.41,3.15.92s-1.41.92-3.15.92a10,10,0,0,1-1.06-.06,10.18,10.18,0,0,1,.79.71c1.23,1.23,1.93,2.52,1.57,2.88s-1.65-.34-2.88-1.57a10.16,10.16,0,0,1-.71-.79,10.26,10.26,0,0,1,.06,1.06c0,1.74-.41,3.15-.92,3.15s-.92-1.41-.92-3.15a10,10,0,0,1,.06-1.06,10.37,10.37,0,0,1-.71.79c-1.23,1.23-2.52,1.93-2.88,1.57s.34-1.65,1.57-2.88a10.18,10.18,0,0,1,.79-.71,9.94,9.94,0,0,1-1.05.06c-1.74,0-3.15-.41-3.15-.92S342.83,8,344.57,8a10,10,0,0,1,1.05.06,10.35,10.35,0,0,1-.79-.71c-1.23-1.23-1.93-2.52-1.57-2.88s1.65.34,2.88,1.57a10,10,0,0,1,.71.79,10,10,0,0,1-.06-1.05c0-1.74.41-3.15.92-3.15s.92,1.41.92,3.15a10.26,10.26,0,0,1-.06,1.06,9.8,9.8,0,0,1,.71-.79c1.23-1.23,2.52-1.93,2.88-1.57s-.34,1.65-1.57,2.88a9.81,9.81,0,0,1-.79.71A10,10,0,0,1,350.86,8ZM309.8,7.25c.79.79,1.23,1.61,1,1.84s-1.05-.22-1.84-1a6.48,6.48,0,0,1-.45-.5,6.13,6.13,0,0,1,0,.67c0,1.11-.26,2-.59,2s-.59-.9-.59-2a6.12,6.12,0,0,1,0-.67,6.46,6.46,0,0,1-.45.5c-.79.78-1.61,1.23-1.84,1s.22-1.05,1-1.84c.17-.17.34-.32.5-.45a6.35,6.35,0,0,1-.67,0c-1.11,0-2-.26-2-.59s.9-.59,2-.59a6.32,6.32,0,0,1,.67,0,6.64,6.64,0,0,1-.5-.45c-.78-.78-1.23-1.61-1-1.84s1.05.22,1.84,1a6.64,6.64,0,0,1,.45.5,6.11,6.11,0,0,1,0-.67c0-1.11.26-2,.59-2s.59.9.59,2a6.11,6.11,0,0,1,0,.67,6.67,6.67,0,0,1,.45-.5c.79-.79,1.61-1.23,1.84-1s-.22,1.05-1,1.84a6.3,6.3,0,0,1-.5.45,6.39,6.39,0,0,1,.68,0c1.11,0,2,.26,2,.59s-.9.59-2,.59a6.36,6.36,0,0,1-.67,0C309.46,6.93,309.63,7.08,309.8,7.25ZM270.5,8c1.74,0,3.15.41,3.15.92s-1.41.92-3.15.92a10,10,0,0,1-1.06-.06,10.18,10.18,0,0,1,.79.71c1.23,1.23,1.93,2.52,1.57,2.88s-1.65-.34-2.88-1.57a10.41,10.41,0,0,1-.71-.79,10,10,0,0,1,.06,1.06c0,1.74-.41,3.15-.92,3.15s-.92-1.41-.92-3.15a10,10,0,0,1,.06-1.06,10.36,10.36,0,0,1-.71.79c-1.23,1.23-2.52,1.93-2.88,1.57s.34-1.65,1.57-2.88a10.18,10.18,0,0,1,.79-.71,10,10,0,0,1-1.05.06c-1.74,0-3.15-.41-3.15-.92S262.47,8,264.21,8a10,10,0,0,1,1.05.06,10.54,10.54,0,0,1-.79-.71c-1.23-1.23-1.93-2.52-1.57-2.88s1.65.34,2.88,1.57a10.11,10.11,0,0,1,.7.79,10,10,0,0,1-.06-1.05c0-1.74.41-3.15.92-3.15s.92,1.41.92,3.15a10,10,0,0,1-.06,1.06,10,10,0,0,1,.71-.79c1.23-1.23,2.52-1.93,2.88-1.57s-.34,1.65-1.57,2.88a10,10,0,0,1-.79.71A10,10,0,0,1,270.5,8Zm-41.06-.71c.79.79,1.23,1.61,1,1.84s-1.05-.22-1.84-1a6.48,6.48,0,0,1-.45-.5,6.16,6.16,0,0,1,0,.67c0,1.11-.26,2-.59,2s-.59-.9-.59-2a6.12,6.12,0,0,1,0-.67,6.48,6.48,0,0,1-.45.5c-.79.78-1.61,1.23-1.84,1s.22-1.05,1-1.84c.17-.17.34-.32.5-.45a6.35,6.35,0,0,1-.67,0c-1.11,0-2-.26-2-.59s.9-.59,2-.59a6.32,6.32,0,0,1,.67,0,6.64,6.64,0,0,1-.5-.45c-.78-.78-1.23-1.61-1-1.84s1.05.22,1.84,1a6.67,6.67,0,0,1,.45.5,6.11,6.11,0,0,1,0-.67c0-1.11.26-2,.59-2s.59.9.59,2a6.14,6.14,0,0,1,0,.67,6.67,6.67,0,0,1,.45-.5c.79-.79,1.61-1.23,1.84-1s-.22,1.05-1,1.84a6.3,6.3,0,0,1-.5.45,6.39,6.39,0,0,1,.68,0c1.11,0,2,.26,2,.59s-.9.59-2,.59a6.36,6.36,0,0,1-.67,0C229.1,6.93,229.27,7.08,229.44,7.25ZM190.14,8c1.74,0,3.15.41,3.15.92s-1.41.92-3.15.92a10,10,0,0,1-1.06-.06,10.18,10.18,0,0,1,.79.71c1.23,1.23,1.93,2.52,1.57,2.88s-1.65-.34-2.88-1.57a10.36,10.36,0,0,1-.71-.79,10,10,0,0,1,.06,1.06c0,1.74-.41,3.15-.92,3.15s-.92-1.41-.92-3.15a10,10,0,0,1,.06-1.06,10.39,10.39,0,0,1-.71.79c-1.23,1.23-2.52,1.93-2.88,1.57s.34-1.65,1.57-2.88a10.18,10.18,0,0,1,.79-.71,10,10,0,0,1-1.05.06c-1.74,0-3.15-.41-3.15-.92S182.11,8,183.85,8A10,10,0,0,1,184.9,8a10.54,10.54,0,0,1-.79-.71c-1.23-1.23-1.93-2.52-1.57-2.88s1.65.34,2.88,1.57a10.14,10.14,0,0,1,.71.79,10,10,0,0,1-.06-1.05c0-1.74.41-3.15.92-3.15s.92,1.41.92,3.15a10,10,0,0,1-.06,1.06,10,10,0,0,1,.71-.79c1.23-1.23,2.52-1.93,2.88-1.57s-.34,1.65-1.57,2.88a10,10,0,0,1-.79.71A10,10,0,0,1,190.14,8Zm-41.06-.71c.79.79,1.23,1.61,1,1.84s-1.05-.22-1.84-1a6.45,6.45,0,0,1-.45-.5,6.12,6.12,0,0,1,0,.67c0,1.11-.26,2-.59,2s-.59-.9-.59-2a6.12,6.12,0,0,1,0-.67,6.48,6.48,0,0,1-.45.5c-.79.78-1.61,1.23-1.84,1s.22-1.05,1-1.84c.17-.17.34-.32.5-.45a6.35,6.35,0,0,1-.67,0c-1.11,0-2-.26-2-.59s.9-.59,2-.59a6.32,6.32,0,0,1,.67,0,6.64,6.64,0,0,1-.5-.45c-.78-.78-1.23-1.61-1-1.84s1.05.22,1.84,1a6.67,6.67,0,0,1,.45.5,6.11,6.11,0,0,1,0-.67c0-1.11.26-2,.59-2s.59.9.59,2a6.11,6.11,0,0,1,0,.67,6.64,6.64,0,0,1,.45-.5c.79-.79,1.61-1.23,1.84-1s-.22,1.05-1,1.84a6.32,6.32,0,0,1-.5.45,6.39,6.39,0,0,1,.68,0c1.11,0,2,.26,2,.59s-.9.59-2,.59a6.36,6.36,0,0,1-.67,0C148.74,6.93,148.91,7.08,149.07,7.25ZM109.78,8c1.74,0,3.15.41,3.15.92s-1.41.92-3.15.92a10,10,0,0,1-1.06-.06,10.18,10.18,0,0,1,.79.71c1.23,1.23,1.93,2.52,1.57,2.88s-1.65-.34-2.88-1.57a10.39,10.39,0,0,1-.71-.79,10,10,0,0,1,.06,1.06c0,1.74-.41,3.15-.92,3.15s-.92-1.41-.92-3.15a10,10,0,0,1,.06-1.06,10.39,10.39,0,0,1-.71.79c-1.23,1.23-2.52,1.93-2.88,1.57s.34-1.65,1.57-2.88a10.18,10.18,0,0,1,.79-.71,10,10,0,0,1-1.05.06c-1.74,0-3.15-.41-3.15-.92S101.75,8,103.49,8a10,10,0,0,1,1.05.06,10.54,10.54,0,0,1-.79-.71c-1.23-1.23-1.93-2.52-1.57-2.88s1.65.34,2.88,1.57a10.14,10.14,0,0,1,.71.79,10,10,0,0,1-.06-1.05c0-1.74.41-3.15.92-3.15s.92,1.41.92,3.15a10,10,0,0,1-.06,1.06A10,10,0,0,1,108.2,6c1.23-1.23,2.52-1.93,2.88-1.57s-.34,1.65-1.57,2.88a10,10,0,0,1-.79.71A10,10,0,0,1,109.78,8ZM68.71,7.25c.79.79,1.23,1.61,1,1.84s-1.05-.22-1.84-1a6.48,6.48,0,0,1-.45-.5,6.12,6.12,0,0,1,0,.67c0,1.11-.26,2-.59,2s-.59-.9-.59-2a6.12,6.12,0,0,1,0-.67,6.48,6.48,0,0,1-.45.5c-.79.78-1.61,1.23-1.84,1S64.26,8,65,7.25c.17-.17.34-.32.5-.45a6.35,6.35,0,0,1-.67,0c-1.11,0-2-.26-2-.59s.9-.59,2-.59a6.32,6.32,0,0,1,.67,0,6.62,6.62,0,0,1-.5-.45c-.78-.78-1.23-1.61-1-1.84s1.05.22,1.84,1a6.67,6.67,0,0,1,.45.5,6.11,6.11,0,0,1,0-.67c0-1.11.26-2,.59-2s.59.9.59,2a6.11,6.11,0,0,1,0,.67,6.67,6.67,0,0,1,.45-.5c.79-.79,1.61-1.23,1.84-1s-.22,1.05-1,1.84a6.3,6.3,0,0,1-.5.45,6.39,6.39,0,0,1,.68,0c1.11,0,2,.26,2,.59s-.9.59-2,.59a6.36,6.36,0,0,1-.67,0C68.38,6.93,68.55,7.08,68.71,7.25ZM55.85,6.75c-1.62.42-3.11.07-3.33-.78s.91-1.88,2.53-2.3,3.11-.07,3.33.78S57.47,6.33,55.85,6.75ZM79.18,1.84a5.07,5.07,0,0,0-1-.14H88.67a11.28,11.28,0,0,0-1.31.25,10,10,0,0,0-4.54,2.44A5.55,5.55,0,0,0,79.18,1.84ZM75.37,4.45c.22-.85,1.71-1.2,3.33-.78S81.45,5.12,81.23,6s-1.71,1.2-3.33.78S75.15,5.3,75.37,4.45Zm50.54-2.5a11.16,11.16,0,0,0-1.32-.25h11.35a5.07,5.07,0,0,0-1,.14c-2.06.53-3.53,1.78-3.9,3.22A9.41,9.41,0,0,0,125.9,1.95Zm32.63-.25H169a11.28,11.28,0,0,0-1.31.25,10,10,0,0,0-4.54,2.44,5.55,5.55,0,0,0-3.64-2.55A5.07,5.07,0,0,0,158.53,1.7Zm-23.12,2c1.62-.42,3.11-.07,3.33.78s-.91,1.88-2.53,2.3-3.11.07-3.33-.78S133.8,4.09,135.41,3.67Zm20.32.78c.22-.85,1.71-1.2,3.33-.78s2.75,1.45,2.53,2.3-1.71,1.2-3.33.78S155.51,5.3,155.73,4.45Zm50.54-2.5A11.16,11.16,0,0,0,205,1.7H216.3a5.07,5.07,0,0,0-1,.14c-2.06.53-3.53,1.78-3.9,3.22A9.41,9.41,0,0,0,206.27,1.95ZM238.9,1.7h10.49a11.28,11.28,0,0,0-1.31.25,10,10,0,0,0-4.54,2.44,5.55,5.55,0,0,0-3.64-2.55A5.07,5.07,0,0,0,238.9,1.7Zm-23.12,2c1.62-.42,3.11-.07,3.33.78s-.91,1.88-2.53,2.3-3.11.07-3.33-.78S214.16,4.09,215.78,3.67Zm20.32.78c.22-.85,1.71-1.2,3.33-.78S242.17,5.12,242,6s-1.71,1.2-3.33.78S235.87,5.3,236.09,4.45Zm50.54-2.5a11.16,11.16,0,0,0-1.32-.25h11.35a5.07,5.07,0,0,0-1,.14c-2.06.53-3.53,1.78-3.9,3.22A9.41,9.41,0,0,0,286.63,1.95Zm32.63-.25h10.49a11.28,11.28,0,0,0-1.31.25,10,10,0,0,0-4.54,2.44,5.55,5.55,0,0,0-3.64-2.55A5.07,5.07,0,0,0,319.26,1.7Zm-23.12,2c1.62-.42,3.11-.07,3.33.78s-.91,1.88-2.53,2.3-3.11.07-3.33-.78S294.52,4.09,296.14,3.67Zm20.32.78c.22-.85,1.71-1.2,3.33-.78s2.75,1.45,2.53,2.3-1.71,1.2-3.33.78S316.23,5.3,316.45,4.45ZM367,1.95a11.17,11.17,0,0,0-1.32-.25H377a5.05,5.05,0,0,0-1,.14c-2.06.53-3.53,1.78-3.9,3.22A9.4,9.4,0,0,0,367,1.95Zm32.63-.25h10.49a11.3,11.3,0,0,0-1.31.25,10,10,0,0,0-4.54,2.44,5.54,5.54,0,0,0-3.64-2.55A5.07,5.07,0,0,0,399.62,1.7Zm-23.12,2c1.62-.42,3.11-.07,3.33.78s-.91,1.88-2.53,2.3S374.19,6.82,374,6,374.88,4.09,376.5,3.67Zm20.32.78c.22-.85,1.71-1.2,3.33-.78s2.75,1.45,2.53,2.3-1.71,1.2-3.33.78S396.59,5.3,396.82,4.45Zm50.54-2.5A11.18,11.18,0,0,0,446,1.7h11.35a5.06,5.06,0,0,0-1,.14c-2.06.53-3.53,1.78-3.9,3.22A9.4,9.4,0,0,0,447.35,1.95ZM480,1.7h10.49a11.3,11.3,0,0,0-1.31.25,10,10,0,0,0-4.54,2.44A5.55,5.55,0,0,0,481,1.84,5.07,5.07,0,0,0,480,1.7Zm-23.12,2c1.62-.42,3.11-.07,3.33.78s-.91,1.88-2.53,2.3-3.11.07-3.33-.78S455.24,4.09,456.86,3.67Zm20.32.78c.22-.85,1.71-1.2,3.33-.78S483.26,5.12,483,6s-1.71,1.2-3.33.78S477,5.3,477.18,4.45Zm50.54-2.5a11.18,11.18,0,0,0-1.32-.25h11.35a5.06,5.06,0,0,0-1,.14c-2.06.53-3.53,1.78-3.9,3.22A9.41,9.41,0,0,0,527.71,1.95Zm32.63-.25h10.49a11.3,11.3,0,0,0-1.31.25A10,10,0,0,0,565,4.38a5.54,5.54,0,0,0-3.64-2.55A5.06,5.06,0,0,0,560.34,1.7Zm-23.12,2c1.62-.42,3.11-.07,3.33.78s-.91,1.88-2.53,2.3-3.11.07-3.33-.78S535.61,4.09,537.22,3.67Zm20.32.78c.22-.85,1.71-1.2,3.33-.78s2.75,1.45,2.53,2.3-1.71,1.2-3.33.78S557.32,5.3,557.54,4.45Zm50.54-2.5a11.18,11.18,0,0,0-1.32-.25h11.35a5.06,5.06,0,0,0-1,.14c-2.06.53-3.53,1.78-3.9,3.22A9.4,9.4,0,0,0,608.08,1.95ZM640.7,1.7H651.2a11.3,11.3,0,0,0-1.31.25,10,10,0,0,0-4.54,2.44,5.55,5.55,0,0,0-3.64-2.55A5.07,5.07,0,0,0,640.7,1.7Zm-23.12,2c1.62-.42,3.11-.07,3.33.78s-.91,1.88-2.53,2.3-3.11.07-3.33-.78S616,4.09,617.58,3.67Zm20.32.78c.22-.85,1.71-1.2,3.33-.78S644,5.12,643.76,6s-1.71,1.2-3.33.78S637.68,5.3,637.9,4.45Zm50.54-2.5a11.18,11.18,0,0,0-1.32-.25h11.35a5.06,5.06,0,0,0-1,.14c-2.06.53-3.53,1.78-3.9,3.22A9.41,9.41,0,0,0,688.44,1.95Zm9.51,1.72c1.62-.42,3.11-.07,3.33.78s-.91,1.88-2.53,2.3-3.11.07-3.33-.78S696.33,4.09,697.95,3.67Zm20.32.78c.22-.85,1.71-1.2,3.33-.78s2.75,1.45,2.53,2.3-1.71,1.2-3.33.78S718,5.3,718.26,4.45Zm83.33,6.42a4.24,4.24,0,0,1-2.47-.8c-1.39-.92-2.13-2.26-1.65-3a1.16,1.16,0,0,1,.92-.46,4.24,4.24,0,0,1,2.47.79c1.4.92,2.13,2.26,1.65,3A1.16,1.16,0,0,1,801.59,10.87Zm-16.24,5.41c-.83-.28-1.07-1.8-.53-3.38.47-1.38,1.38-2.36,2.16-2.39a.88.88,0,0,1,.31,0c.83.28,1.07,1.8.53,3.38-.47,1.38-1.38,2.36-2.16,2.39A.88.88,0,0,1,785.35,16.28ZM781.07,14c-.7-.54-.43-2,.59-3.37A3.72,3.72,0,0,1,784.13,9a1,1,0,0,1,.63.19c.7.54.43,2-.59,3.37a3.72,3.72,0,0,1-2.47,1.61A1,1,0,0,1,781.07,14Zm-3.3-3.56c-.48-.73.25-2.08,1.65-3a4.24,4.24,0,0,1,2.47-.79,1.16,1.16,0,0,1,.92.46c.48.73-.25,2.08-1.65,3a4.24,4.24,0,0,1-2.47.8A1.16,1.16,0,0,1,777.77,10.41Zm-10.3,5.72a6.63,6.63,0,0,1-3.87-1.25c-2.19-1.44-3.34-3.54-2.58-4.69a1.81,1.81,0,0,1,1.44-.72,6.63,6.63,0,0,1,3.87,1.25c2.19,1.44,3.34,3.54,2.59,4.69A1.82,1.82,0,0,1,767.47,16.13ZM742,24.61c-1.3-.45-1.67-2.82-.83-5.29.74-2.16,2.17-3.69,3.38-3.75a1.38,1.38,0,0,1,.5.07c1.3.45,1.67,2.82.83,5.29-.74,2.17-2.16,3.7-3.38,3.75A1.38,1.38,0,0,1,742,24.61ZM735.32,21c-1.09-.84-.67-3.21.93-5.28a5.82,5.82,0,0,1,3.87-2.52,1.54,1.54,0,0,1,1,.3c1.09.84.67,3.21-.93,5.28a5.82,5.82,0,0,1-3.87,2.52A1.54,1.54,0,0,1,735.32,21Zm-5.18-5.58c-.76-1.15.4-3.25,2.59-4.69a6.63,6.63,0,0,1,3.87-1.25,1.81,1.81,0,0,1,1.44.72c.76,1.15-.4,3.25-2.58,4.69a6.64,6.64,0,0,1-3.87,1.25A1.82,1.82,0,0,1,730.14,15.41ZM748,6a9.94,9.94,0,0,1,.71.79v0l0,0a10,10,0,0,1-.06-1.05c0-1.73.41-3.13.91-3.15s.92,1.42.92,3.15a10.11,10.11,0,0,1-.06,1.06v0a10,10,0,0,1,.71-.79c1.07-1.07,2.18-1.74,2.69-1.66a.32.32,0,0,1,.18.09c.36.36-.34,1.65-1.57,2.88a10,10,0,0,1-.79.71h0A10,10,0,0,1,752.68,8c1.73,0,3.14.41,3.14.92s-1.4.92-3.14.92a10,10,0,0,1-1.05-.06h0a10.19,10.19,0,0,1,.79.71c1.23,1.23,1.93,2.52,1.57,2.88a.32.32,0,0,1-.18.09c-.51.08-1.62-.59-2.69-1.66a10.39,10.39,0,0,1-.71-.79v0a10.11,10.11,0,0,1,.06,1.06c0,1.73-.41,3.13-.92,3.14s-.91-1.42-.91-3.14a10,10,0,0,1,.06-1.06l0,0v0a10.28,10.28,0,0,1-.71.79c-1.07,1.07-2.18,1.74-2.69,1.66a.32.32,0,0,1-.18-.09c-.36-.36.34-1.65,1.57-2.88a10.17,10.17,0,0,1,.79-.71h0a10,10,0,0,1-1,.06c-1.73,0-3.14-.41-3.14-.92S744.65,8,746.38,8a10,10,0,0,1,1,.06h0a10.53,10.53,0,0,1-.79-.71c-1.23-1.23-1.93-2.52-1.57-2.88a.32.32,0,0,1,.18-.09C745.78,4.27,746.89,4.94,748,6Zm42.77-1.77a6.36,6.36,0,0,1,0,.67l0,0v0a6.66,6.66,0,0,1,.45-.5,3,3,0,0,1,1.71-1.06.21.21,0,0,1,.11.05c.23.23-.22,1.05-1,1.84a6.4,6.4,0,0,1-.5.45h0a6.41,6.41,0,0,1,.67,0c1.11,0,2,.26,2,.59s-.89.59-2,.59a6.37,6.37,0,0,1-.67,0h0a6.59,6.59,0,0,1,.5.45c.79.79,1.23,1.61,1,1.84a.21.21,0,0,1-.11.05,3,3,0,0,1-1.71-1.06,6.48,6.48,0,0,1-.45-.5v0l0,0a6.38,6.38,0,0,1,0,.67c0,1.1-.26,2-.58,2s-.58-.91-.58-2a6.12,6.12,0,0,1,0-.67l0,0v0a6.37,6.37,0,0,1-.45.5,3,3,0,0,1-1.71,1.06.21.21,0,0,1-.11-.05c-.23-.23.22-1.05,1-1.84.17-.17.34-.32.5-.45h0a6.38,6.38,0,0,1-.67,0c-1.1,0-2-.26-2-.59s.9-.59,2-.59a6.35,6.35,0,0,1,.67,0h0a6.63,6.63,0,0,1-.5-.45c-.78-.78-1.23-1.61-1-1.84a.21.21,0,0,1,.11-.05,3,3,0,0,1,1.71,1.06,6.45,6.45,0,0,1,.45.5v0l0,0a6.11,6.11,0,0,1,0-.67c0-1.1.26-2,.58-2S790.72,3.13,790.72,4.24ZM802,3.67c1.62.42,2.75,1.45,2.53,2.3-.16.64-1,1-2.15,1a5.46,5.46,0,0,1-1.17-.17c-1.62-.42-2.75-1.45-2.53-2.3.16-.64,1-1,2.15-1A5.45,5.45,0,0,1,802,3.67ZM775.79,6c-.22-.85.91-1.88,2.53-2.3a5.45,5.45,0,0,1,1.17-.17c1.11,0,2,.32,2.15,1,.22.85-.91,1.88-2.53,2.3a5.45,5.45,0,0,1-1.17.17C776.83,7,776,6.61,775.79,6ZM731,4.85a8.53,8.53,0,0,1,1.83-.27c1.74-.06,3.11.5,3.37,1.5.35,1.33-1.43,2.95-4,3.61a8.54,8.54,0,0,1-1.83.27c-1.74.06-3.11-.5-3.37-1.5C726.71,7.12,728.48,5.51,731,4.85Zm16,16.26c0-2.61,1.11-4.73,2.49-4.74S752,18.5,752,21.11s-1.11,4.73-2.49,4.74S747,23.73,747,21.11Zm9.49,3.56c-1.22-.06-2.64-1.59-3.38-3.75-.85-2.48-.48-4.85.83-5.29a1.38,1.38,0,0,1,.5-.07c1.22.06,2.64,1.58,3.38,3.75.85,2.48.48,4.85-.83,5.29A1.38,1.38,0,0,1,756.54,24.68Zm6.21-3.38a5.82,5.82,0,0,1-3.87-2.52c-1.6-2.07-2-4.43-.93-5.28a1.54,1.54,0,0,1,1-.3,5.82,5.82,0,0,1,3.87,2.52c1.6,2.07,2,4.43.93,5.28A1.54,1.54,0,0,1,762.75,21.29Zm4.06-11.62c-2.54-.66-4.31-2.27-4-3.61.26-1,1.63-1.56,3.37-1.5a8.53,8.53,0,0,1,1.83.27c2.53.66,4.31,2.27,4,3.6-.26,1-1.63,1.56-3.37,1.5A8.54,8.54,0,0,1,766.81,9.68ZM788.55,14c0-1.67.71-3,1.58-3s1.59,1.36,1.59,3-.71,3-1.59,3S788.55,15.72,788.55,14Zm6.06,2.28c-.78,0-1.68-1-2.16-2.39-.54-1.58-.3-3.09.53-3.38a.88.88,0,0,1,.32,0c.78,0,1.68,1,2.16,2.39.54,1.58.3,3.09-.53,3.38A.88.88,0,0,1,794.61,16.32Zm4-2.16a3.72,3.72,0,0,1-2.47-1.61c-1-1.32-1.29-2.83-.59-3.37a1,1,0,0,1,.63-.19,3.72,3.72,0,0,1,2.47,1.61c1,1.32,1.29,2.83.59,3.37A1,1,0,0,1,798.58,14.17ZM777.83,1.84c-2.05.53-3.52,1.77-3.89,3.21a9.41,9.41,0,0,0-5.12-3.1,11.16,11.16,0,0,0-1.32-.25h11.34A5.06,5.06,0,0,0,777.83,1.84Zm34.11-.14a11.28,11.28,0,0,0-1.31.25,10,10,0,0,0-4.54,2.44,3.68,3.68,0,0,0-.29-.46l0,0a4.28,4.28,0,0,0-.42-.48l-.08-.08a5.52,5.52,0,0,0-1.21-.87h0a6.86,6.86,0,0,0-.72-.33l-.06,0a7.65,7.65,0,0,0-.82-.27,5.07,5.07,0,0,0-1-.14h10.49Zm-80.38,0a11.3,11.3,0,0,0-1.31.25l-.14,0q-.55.15-1.06.34l-.32.13q-.45.18-.86.4l-.37.2q-.35.2-.68.43l-.4.29q-.27.21-.51.44l-.2.17a5.54,5.54,0,0,0-3.64-2.55,5.06,5.06,0,0,0-1-.14h10.49ZM44.23,1.7H55.58a5.07,5.07,0,0,0-1,.14c-2.06.53-3.53,1.78-3.9,3.22a9.41,9.41,0,0,0-5.13-3.11A11.16,11.16,0,0,0,44.23,1.7ZM24.7,6a10.14,10.14,0,0,1,.71.79,10,10,0,0,1-.06-1.05c0-1.74.41-3.15.92-3.15s.92,1.41.92,3.15a10,10,0,0,1-.06,1.06A10,10,0,0,1,27.84,6c1.23-1.23,2.52-1.93,2.88-1.57s-.34,1.65-1.57,2.88a10,10,0,0,1-.79.71A10,10,0,0,1,29.41,8c1.74,0,3.15.41,3.15.92s-1.41.92-3.15.92a10,10,0,0,1-1.06-.06,10.16,10.16,0,0,1,.79.71c1.23,1.23,1.93,2.52,1.57,2.88s-1.65-.34-2.88-1.57a10.39,10.39,0,0,1-.71-.79A10,10,0,0,1,27.19,12c0,1.74-.41,3.15-.92,3.15s-.92-1.41-.92-3.15A10,10,0,0,1,25.4,11a10.39,10.39,0,0,1-.71.79c-1.23,1.23-2.52,1.93-2.88,1.57s.34-1.65,1.57-2.88a10.18,10.18,0,0,1,.79-.71,10,10,0,0,1-1.05.06c-1.74,0-3.15-.41-3.15-.92S21.39,8,23.12,8A10,10,0,0,1,24.18,8a10.54,10.54,0,0,1-.79-.71c-1.23-1.23-1.93-2.52-1.57-2.88S23.47,4.78,24.7,6ZM3.78,8.45c-.35-1.33,1.43-2.95,4-3.6S12.62,4.74,13,6.07,11.53,9,9,9.68,4.13,9.79,3.78,8.45Zm3.09,7c-.76-1.15.4-3.25,2.59-4.69S14,9,14.79,10.19s-.4,3.25-2.58,4.69S7.64,16.56,6.88,15.41ZM12.05,21c-1.09-.84-.67-3.21.93-5.28s3.79-3.07,4.88-2.22.67,3.21-.93,5.28S13.14,21.84,12.05,21Zm6.7,3.61c-1.3-.45-1.67-2.82-.83-5.29s2.59-4.13,3.89-3.68,1.68,2.82.83,5.29S20.06,25.05,18.76,24.61Zm7.51,1.25c-1.38,0-2.5-2.12-2.5-4.74s1.12-4.74,2.5-4.74,2.5,2.12,2.5,4.74S27.65,25.85,26.27,25.85Zm7.51-1.25c-1.3.45-3-1.2-3.89-3.68s-.48-4.85.83-5.29,3,1.2,3.89,3.68S35.08,24.16,33.78,24.61ZM40.48,21c-1.09.84-3.27-.15-4.87-2.22s-2-4.43-.93-5.28,3.27.15,4.88,2.22S41.57,20.15,40.48,21Zm5.18-5.58c-.76,1.15-3.15.91-5.33-.53S37,11.34,37.74,10.19s3.14-.91,5.33.53S46.42,14.26,45.66,15.41Zm3.09-7c-.35,1.34-2.68,1.88-5.22,1.23s-4.31-2.27-4-3.61,2.68-1.88,5.21-1.22S49.1,7.12,48.75,8.45Zm5.74,2c-.48-.73.25-2.08,1.65-3s2.92-1.07,3.4-.34-.25,2.08-1.65,3S55,11.15,54.5,10.41ZM57.8,14c-.7-.54-.43-2,.59-3.37s2.42-2,3.11-1.42.43,2-.59,3.37S58.5,14.51,57.8,14Zm4.28,2.3c-.83-.28-1.07-1.8-.53-3.38s1.65-2.63,2.49-2.35,1.07,1.8.53,3.38S62.91,16.56,62.08,16.28Zm4.79.8c-.88,0-1.59-1.36-1.59-3s.71-3,1.59-3,1.59,1.35,1.59,3S67.76,17.08,66.88,17.08Zm4.79-.8c-.83.29-1.95-.77-2.48-2.35s-.3-3.09.53-3.38,1.95.77,2.49,2.35S72.5,16,71.67,16.28ZM75.95,14c-.7.54-2.09-.1-3.11-1.42s-1.29-2.83-.59-3.37,2.09.1,3.11,1.42S76.65,13.44,75.95,14Zm3.3-3.56c-.48.73-2,.58-3.4-.34s-2.13-2.26-1.65-3,2-.58,3.4.34S79.74,9.68,79.25,10.41Zm4.89-2c-.35-1.33,1.43-2.95,4-3.6S93,4.74,93.32,6.07,91.9,9,89.36,9.68,84.49,9.79,84.15,8.45Zm3.09,7c-.76-1.15.4-3.25,2.59-4.69S94.4,9,95.15,10.19s-.4,3.25-2.58,4.69S88,16.56,87.24,15.41ZM92.41,21c-1.09-.84-.67-3.21.93-5.28s3.79-3.07,4.88-2.22.67,3.21-.93,5.28S93.5,21.84,92.41,21Zm6.7,3.61c-1.3-.45-1.67-2.82-.83-5.29s2.59-4.13,3.89-3.68,1.68,2.82.83,5.29S100.42,25.05,99.12,24.61Zm7.51,1.25c-1.38,0-2.5-2.12-2.5-4.74s1.12-4.74,2.5-4.74,2.5,2.12,2.5,4.74S108,25.85,106.63,25.85Zm7.51-1.25c-1.3.45-3-1.2-3.89-3.68s-.48-4.85.83-5.29,3,1.2,3.89,3.68S115.45,24.16,114.14,24.61Zm6.7-3.61c-1.09.84-3.27-.15-4.87-2.22s-2-4.43-.93-5.28,3.27.15,4.88,2.22S121.94,20.15,120.84,21ZM126,15.41c-.76,1.15-3.15.91-5.33-.53s-3.34-3.54-2.58-4.69,3.14-.91,5.33.53S126.78,14.26,126,15.41Zm3.09-7c-.35,1.34-2.68,1.88-5.22,1.23s-4.31-2.27-4-3.61,2.68-1.88,5.21-1.22S129.46,7.12,129.12,8.45Zm5.74,2c-.48-.73.25-2.08,1.65-3s2.92-1.07,3.4-.34-.25,2.08-1.65,3S135.34,11.15,134.86,10.41Zm3.3,3.56c-.7-.54-.43-2,.59-3.37s2.42-2,3.11-1.42.43,2-.59,3.37S138.86,14.51,138.16,14Zm4.28,2.3c-.83-.28-1.07-1.8-.53-3.38s1.65-2.63,2.49-2.35,1.07,1.8.53,3.38S143.28,16.56,142.44,16.28Zm4.79.8c-.88,0-1.59-1.36-1.59-3s.71-3,1.59-3,1.59,1.35,1.59,3S148.12,17.08,147.24,17.08Zm4.8-.8c-.83.29-1.95-.77-2.48-2.35s-.3-3.09.53-3.38,1.95.77,2.49,2.35S152.87,16,152,16.28Zm4.28-2.3c-.7.54-2.09-.1-3.11-1.42s-1.29-2.83-.59-3.37,2.09.1,3.11,1.42S157,13.44,156.31,14Zm3.3-3.56c-.48.73-2,.58-3.4-.34s-2.13-2.26-1.65-3,2-.58,3.4.34S160.1,9.68,159.62,10.41Zm4.89-2c-.35-1.33,1.43-2.95,4-3.6s4.87-.11,5.21,1.22-1.43,2.95-4,3.61S164.85,9.79,164.51,8.45Zm3.09,7c-.76-1.15.4-3.25,2.59-4.69s4.57-1.68,5.33-.53-.4,3.25-2.58,4.69S168.36,16.56,167.6,15.41ZM172.78,21c-1.09-.84-.67-3.21.93-5.28s3.79-3.07,4.88-2.22.67,3.21-.93,5.28S173.87,21.84,172.78,21Zm6.7,3.61c-1.3-.45-1.67-2.82-.83-5.29s2.59-4.13,3.89-3.68,1.68,2.82.83,5.29S180.78,25.05,179.48,24.61ZM187,25.85c-1.38,0-2.5-2.12-2.5-4.74s1.12-4.74,2.5-4.74,2.5,2.12,2.5,4.74S188.37,25.85,187,25.85Zm7.51-1.25c-1.3.45-3-1.2-3.89-3.68s-.48-4.85.83-5.29,3,1.2,3.89,3.68S195.81,24.16,194.5,24.61Zm6.7-3.61c-1.09.84-3.27-.15-4.87-2.22s-2-4.43-.93-5.28,3.27.15,4.88,2.22S202.3,20.15,201.21,21Zm5.18-5.58c-.76,1.15-3.15.91-5.33-.53s-3.34-3.54-2.58-4.69,3.14-.91,5.33.53S207.14,14.26,206.38,15.41Zm3.09-7c-.35,1.34-2.68,1.88-5.22,1.23s-4.31-2.27-4-3.61,2.68-1.88,5.21-1.22S209.82,7.12,209.48,8.45Zm5.74,2c-.48-.73.25-2.08,1.65-3s2.92-1.07,3.4-.34-.25,2.08-1.65,3S215.71,11.15,215.22,10.41Zm3.3,3.56c-.7-.54-.43-2,.59-3.37s2.42-2,3.11-1.42.43,2-.59,3.37S219.22,14.51,218.53,14Zm4.28,2.3c-.83-.28-1.07-1.8-.53-3.38s1.65-2.63,2.49-2.35,1.07,1.8.53,3.38S223.64,16.56,222.81,16.28Zm4.79.8c-.88,0-1.59-1.36-1.59-3s.71-3,1.59-3,1.59,1.35,1.59,3S228.48,17.08,227.6,17.08Zm4.79-.8c-.83.29-1.95-.77-2.48-2.35s-.3-3.09.53-3.38,1.95.77,2.49,2.35S233.23,16,232.39,16.28Zm4.28-2.3c-.7.54-2.09-.1-3.11-1.42s-1.29-2.83-.59-3.37,2.09.1,3.11,1.42S237.37,13.44,236.67,14Zm3.3-3.56c-.48.73-2,.58-3.4-.34s-2.13-2.26-1.65-3,2-.58,3.4.34S240.46,9.68,240,10.41Zm4.89-2c-.35-1.33,1.43-2.95,4-3.6s4.87-.11,5.21,1.22-1.43,2.95-4,3.61S245.21,9.79,244.87,8.45Zm3.09,7c-.76-1.15.4-3.25,2.59-4.69s4.57-1.68,5.33-.53-.4,3.25-2.58,4.69S248.72,16.56,248,15.41ZM253.14,21c-1.09-.84-.67-3.21.93-5.28s3.79-3.07,4.87-2.22.67,3.21-.93,5.28S254.23,21.84,253.14,21Zm6.7,3.61c-1.3-.45-1.67-2.82-.83-5.29s2.59-4.13,3.89-3.68,1.68,2.82.83,5.29S261.15,25.05,259.84,24.61Zm7.51,1.25c-1.38,0-2.5-2.12-2.5-4.74s1.12-4.74,2.5-4.74,2.5,2.12,2.5,4.74S268.73,25.85,267.35,25.85Zm7.51-1.25c-1.3.45-3-1.2-3.89-3.68s-.48-4.85.83-5.29,3,1.2,3.89,3.68S276.17,24.16,274.86,24.61Zm6.7-3.61c-1.09.84-3.27-.15-4.87-2.22s-2-4.43-.93-5.28,3.27.15,4.88,2.22S282.66,20.15,281.57,21Zm5.18-5.58c-.76,1.15-3.15.91-5.33-.53s-3.34-3.54-2.58-4.69,3.14-.91,5.33.53S287.5,14.26,286.74,15.41Zm3.09-7c-.35,1.34-2.68,1.88-5.22,1.23s-4.31-2.27-4-3.61,2.68-1.88,5.21-1.22S290.18,7.12,289.84,8.45Zm5.74,2c-.48-.73.25-2.08,1.65-3s2.92-1.07,3.4-.34-.25,2.08-1.65,3S296.07,11.15,295.58,10.41Zm3.3,3.56c-.7-.54-.43-2,.59-3.37s2.42-2,3.11-1.42.43,2-.59,3.37S299.58,14.51,298.89,14Zm4.28,2.3c-.83-.28-1.07-1.8-.53-3.38s1.65-2.63,2.49-2.35,1.07,1.8.53,3.38S304,16.56,303.17,16.28Zm4.79.8c-.88,0-1.59-1.36-1.59-3s.71-3,1.59-3,1.59,1.35,1.59,3S308.84,17.08,308,17.08Zm4.79-.8c-.83.29-1.95-.77-2.48-2.35s-.3-3.09.53-3.38,1.95.77,2.49,2.35S313.59,16,312.75,16.28ZM317,14c-.7.54-2.09-.1-3.11-1.42s-1.29-2.83-.59-3.37,2.09.1,3.11,1.42S317.73,13.44,317,14Zm3.3-3.56c-.48.73-2,.58-3.4-.34s-2.13-2.26-1.65-3,2-.58,3.4.34S320.82,9.68,320.34,10.41Zm4.89-2c-.35-1.33,1.43-2.95,4-3.6s4.87-.11,5.22,1.22S333,9,330.45,9.68,325.57,9.79,325.23,8.45Zm3.09,7c-.76-1.15.4-3.25,2.59-4.69s4.57-1.68,5.33-.53-.4,3.25-2.58,4.69S329.08,16.56,328.32,15.41ZM333.5,21c-1.09-.84-.67-3.21.93-5.28s3.79-3.07,4.88-2.22.67,3.21-.93,5.28S334.59,21.84,333.5,21Zm6.7,3.61c-1.3-.45-1.67-2.82-.83-5.29s2.59-4.13,3.89-3.68,1.67,2.82.83,5.29S341.51,25.05,340.2,24.61Zm7.51,1.25c-1.38,0-2.5-2.12-2.5-4.74s1.12-4.74,2.5-4.74,2.5,2.12,2.5,4.74S349.09,25.85,347.71,25.85Zm7.51-1.25c-1.3.45-3-1.2-3.89-3.68s-.48-4.85.83-5.29,3,1.2,3.89,3.68S356.53,24.16,355.23,24.61Zm6.7-3.61c-1.09.84-3.27-.15-4.88-2.22s-2-4.43-.93-5.28,3.27.15,4.88,2.22S363,20.15,361.93,21Zm5.18-5.58c-.76,1.15-3.15.91-5.33-.53s-3.34-3.54-2.58-4.69,3.15-.91,5.33.53S367.86,14.26,367.11,15.41Zm3.09-7c-.35,1.34-2.68,1.88-5.22,1.23s-4.31-2.27-4-3.61,2.68-1.88,5.22-1.22S370.55,7.12,370.2,8.45Zm5.74,2c-.48-.73.25-2.08,1.65-3s2.92-1.07,3.4-.34-.25,2.08-1.65,3S376.43,11.15,375.94,10.41Zm3.3,3.56c-.7-.54-.43-2,.59-3.37s2.42-2,3.11-1.42.43,2-.59,3.37S379.94,14.51,379.25,14Zm4.28,2.3c-.83-.28-1.07-1.8-.53-3.38s1.65-2.63,2.49-2.35,1.07,1.8.53,3.38S384.36,16.56,383.53,16.28Zm4.79.8c-.88,0-1.59-1.36-1.59-3s.71-3,1.59-3,1.59,1.35,1.59,3S389.2,17.08,388.32,17.08Zm4.79-.8c-.83.29-1.95-.77-2.49-2.35s-.3-3.09.53-3.38,1.95.77,2.49,2.35S393.95,16,393.12,16.28ZM397.4,14c-.7.54-2.09-.1-3.11-1.42s-1.29-2.83-.59-3.37,2.09.1,3.11,1.42S398.09,13.44,397.4,14Zm3.3-3.56c-.49.73-2,.58-3.4-.34s-2.13-2.26-1.65-3,2-.58,3.4.34S401.18,9.68,400.7,10.41Zm4.89-2c-.35-1.33,1.43-2.95,4-3.6s4.87-.11,5.22,1.22-1.43,2.95-4,3.61S405.94,9.79,405.59,8.45Zm3.09,7c-.76-1.15.4-3.25,2.58-4.69s4.57-1.68,5.33-.53-.4,3.25-2.58,4.69S409.44,16.56,408.68,15.41ZM413.86,21c-1.09-.84-.67-3.21.93-5.28s3.78-3.07,4.88-2.22.67,3.21-.93,5.28S415,21.84,413.86,21Zm6.7,3.61c-1.3-.45-1.67-2.82-.83-5.29s2.59-4.13,3.89-3.68,1.67,2.82.83,5.29S421.87,25.05,420.56,24.61Zm7.51,1.25c-1.38,0-2.5-2.12-2.5-4.74s1.12-4.74,2.5-4.74,2.5,2.12,2.5,4.74S429.45,25.85,428.08,25.85Zm7.51-1.25c-1.3.45-3-1.2-3.89-3.68s-.48-4.85.83-5.29,3,1.2,3.89,3.68S436.89,24.16,435.59,24.61Zm6.7-3.61c-1.09.84-3.27-.15-4.88-2.22s-2-4.43-.93-5.28,3.27.15,4.88,2.22S443.38,20.15,442.29,21Zm5.18-5.58c-.76,1.15-3.15.91-5.33-.53s-3.34-3.54-2.58-4.69,3.15-.91,5.33.53S448.23,14.26,447.47,15.41Zm3.09-7c-.35,1.34-2.68,1.88-5.22,1.23s-4.31-2.27-4-3.61,2.68-1.88,5.22-1.22S450.91,7.12,450.56,8.45Zm5.74,2c-.48-.73.25-2.08,1.65-3s2.92-1.07,3.4-.34-.25,2.08-1.65,3S456.79,11.15,456.31,10.41Zm3.3,3.56c-.7-.54-.43-2,.59-3.37s2.42-2,3.11-1.42.43,2-.59,3.37S460.31,14.51,459.61,14Zm4.28,2.3c-.83-.28-1.07-1.8-.53-3.38s1.65-2.63,2.49-2.35,1.07,1.8.53,3.38S464.72,16.56,463.89,16.28Zm4.79.8c-.88,0-1.59-1.36-1.59-3s.71-3,1.59-3,1.59,1.35,1.59,3S469.56,17.08,468.68,17.08Zm4.79-.8c-.83.29-1.95-.77-2.49-2.35s-.3-3.09.53-3.38,1.95.77,2.49,2.35S474.31,16,473.48,16.28Zm4.28-2.3c-.7.54-2.09-.1-3.11-1.42s-1.29-2.83-.59-3.37,2.09.1,3.11,1.42S478.45,13.44,477.76,14Zm3.3-3.56c-.48.73-2,.58-3.4-.34s-2.13-2.26-1.65-3,2-.58,3.4.34S481.55,9.68,481.06,10.41Zm4.89-2c-.35-1.33,1.43-2.95,4-3.6s4.87-.11,5.22,1.22-1.43,2.95-4,3.61S486.3,9.79,486,8.45Zm3.09,7c-.76-1.15.4-3.25,2.58-4.69S496.2,9,497,10.19s-.4,3.25-2.58,4.69S489.8,16.56,489,15.41ZM494.22,21c-1.09-.84-.67-3.21.93-5.28s3.78-3.07,4.88-2.22.67,3.21-.93,5.28S495.31,21.84,494.22,21Zm6.7,3.61c-1.3-.45-1.67-2.82-.83-5.29s2.59-4.13,3.89-3.68,1.67,2.82.83,5.29S502.23,25.05,500.93,24.61Zm7.51,1.25c-1.38,0-2.5-2.12-2.5-4.74s1.12-4.74,2.5-4.74,2.5,2.12,2.5,4.74S509.82,25.85,508.44,25.85Zm7.51-1.25c-1.3.45-3-1.2-3.89-3.68s-.48-4.85.83-5.29,3,1.2,3.89,3.68S517.25,24.16,515.95,24.61Zm6.7-3.61c-1.09.84-3.27-.15-4.88-2.22s-2-4.43-.93-5.28,3.27.15,4.88,2.22S523.74,20.15,522.65,21Zm5.18-5.58c-.76,1.15-3.15.91-5.33-.53s-3.34-3.54-2.58-4.69,3.15-.91,5.33.53S528.59,14.26,527.83,15.41Zm3.09-7c-.35,1.34-2.68,1.88-5.22,1.23s-4.31-2.27-4-3.61,2.68-1.88,5.22-1.22S531.27,7.12,530.92,8.45Zm5.74,2c-.48-.73.25-2.08,1.65-3s2.92-1.07,3.4-.34-.25,2.08-1.65,3S537.15,11.15,536.67,10.41ZM540,14c-.7-.54-.43-2,.59-3.37s2.42-2,3.11-1.42.43,2-.59,3.37S540.67,14.51,540,14Zm4.28,2.3c-.83-.28-1.07-1.8-.53-3.38s1.65-2.63,2.49-2.35,1.07,1.8.53,3.38S545.08,16.56,544.25,16.28Zm4.79.8c-.88,0-1.59-1.36-1.59-3s.71-3,1.59-3,1.59,1.35,1.59,3S549.93,17.08,549,17.08Zm4.79-.8c-.83.29-1.95-.77-2.49-2.35s-.3-3.09.53-3.38,1.95.77,2.49,2.35S554.67,16,553.84,16.28Zm4.28-2.3c-.7.54-2.09-.1-3.11-1.42s-1.29-2.83-.59-3.37,2.09.1,3.11,1.42S558.82,13.44,558.12,14Zm3.3-3.56c-.48.73-2,.58-3.4-.34s-2.13-2.26-1.65-3,2-.58,3.4.34S561.91,9.68,561.42,10.41Zm4.89-2c-.35-1.33,1.43-2.95,4-3.6s4.87-.11,5.22,1.22-1.43,2.95-4,3.61S566.66,9.79,566.31,8.45Zm3.09,7c-.76-1.15.4-3.25,2.58-4.69s4.57-1.68,5.33-.53-.4,3.25-2.58,4.69S570.17,16.56,569.41,15.41ZM574.58,21c-1.09-.84-.67-3.21.93-5.28s3.78-3.07,4.88-2.22.67,3.21-.93,5.28S575.67,21.84,574.58,21Zm6.7,3.61c-1.3-.45-1.67-2.82-.83-5.29s2.59-4.13,3.89-3.68,1.67,2.82.83,5.29S582.59,25.05,581.29,24.61Zm7.51,1.25c-1.38,0-2.5-2.12-2.5-4.74s1.12-4.74,2.5-4.74,2.5,2.12,2.5,4.74S590.18,25.85,588.8,25.85Zm7.51-1.25c-1.3.45-3-1.2-3.89-3.68s-.48-4.85.83-5.29,3,1.2,3.89,3.68S597.61,24.16,596.31,24.61ZM603,21c-1.09.84-3.27-.15-4.88-2.22s-2-4.43-.93-5.28,3.27.15,4.88,2.22S604.11,20.15,603,21Zm5.18-5.58c-.76,1.15-3.15.91-5.33-.53s-3.34-3.54-2.58-4.69,3.15-.91,5.33.53S609,14.26,608.19,15.41Zm3.09-7c-.35,1.34-2.68,1.88-5.22,1.23s-4.31-2.27-4-3.61,2.68-1.88,5.22-1.22S611.63,7.12,611.28,8.45Zm5.74,2c-.48-.73.25-2.08,1.65-3s2.92-1.07,3.4-.34-.25,2.08-1.65,3S617.51,11.15,617,10.41Zm3.3,3.56c-.7-.54-.43-2,.59-3.37s2.42-2,3.11-1.42.43,2-.59,3.37S621,14.51,620.33,14Zm4.28,2.3c-.83-.28-1.07-1.8-.53-3.38s1.65-2.63,2.49-2.35,1.07,1.8.53,3.38S625.45,16.56,624.61,16.28Zm4.79.8c-.88,0-1.59-1.36-1.59-3s.71-3,1.59-3S631,12.38,631,14,630.29,17.08,629.41,17.08Zm4.79-.8c-.83.29-1.95-.77-2.49-2.35s-.3-3.09.53-3.38,1.95.77,2.49,2.35S635,16,634.2,16.28Zm4.28-2.3c-.7.54-2.09-.1-3.11-1.42s-1.29-2.83-.59-3.37,2.09.1,3.11,1.42S639.18,13.44,638.48,14Zm3.3-3.56c-.48.73-2,.58-3.4-.34s-2.13-2.26-1.65-3,2-.58,3.4.34S642.27,9.68,641.79,10.41Zm4.89-2c-.35-1.33,1.43-2.95,4-3.6s4.87-.11,5.22,1.22-1.43,2.95-4,3.61S647,9.79,646.68,8.45Zm3.09,7c-.76-1.15.4-3.25,2.58-4.69s4.57-1.68,5.33-.53-.4,3.25-2.58,4.69S650.53,16.56,649.77,15.41ZM654.95,21c-1.09-.84-.67-3.21.93-5.28s3.78-3.07,4.88-2.22.67,3.21-.93,5.28S656,21.84,654.95,21Zm6.7,3.61c-1.3-.45-1.67-2.82-.83-5.29s2.59-4.13,3.89-3.68,1.67,2.82.83,5.29S663,25.05,661.65,24.61Zm7.51,1.25c-1.38,0-2.5-2.12-2.5-4.74s1.12-4.74,2.5-4.74,2.5,2.12,2.5,4.74S670.54,25.85,669.16,25.85Zm7.51-1.25c-1.3.45-3-1.2-3.89-3.68s-.48-4.85.83-5.29,3,1.2,3.89,3.68S678,24.16,676.67,24.61Zm6.7-3.61c-1.09.84-3.27-.15-4.88-2.22s-2-4.43-.93-5.28,3.27.15,4.88,2.22S684.47,20.15,683.38,21Zm5.18-5.58c-.76,1.15-3.15.91-5.33-.53s-3.34-3.54-2.58-4.69,3.15-.91,5.33.53S689.31,14.26,688.55,15.41Zm3.09-7c-.35,1.34-2.68,1.88-5.22,1.23s-4.31-2.27-4-3.61,2.68-1.88,5.22-1.22S692,7.12,691.65,8.45Zm5.74,2c-.48-.73.25-2.08,1.65-3s2.92-1.07,3.4-.34-.25,2.08-1.65,3S697.88,11.15,697.39,10.41ZM700.7,14c-.7-.54-.43-2,.59-3.37s2.42-2,3.11-1.42.43,2-.59,3.37S701.39,14.51,700.7,14Zm4.28,2.3c-.83-.28-1.07-1.8-.53-3.38s1.65-2.63,2.49-2.35,1.07,1.8.53,3.38S705.81,16.56,705,16.28Zm4.79.8c-.88,0-1.59-1.36-1.59-3s.71-3,1.59-3,1.59,1.35,1.59,3S710.65,17.08,709.77,17.08Zm4.79-.8c-.83.29-1.95-.77-2.49-2.35s-.3-3.09.53-3.38,1.95.77,2.49,2.35S715.4,16,714.56,16.28Zm4.28-2.3c-.7.54-2.09-.1-3.11-1.42s-1.29-2.83-.59-3.37,2.09.1,3.11,1.42S719.54,13.44,718.84,14Zm3.3-3.56c-.48.73-2,.58-3.4-.34s-2.13-2.26-1.65-3,2-.58,3.4.34S722.63,9.68,722.15,10.41Zm85.27-2c-.35-1.33,1.43-2.95,4-3.6s4.87-.11,5.21,1.22-1.43,2.95-4,3.61S807.76,9.79,807.41,8.45Zm3.09,7c-.76-1.15.4-3.25,2.59-4.69s4.57-1.68,5.33-.53-.4,3.25-2.58,4.69S811.27,16.56,810.51,15.41ZM815.68,21c-1.09-.84-.67-3.21.93-5.28s3.79-3.07,4.88-2.22.67,3.21-.93,5.28S816.77,21.84,815.68,21Zm6.7,3.61c-1.3-.45-1.67-2.82-.83-5.29s2.59-4.13,3.89-3.68,1.68,2.82.83,5.29S823.69,25.05,822.39,24.61Zm7.51,1.25c-1.38,0-2.5-2.12-2.5-4.74s1.12-4.74,2.5-4.74,2.5,2.12,2.5,4.74S831.28,25.85,829.9,25.85Zm7.51-1.25c-1.3.45-3-1.2-3.89-3.68s-.48-4.85.83-5.29,3,1.2,3.89,3.68S838.72,24.16,837.41,24.61Zm6.7-3.61c-1.09.84-3.27-.15-4.87-2.22s-2-4.43-.93-5.28,3.27.15,4.88,2.22S845.21,20.15,844.11,21Zm5.18-5.58c-.76,1.15-3.15.91-5.33-.53s-3.34-3.54-2.58-4.69,3.14-.91,5.33.53S850,14.26,849.29,15.41Zm3.09-7c-.35,1.34-2.68,1.88-5.22,1.23s-4.31-2.27-4-3.61,2.68-1.88,5.21-1.22S852.73,7.12,852.39,8.45Zm5.74,2c-.48-.73.25-2.08,1.65-3s2.92-1.07,3.4-.34-.25,2.08-1.65,3S858.61,11.15,858.13,10.41Zm3.3,3.56c-.7-.54-.43-2,.59-3.37s2.42-2,3.11-1.42.43,2-.59,3.37S862.13,14.51,861.43,14Zm4.28,2.3c-.83-.28-1.07-1.8-.53-3.38s1.65-2.63,2.49-2.35,1.07,1.8.53,3.38S866.55,16.56,865.71,16.28Zm4.79.8c-.88,0-1.59-1.36-1.59-3s.71-3,1.59-3,1.59,1.35,1.59,3S871.39,17.08,870.51,17.08Zm4.8-.8c-.83.29-1.95-.77-2.48-2.35s-.3-3.09.53-3.38,1.95.77,2.49,2.35S876.14,16,875.3,16.28Zm4.28-2.3c-.7.54-2.09-.1-3.11-1.42s-1.29-2.83-.59-3.37,2.09.1,3.11,1.42S880.28,13.44,879.58,14Zm3.3-3.56c-.48.73-2,.58-3.4-.34s-2.13-2.26-1.65-3,2-.58,3.4.34S883.37,9.68,882.89,10.41Zm4.89-2c-.35-1.33,1.43-2.95,4-3.6s4.87-.11,5.21,1.22S895.53,9,893,9.68,888.12,9.79,887.78,8.45Zm3.09,7c-.76-1.15.4-3.25,2.59-4.69S898,9,898.78,10.19s-.4,3.25-2.58,4.69S891.63,16.56,890.87,15.41ZM896,21c-1.09-.84-.67-3.21.93-5.28s3.79-3.07,4.88-2.22.67,3.21-.93,5.28S897.14,21.84,896,21Zm6.7,3.61c-1.3-.45-1.67-2.82-.83-5.29s2.59-4.13,3.89-3.68,1.68,2.82.83,5.29S904.05,25.05,902.75,24.61Zm7.51,1.25c-1.38,0-2.5-2.12-2.5-4.74s1.12-4.74,2.5-4.74,2.5,2.12,2.5,4.74S911.64,25.85,910.26,25.85Zm7.51-1.25c-1.3.45-3-1.2-3.89-3.68s-.48-4.85.83-5.29,3,1.2,3.89,3.68S919.08,24.16,917.77,24.61Zm6.7-3.61c-1.09.84-3.27-.15-4.87-2.22s-2-4.43-.93-5.28,3.27.15,4.88,2.22S925.57,20.15,924.48,21Zm5.18-5.58c-.76,1.15-3.15.91-5.33-.53s-3.34-3.54-2.58-4.69,3.14-.91,5.33.53S930.41,14.26,929.65,15.41Zm3.09-7c-.35,1.34-2.68,1.88-5.22,1.23s-4.31-2.27-4-3.61,2.68-1.88,5.21-1.22S933.09,7.12,932.75,8.45Zm5.74,2c-.48-.73.25-2.08,1.65-3s2.92-1.07,3.4-.34-.25,2.08-1.65,3S939,11.15,938.49,10.41ZM941.8,14c-.7-.54-.43-2,.59-3.37s2.42-2,3.11-1.42.43,2-.59,3.37S942.49,14.51,941.8,14Zm4.28,2.3c-.83-.28-1.07-1.8-.53-3.38s1.65-2.63,2.49-2.35,1.07,1.8.53,3.38S946.91,16.56,946.07,16.28Zm4.79.8c-.88,0-1.59-1.36-1.59-3s.71-3,1.59-3,1.59,1.35,1.59,3S951.75,17.08,950.87,17.08Zm4.79-.8c-.83.29-1.95-.77-2.48-2.35s-.3-3.09.53-3.38,1.95.77,2.49,2.35S956.5,16,955.66,16.28Zm4.28-2.3c-.7.54-2.09-.1-3.11-1.42s-1.29-2.83-.59-3.37,2.09.1,3.11,1.42S960.64,13.44,959.94,14Zm3.3-3.56c-.48.73-2,.58-3.4-.34s-2.13-2.26-1.65-3,2-.58,3.4.34S963.73,9.68,963.25,10.41Zm4.89-2c-.35-1.33,1.43-2.95,4-3.6s4.87-.11,5.21,1.22-1.43,2.95-4,3.61S968.48,9.79,968.14,8.45Zm3.09,7c-.76-1.15.4-3.25,2.59-4.69s4.57-1.68,5.33-.53-.4,3.25-2.58,4.69S972,16.56,971.23,15.41ZM976.41,21c-1.09-.84-.67-3.21.93-5.28s3.79-3.07,4.88-2.22.67,3.21-.93,5.28S977.5,21.84,976.41,21Zm6.7,3.61c-1.3-.45-1.67-2.82-.83-5.29s2.59-4.13,3.89-3.68,1.68,2.82.83,5.29S984.41,25.05,983.11,24.61Zm7.51,1.25c-1.38,0-2.5-2.12-2.5-4.74s1.12-4.74,2.5-4.74,2.5,2.12,2.5,4.74S992,25.85,990.62,25.85Zm7.51-1.25c-1.3.45-3-1.2-3.89-3.68s-.48-4.85.83-5.29,3,1.2,3.89,3.68S999.44,24.16,998.13,24.61Zm6.7-3.61c-1.09.84-3.27-.15-4.87-2.22s-2-4.43-.93-5.28,3.27.15,4.88,2.22S1005.93,20.15,1004.84,21Zm5.18-5.58c-.76,1.15-3.15.91-5.33-.53s-3.34-3.54-2.58-4.69,3.14-.91,5.33.53S1010.77,14.26,1010,15.41Zm3.09-7c-.35,1.34-2.68,1.88-5.22,1.23s-4.31-2.27-4-3.61,2.68-1.88,5.21-1.22S1013.45,7.12,1013.11,8.45Zm5.74,2c-.48-.73.25-2.08,1.65-3s2.92-1.07,3.4-.34-.25,2.08-1.65,3S1019.34,11.15,1018.85,10.41Zm3.3,3.56c-.7-.54-.43-2,.59-3.37s2.42-2,3.11-1.42.43,2-.59,3.37S1022.85,14.51,1022.16,14Zm4.28,2.3c-.83-.28-1.07-1.8-.53-3.38s1.65-2.63,2.49-2.35,1.07,1.8.53,3.38S1027.27,16.56,1026.44,16.28Zm4.79.8c-.88,0-1.59-1.36-1.59-3s.71-3,1.59-3,1.59,1.35,1.59,3S1032.11,17.08,1031.23,17.08Zm4.79-.8c-.83.29-1.95-.77-2.48-2.35s-.3-3.09.53-3.38,1.95.77,2.49,2.35S1036.86,16,1036,16.28Zm4.28-2.3c-.7.54-2.09-.1-3.11-1.42s-1.29-2.83-.59-3.37,2.09.1,3.11,1.42S1041,13.44,1040.3,14Zm3.3-3.56c-.48.73-2,.58-3.4-.34s-2.13-2.26-1.65-3,2-.58,3.4.34S1044.09,9.68,1043.61,10.41Zm4.89-2c-.35-1.33,1.43-2.95,4-3.6s4.87-.11,5.22,1.22-1.43,2.95-4,3.61S1048.84,9.79,1048.5,8.45Zm3.09,7c-.76-1.15.4-3.25,2.59-4.69s4.57-1.68,5.33-.53-.4,3.25-2.58,4.69S1052.35,16.56,1051.59,15.41Zm5.18,5.58c-1.09-.84-.67-3.21.93-5.28s3.79-3.07,4.88-2.22.67,3.21-.93,5.28S1057.86,21.84,1056.77,21Zm6.7,3.61c-1.3-.45-1.67-2.82-.83-5.29s2.59-4.13,3.89-3.68,1.67,2.82.83,5.29S1064.78,25.05,1063.47,24.61Zm7.51,1.25c-1.38,0-2.5-2.12-2.5-4.74s1.12-4.74,2.5-4.74,2.5,2.12,2.5,4.74S1072.36,25.85,1071,25.85Zm7.51-1.25c-1.3.45-3-1.2-3.89-3.68s-.48-4.85.83-5.29,3,1.2,3.89,3.68S1079.8,24.16,1078.49,24.61Zm6.7-3.61c-1.09.84-3.27-.15-4.88-2.22s-2-4.43-.93-5.28,3.27.15,4.88,2.22S1086.29,20.15,1085.2,21Zm5.18-5.58c-.76,1.15-3.15.91-5.33-.53s-3.34-3.54-2.58-4.69,3.15-.91,5.33.53S1091.13,14.26,1090.38,15.41Zm3.09-7c-.35,1.34-2.68,1.88-5.22,1.23s-4.31-2.27-4-3.61,2.68-1.88,5.22-1.22S1093.81,7.12,1093.47,8.45Zm5.74,2c-.48-.73.25-2.08,1.65-3s2.92-1.07,3.4-.34-.25,2.08-1.65,3S1099.7,11.15,1099.21,10.41Zm3.3,3.56c-.7-.54-.43-2,.59-3.37s2.42-2,3.11-1.42.43,2-.59,3.37S1103.21,14.51,1102.52,14Zm4.28,2.3c-.83-.28-1.07-1.8-.53-3.38s1.65-2.63,2.49-2.35,1.07,1.8.53,3.38S1107.63,16.56,1106.8,16.28Zm4.79.8c-.88,0-1.59-1.36-1.59-3s.71-3,1.59-3,1.59,1.35,1.59,3S1112.47,17.08,1111.59,17.08Zm4.79-.8c-.83.29-1.95-.77-2.49-2.35s-.3-3.09.53-3.38,1.95.77,2.49,2.35S1117.22,16,1116.39,16.28Zm4.28-2.3c-.7.54-2.09-.1-3.11-1.42s-1.29-2.83-.59-3.37,2.09.1,3.11,1.42S1121.36,13.44,1120.67,14Zm3.3-3.56c-.49.73-2,.58-3.4-.34s-2.13-2.26-1.65-3,2-.58,3.4.34S1124.45,9.68,1124,10.41Zm4.89-2c-.35-1.33,1.43-2.95,4-3.6s4.87-.11,5.22,1.22-1.43,2.95-4,3.61S1129.21,9.79,1128.86,8.45Zm3.09,7c-.76-1.15.4-3.25,2.58-4.69s4.57-1.68,5.33-.53-.4,3.25-2.58,4.69S1132.71,16.56,1132,15.41Zm5.18,5.58c-1.09-.84-.67-3.21.93-5.28s3.78-3.07,4.88-2.22.67,3.21-.93,5.28S1138.22,21.84,1137.13,21Zm6.7,3.61c-1.3-.45-1.67-2.82-.83-5.29s2.59-4.13,3.89-3.68,1.67,2.82.83,5.29S1145.14,25.05,1143.83,24.61Zm7.51,1.25c-1.38,0-2.5-2.12-2.5-4.74s1.12-4.74,2.5-4.74,2.5,2.12,2.5,4.74S1152.72,25.85,1151.35,25.85Zm7.51-1.25c-1.3.45-3-1.2-3.89-3.68s-.48-4.85.83-5.29,3,1.2,3.89,3.68S1160.16,24.16,1158.86,24.61Zm6.7-3.61c-1.09.84-3.27-.15-4.88-2.22s-2-4.43-.93-5.28,3.27.15,4.88,2.22S1166.65,20.15,1165.56,21Zm5.18-5.58c-.76,1.15-3.15.91-5.33-.53s-3.34-3.54-2.58-4.69,3.15-.91,5.33.53S1171.5,14.26,1170.74,15.41Zm3.09-7c-.35,1.34-2.68,1.88-5.22,1.23s-4.31-2.27-4-3.61,2.68-1.88,5.22-1.22S1174.18,7.12,1173.83,8.45Zm5.74,2c-.48-.73.25-2.08,1.65-3s2.92-1.07,3.4-.34-.25,2.08-1.65,3S1180.06,11.15,1179.57,10.41Zm3.3,3.56c-.7-.54-.43-2,.59-3.37s2.42-2,3.11-1.42.43,2-.59,3.37S1183.58,14.51,1182.88,14Zm4.28,2.3c-.83-.28-1.07-1.8-.53-3.38s1.65-2.63,2.49-2.35,1.07,1.8.53,3.38S1188,16.56,1187.16,16.28Zm4.79.8c-.88,0-1.59-1.36-1.59-3s.71-3,1.59-3,1.59,1.35,1.59,3S1192.83,17.08,1192,17.08Zm4.79-.8c-.83.29-1.95-.77-2.49-2.35s-.3-3.09.53-3.38,1.95.77,2.49,2.35S1197.58,16,1196.75,16.28ZM1201,14c-.7.54-2.09-.1-3.11-1.42s-1.29-2.83-.59-3.37,2.09.1,3.11,1.42S1201.72,13.44,1201,14Zm3.3-3.56c-.48.73-2,.58-3.4-.34s-2.13-2.26-1.65-3,2-.58,3.4.34S1204.82,9.68,1204.33,10.41Zm4.89-2c-.35-1.33,1.43-2.95,4-3.6s4.87-.11,5.22,1.22-1.43,2.95-4,3.61S1209.57,9.79,1209.22,8.45Zm3.09,7c-.76-1.15.4-3.25,2.58-4.69s4.57-1.68,5.33-.53-.4,3.25-2.58,4.69S1213.07,16.56,1212.31,15.41Zm5.18,5.58c-1.09-.84-.67-3.21.93-5.28s3.78-3.07,4.88-2.22.67,3.21-.93,5.28S1218.58,21.84,1217.49,21Zm6.7,3.61c-1.3-.45-1.67-2.82-.83-5.29s2.59-4.13,3.89-3.68,1.67,2.82.83,5.29S1225.5,25.05,1224.2,24.61Zm7.51,1.25c-1.38,0-2.5-2.12-2.5-4.74s1.12-4.74,2.5-4.74,2.5,2.12,2.5,4.74S1233.09,25.85,1231.71,25.85Zm7.51-1.25c-1.3.45-3-1.2-3.89-3.68s-.48-4.85.83-5.29,3,1.2,3.89,3.68S1240.52,24.16,1239.22,24.61Zm6.7-3.61c-1.09.84-3.27-.15-4.88-2.22s-2-4.43-.93-5.28,3.27.15,4.88,2.22S1247,20.15,1245.92,21Zm5.18-5.58c-.76,1.15-3.15.91-5.33-.53s-3.34-3.54-2.58-4.69,3.15-.91,5.33.53S1251.86,14.26,1251.1,15.41Zm3.09-7c-.35,1.34-2.68,1.88-5.22,1.23s-4.31-2.27-4-3.61,2.68-1.88,5.22-1.22S1254.54,7.12,1254.19,8.45Zm5.74,2c-.48-.73.25-2.08,1.65-3s2.92-1.07,3.4-.34-.25,2.08-1.65,3S1260.42,11.15,1259.94,10.41Zm3.3,3.56c-.7-.54-.43-2,.59-3.37s2.42-2,3.11-1.42.43,2-.59,3.37S1263.94,14.51,1263.24,14Zm4.28,2.3c-.83-.28-1.07-1.8-.53-3.38s1.65-2.63,2.49-2.35,1.07,1.8.53,3.38S1268.35,16.56,1267.52,16.28Zm4.79.8c-.88,0-1.59-1.36-1.59-3s.71-3,1.59-3,1.59,1.35,1.59,3S1273.19,17.08,1272.31,17.08Zm4.79-.8c-.83.29-1.95-.77-2.49-2.35s-.3-3.09.53-3.38,1.95.77,2.49,2.35S1277.94,16,1277.11,16.28Zm4.28-2.3c-.7.54-2.09-.1-3.11-1.42s-1.29-2.83-.59-3.37,2.09.1,3.11,1.42S1282.08,13.44,1281.39,14Zm3.3-3.56c-.48.73-2,.58-3.4-.34s-2.13-2.26-1.65-3,2-.58,3.4.34S1285.18,9.68,1284.69,10.41Zm4.89-2c-.35-1.33,1.43-2.95,4-3.6s4.87-.11,5.22,1.22-1.43,2.95-4,3.61S1289.93,9.79,1289.58,8.45Zm3.09,7c-.76-1.15.4-3.25,2.58-4.69s4.57-1.68,5.33-.53-.4,3.25-2.58,4.69S1293.44,16.56,1292.68,15.41Zm5.18,5.58c-1.09-.84-.67-3.21.93-5.28s3.78-3.07,4.88-2.22.67,3.21-.93,5.28S1298.94,21.84,1297.85,21Zm6.7,3.61c-1.3-.45-1.67-2.82-.83-5.29s2.59-4.13,3.89-3.68,1.67,2.82.83,5.29S1305.86,25.05,1304.56,24.61Zm7.51,1.25c-1.38,0-2.5-2.12-2.5-4.74s1.12-4.74,2.5-4.74,2.5,2.12,2.5,4.74S1313.45,25.85,1312.07,25.85Zm7.51-1.25c-1.3.45-3-1.2-3.89-3.68s-.48-4.85.83-5.29,3,1.2,3.89,3.68S1320.88,24.16,1319.58,24.61Zm6.7-3.61c-1.09.84-3.27-.15-4.88-2.22s-2-4.43-.93-5.28,3.27.15,4.88,2.22S1327.37,20.15,1326.28,21Zm5.18-5.58c-.76,1.15-3.15.91-5.33-.53s-3.34-3.54-2.58-4.69,3.15-.91,5.33.53S1332.22,14.26,1331.46,15.41Zm3.09-7c-.35,1.34-2.68,1.88-5.22,1.23s-4.31-2.27-4-3.61,2.68-1.88,5.22-1.22S1334.9,7.12,1334.55,8.45Zm5.74,2c-.48-.73.25-2.08,1.65-3s2.92-1.07,3.4-.34-.25,2.08-1.65,3S1340.78,11.15,1340.3,10.41Zm3.3,3.56c-.7-.54-.43-2,.59-3.37s2.42-2,3.11-1.42.43,2-.59,3.37S1344.3,14.51,1343.6,14Zm4.28,2.3c-.83-.28-1.07-1.8-.53-3.38s1.65-2.63,2.49-2.35,1.07,1.8.53,3.38S1348.71,16.56,1347.88,16.28Zm4.79.8c-.88,0-1.59-1.36-1.59-3s.71-3,1.59-3,1.59,1.35,1.59,3S1353.56,17.08,1352.68,17.08Zm4.79-.8c-.83.29-1.95-.77-2.49-2.35s-.3-3.09.53-3.38,1.95.77,2.49,2.35S1358.3,16,1357.47,16.28Zm4.28-2.3c-.7.54-2.09-.1-3.11-1.42s-1.29-2.83-.59-3.37,2.09.1,3.11,1.42S1362.45,13.44,1361.75,14Zm3.3-3.56c-.48.73-2,.58-3.4-.34s-2.13-2.26-1.65-3,2-.58,3.4.34S1365.54,9.68,1365.06,10.41Zm4.89-2c-.35-1.33,1.43-2.95,4-3.6s4.87-.11,5.22,1.22-1.43,2.95-4,3.61S1370.29,9.79,1369.95,8.45Zm3.09,7c-.76-1.15.4-3.25,2.58-4.69s4.57-1.68,5.33-.53-.4,3.25-2.58,4.69S1373.8,16.56,1373,15.41Zm5.18,5.58c-1.09-.84-.67-3.21.93-5.28s3.78-3.07,4.88-2.22.67,3.21-.93,5.28S1379.31,21.84,1378.22,21Zm6.7,3.61c-1.3-.45-1.67-2.82-.83-5.29s2.59-4.13,3.89-3.68,1.67,2.82.83,5.29S1386.22,25.05,1384.92,24.61Zm5-3.49c0-2.62,1.12-4.74,2.5-4.74s2.5,2.12,2.5,4.74-1.12,4.74-2.5,4.74S1389.94,23.73,1389.94,21.11Z" transform="translate(-0.74)"/></svg>