<?xml version="1.0" encoding="iso-8859-1"?>
<!-- Generator: Adobe Illustrator 18.0.0, SVG Export Plug-In . SVG Version: 6.00 Build 0)  -->
<!DOCTYPE svg PUBLIC "-//W3C//DTD SVG 1.1//EN" "http://www.w3.org/Graphics/SVG/1.1/DTD/svg11.dtd">
<svg version="1.1" id="Layer_5" xmlns="http://www.w3.org/2000/svg" xmlns:xlink="http://www.w3.org/1999/xlink" x="0px" y="0px"
	 viewBox="0 0 408.104 408.104" style="enable-background:new 0 0 408.104 408.104; fill:#ab132d;" xml:space="preserve">
<g>
	<path d="M200.446,137.774c1.953,1.953,4.512,2.929,7.071,2.929c2.559,0,5.118-0.977,7.071-2.929l37.48-37.48
		c14.231-14.232,14.231-37.39,0-51.622c-12.062-12.06-30.528-13.9-44.542-5.524c-5.606-3.368-12.04-5.167-18.75-5.167
		c-9.75,0-18.916,3.797-25.811,10.691c-14.232,14.232-14.232,37.389,0,51.622L200.446,137.774z M177.109,62.815
		c3.117-3.117,7.261-4.833,11.669-4.833s8.552,1.717,11.668,4.833c1.875,1.875,4.419,2.929,7.071,2.929s5.195-1.054,7.071-2.929
		c6.434-6.433,16.904-6.435,23.338,0c6.435,6.434,6.435,16.903,0,23.338l-30.409,30.408l-30.408-30.408
		C170.675,79.718,170.674,69.249,177.109,62.815z"/>
	<path d="M401.201,139.552L341.591,95.93V10c0-5.523-4.478-10-10-10H76.512c-5.523,0-10,4.477-10,10v85.93L6.904,139.552
		c-2.483,1.82-4.102,4.748-4.102,8.063v250.49c0,5.523,4.477,10,10,10h382.5c5.522,0,10-4.477,10-10v-250.49
		C405.302,144.3,403.683,141.371,401.201,139.552z M66.512,174.521l-23.108-16.907h23.108V174.521z M161.616,268.885L22.802,370.451
		V167.322L161.616,268.885z M204.05,262.619l171.506,125.485H32.544L204.05,262.619z M246.484,268.885l138.818-101.566v203.134
		L246.484,268.885z M341.591,120.71l23.106,16.904h-23.106V120.71z M341.591,157.614h23.106l-23.106,16.906V157.614z M321.591,20
		v76.624v92.529l-92.042,67.342l-19.594-14.336c-3.518-2.573-8.294-2.573-11.81,0l-19.594,14.336l-92.04-67.34V20H321.591z
		 M66.512,137.614H43.407l23.105-16.904V137.614z"/>
	<path d="M120.806,171.116h166.491c5.522,0,10-4.477,10-10s-4.478-10-10-10H120.806c-5.523,0-10,4.477-10,10
		S115.283,171.116,120.806,171.116z"/>
	<path d="M270.928,191.614H137.175c-5.523,0-10,4.477-10,10s4.477,10,10,10h133.753c5.522,0,10-4.477,10-10
		S276.451,191.614,270.928,191.614z"/>
</g>
<g>
</g>
<g>
</g>
<g>
</g>
<g>
</g>
<g>
</g>
<g>
</g>
<g>
</g>
<g>
</g>
<g>
</g>
<g>
</g>
<g>
</g>
<g>
</g>
<g>
</g>
<g>
</g>
<g>
</g>
</svg>
