<?xml version="1.0" encoding="iso-8859-1"?>
<!-- Generator: Adobe Illustrator 19.0.0, SVG Export Plug-In . SVG Version: 6.00 Build 0)  -->
<svg version="1.1" id="Layer_6" xmlns="http://www.w3.org/2000/svg" xmlns:xlink="http://www.w3.org/1999/xlink" x="0px" y="0px"
	 viewBox="0 0 512 512" style="enable-background:new 0 0 512 512; fill:#ab132d;" xml:space="preserve">
<g>
	<g>
		<g>
			<path d="M278.649,157.665c1.541,0.905,3.302,1.382,5.09,1.382c1.788,0,3.543-0.478,5.084-1.382
				c5.64-3.313,55.097-33.267,55.097-64.578c0-19.411-15.793-35.203-35.204-35.203c-9.7,0-18.57,3.949-24.981,10.4
				c-6.41-6.451-15.281-10.4-24.981-10.4c-19.411,0-35.204,15.792-35.204,35.203C223.552,124.398,273.009,154.352,278.649,157.665z
				 M258.756,77.962c7.657,0,14.11,5.722,15.012,13.312c0.6,5.051,4.883,8.855,9.969,8.855c5.087,0,9.37-3.804,9.969-8.856
				c0.901-7.589,7.355-13.311,15.012-13.311c8.341,0,15.125,6.786,15.125,15.124c0,12.999-22.002,32.429-40.106,44.124
				c-18.107-11.698-40.106-31.127-40.106-44.124C243.631,84.748,250.416,77.962,258.756,77.962z"/>
			<path d="M425.222,101.446c1.541,0.905,3.302,1.382,5.09,1.382c1.788,0,3.543-0.478,5.084-1.382
				c5.64-3.313,55.097-33.267,55.097-64.578c0-19.411-15.793-35.203-35.204-35.203c-9.7,0-18.571,3.949-24.981,10.4
				c-6.41-6.451-15.281-10.4-24.981-10.4c-19.411,0-35.203,15.792-35.203,35.203C370.125,68.179,419.582,98.133,425.222,101.446z
				 M405.328,21.742c7.657,0,14.11,5.722,15.012,13.312c0.6,5.051,4.883,8.855,9.969,8.855c5.087,0,9.37-3.804,9.969-8.856
				c0.901-7.589,7.355-13.311,15.012-13.311c8.341,0,15.125,6.786,15.125,15.124c0,12.999-22.002,32.429-40.106,44.124
				c-18.107-11.698-40.106-31.127-40.106-44.124C390.203,28.528,396.989,21.742,405.328,21.742z"/>
			<path d="M501.961,384.845h-9.602l-10.865-37.903c-0.001-0.002-0.002-0.005-0.003-0.008l-3.383-11.815
				c-2.23-7.55-6.17-14.552-11.223-20.548h5.459c16.607,0,30.118-13.511,30.118-30.119c0-16.607-13.511-30.117-30.118-30.117
				h-50.196c-0.128,0-0.252,0.014-0.378,0.019l-10.865-25.565c-0.028-0.066-0.057-0.134-0.086-0.199
				c-13.792-30.597-44.632-54.567-70.213-54.568H171.396c-25.581,0-56.423,23.97-70.214,54.568c-0.03,0.065-0.059,0.133-0.086,0.199
				l-10.865,25.565c-0.127-0.005-0.25-0.019-0.378-0.019H39.655c-16.607,0-30.118,13.511-30.118,30.118s13.511,30.118,30.118,30.118
				h5.471c-5.064,6.012-9.016,13.037-11.255,20.62l-3.362,11.744c-0.001,0.002-0.002,0.005-0.003,0.008l-10.865,37.903h-9.602
				C4.495,384.845,0,389.34,0,394.884v50.196c0,5.544,4.495,10.039,10.039,10.039h16.899v28.327
				c0,14.827,12.063,26.889,26.89,26.889h51.632c14.828,0,26.89-12.063,26.89-26.889v-28.327h247.299v28.327
				c0,14.827,12.063,26.889,26.89,26.889h51.632c14.827,0,26.89-12.063,26.89-26.889v-28.327h16.9
				c5.545,0,10.039-4.496,10.039-10.039v-50.196C512,389.339,507.505,384.845,501.961,384.845z M471.472,384.845h-73.47
				c1.641-5.536,4.642-10.609,8.84-14.806c6.636-6.636,15.459-10.291,24.846-10.291h32.591L471.472,384.845z M472.345,274.414
				c5.536,0,10.039,4.504,10.039,10.039s-4.504,10.039-10.039,10.039h-33.516l-8.533-20.078H472.345z M119.529,236.746
				c10.464-23.127,34.195-42.646,51.867-42.646h169.208c17.672,0.002,41.403,19.521,51.868,42.646l24.542,57.747h-42.298
				c-2.488-24.533-23.263-43.741-48.44-43.741c-25.177,0-45.953,19.209-48.44,43.741H94.987L119.529,236.746z M354.449,294.493
				h-56.349c2.352-13.424,14.086-23.662,28.174-23.662S352.097,281.067,354.449,294.493z M427.47,314.571
				c12.49,0,26.46,11.416,31.026,25.098h-26.81c-14.749,0-28.615,5.743-39.043,16.171c-8.021,8.022-13.271,18.078-15.267,29.004
				h-36.043V371.09c0-20.094-16.347-36.441-36.44-36.441h-97.785c-20.094,0-36.44,16.347-36.44,36.441v13.755h-36.052
				c-4.733-25.67-27.282-45.175-54.301-45.175H53.507c4.608-13.719,18.555-25.098,31.023-25.098H427.47z M321.255,371.09v13.755
				h-30.118v-30.118h13.756C313.914,354.727,321.255,362.067,321.255,371.09z M271.059,354.727v30.118h-30.118v-30.118H271.059z
				 M220.863,354.727v30.118h-30.118V371.09c0-9.022,7.341-16.363,16.362-16.363H220.863z M39.655,294.493
				c-5.536,0-10.039-4.504-10.039-10.04c0-5.536,4.504-10.038,10.039-10.038h42.049l-8.533,20.078H39.655z M47.722,359.748h32.591
				c15.886,0,29.337,10.6,33.668,25.097H40.528L47.722,359.748z M112.272,483.446c0,3.756-3.056,6.811-6.812,6.811H53.828
				c-3.756,0-6.812-3.055-6.812-6.811v-28.327h65.255V483.446z M464.983,483.446c0,3.756-3.055,6.811-6.812,6.811H406.54
				c-3.756,0-6.812-3.055-6.812-6.811v-28.327h65.255V483.446z M491.922,435.041H20.078v-30.118h471.843V435.041z"/>
			<path d="M336.983,234.258h3.121c5.545,0,10.039-4.496,10.039-10.039s-4.495-10.039-10.039-10.039h-3.121
				c-5.545,0-10.039,4.496-10.039,10.039S331.439,234.258,336.983,234.258z"/>
			<path d="M310.881,224.218c0-5.544-4.495-10.039-10.039-10.039H171.893c-5.545,0-10.039,4.496-10.039,10.039
				s4.495,10.039,10.039,10.039h128.949C306.386,234.258,310.881,229.762,310.881,224.218z"/>
		</g>
	</g>
</g>
<g>
</g>
<g>
</g>
<g>
</g>
<g>
</g>
<g>
</g>
<g>
</g>
<g>
</g>
<g>
</g>
<g>
</g>
<g>
</g>
<g>
</g>
<g>
</g>
<g>
</g>
<g>
</g>
<g>
</g>
</svg>
