<?xml version="1.0" encoding="iso-8859-1"?>
<!-- Generator: Adobe Illustrator 19.0.0, SVG Export Plug-In . SVG Version: 6.00 Build 0)  -->
<svg version="1.1" id="Layer_8" xmlns="http://www.w3.org/2000/svg" xmlns:xlink="http://www.w3.org/1999/xlink" x="0px" y="0px"
	 viewBox="0 0 480 480" style="enable-background:new 0 0 480 480; fill:#ab132d;" xml:space="preserve">
<g id="XMLID_1376_">
	<g>
		<path d="M470,459.998h-10V269.999h10c5.522,0,10-4.477,10-10c0-5.523-4.478-10-10-10h-10v-19.816c0.002-0.12,0.002-0.241,0-0.36
			V130c0-60.655-49.346-110-110-110h-42.6C299.318,7.947,285.57,0,270,0c-11.148,0-21.84,4.222-30,11.494
			C231.84,4.222,221.148,0,210,0c-15.57,0-29.318,7.947-37.4,20H130C69.346,20,20,69.345,20,129.999v99.823
			c-0.002,0.12-0.002,0.24,0,0.36v19.816H10c-5.522,0-10,4.477-10,10s4.478,10,10,10h10v189.999H10c-5.522,0-10,4.477-10,10
			s4.478,10,10,10h149.772c0.153,0.003,0.305,0.003,0.46,0H200c5.522,0,10-4.477,10-10s-4.478-10-10-10h-33.175L95.609,278
			c-2.274-5.81-5.559-11.085-9.662-15.615c27.964-7.736,54.244-21.217,76.904-39.751c32.985-26.98,57.077-63.546,68.864-104.126
			c5.268,1.955,11.301,1.955,16.568,0c11.787,40.58,35.879,77.146,68.864,104.126c22.66,18.534,48.94,32.014,76.904,39.751
			c-4.104,4.53-7.389,9.806-9.662,15.616l-71.216,181.997H280c-5.522,0-10,4.477-10,10s4.478,10,10,10h39.768
			c0.077,0.002,0.153,0.002,0.229,0.002c0.077,0,0.153,0,0.23-0.002H470c5.522,0,10-4.477,10-10S475.522,459.998,470,459.998z
			 M145.349,459.998H40V269.759c6.798-0.327,13.562-0.984,20.265-1.964c0.547,0.438,1.148,0.826,1.801,1.151
			c6.83,3.41,12.129,9.214,14.919,16.343L145.349,459.998z M40,249.733v-13.137c27.733-12.48,52.662-31.974,72.413-56.691
			c21.318-26.678,36.166-58.925,42.939-93.257c1.069-5.418-2.456-10.677-7.875-11.747c-5.418-1.067-10.678,2.457-11.746,7.875
			C124.413,140.142,88.318,189.279,40,214.379V130c0-49.626,40.374-90,90-90h35.276c-0.183,1.642-0.276,3.31-0.276,5
			c0,12.51,5.512,24.277,15.122,32.285l34.292,28.577C194.41,186.507,122.817,245.32,40,249.733z M248.208,94.309
			c-0.099,0.079-0.195,0.16-0.291,0.243l-5.478,4.565c-1.367,1.139-3.512,1.139-4.879,0l-5.478-4.565
			c-0.096-0.083-0.192-0.164-0.291-0.243L192.924,61.92C187.889,57.723,185,51.556,185,45c0-13.785,11.215-25,25-25
			c8.847,0,16.859,4.534,21.435,12.127c1.809,3.004,5.059,4.84,8.565,4.84s6.757-1.836,8.565-4.84C253.141,24.534,261.153,20,270,20
			c13.785,0,25,11.215,25,25c0,6.557-2.889,12.724-7.925,16.921L248.208,94.309z M440,459.998H334.651l68.364-174.708
			c2.79-7.13,8.089-12.934,14.919-16.344c0.652-0.326,1.254-0.713,1.801-1.151c6.703,0.98,13.467,1.638,20.265,1.964V459.998z
			 M440,214.379c-48.318-25.1-84.413-74.237-95.731-131.602c-1.068-5.419-6.327-8.944-11.746-7.875
			c-5.419,1.069-8.944,6.328-7.875,11.747c6.773,34.332,21.621,66.579,42.939,93.257c19.751,24.717,44.68,44.21,72.413,56.691
			v13.137c-82.817-4.412-154.41-63.226-174.414-143.871l34.292-28.577C309.488,69.277,315,57.509,315,45c0-1.69-0.094-3.358-0.276-5
			H350c49.626,0,90,40.374,90,90V214.379z"/>
	</g>
</g>
<g>
</g>
<g>
</g>
<g>
</g>
<g>
</g>
<g>
</g>
<g>
</g>
<g>
</g>
<g>
</g>
<g>
</g>
<g>
</g>
<g>
</g>
<g>
</g>
<g>
</g>
<g>
</g>
<g>
</g>
</svg>
