<?xml version="1.0" encoding="iso-8859-1"?>
<!-- Generator: Adobe Illustrator 19.0.0, SVG Export Plug-In . SVG Version: 6.00 Build 0)  -->
<svg version="1.1" id="Layer_1" xmlns="http://www.w3.org/2000/svg" xmlns:xlink="http://www.w3.org/1999/xlink" x="0px" y="0px"
	 viewBox="0 0 480.001 480.001" style="enable-background:new 0 0 480.001 480.001;" xml:space="preserve">
	 <style>
      path {
        fill: #ab132d;
      }
  </style>
<g id="XMLID_1868_">
	<g>
		<g>
			<path d="M478.818,265.28c-1.74-3.251-5.129-5.281-8.817-5.281h-70c-0.971,0-1.909,0.138-2.796,0.396
				c-29.065,1.49-58.043,7.186-86.475,16.979l58.308-123.094c1.467-3.098,1.246-6.731-0.587-9.628
				c-1.833-2.896-5.022-4.652-8.45-4.652h-70c-48.293,0-90.521,26.471-112.936,65.664C168.813,179.236,144.11,160,115,160
				c-34.435,0-62.701,26.913-64.867,60.811C21.729,225.53,0,250.275,0,279.999c0,5.523,4.477,10,10,10h41.047
				C61,385.276,141,458.785,237.61,459.984l37.918,18.959c1.436,0.718,2.961,1.058,4.464,1.058c3.668,0,7.2-2.026,8.952-5.53
				c2.47-4.94,0.468-10.947-4.472-13.416l-8.857-4.429C338.763,444.543,392.549,400.887,416.674,340H430
				c3.343,0,6.466-1.671,8.32-4.453l40-60C480.367,272.477,480.557,268.532,478.818,265.28z M50,269.999H21.266
				C24.891,255.963,35.964,244.89,50,241.265V269.999z M180.001,269.999c0-60.654,49.346-110,110-110h54.198l-14.211,30h-15.25
				c-57.752,0-104.737,46.985-104.737,104.737c0,5.523,4.477,10,10,10s10-4.477,10-10c0-46.724,38.013-84.736,84.737-84.736h5.777
				l-32.46,68.528c-1.962,4.141-6.989,12.17-7.091,12.319C264.18,315.363,236.424,330,206.718,330h-26.717V269.999z
				 M424.648,319.999h-14.905c-4.238,0-8.016,2.671-9.428,6.667c-23.938,67.721-88.263,113.243-160.105,113.332
				c-0.135-0.003-0.27-0.003-0.405,0c-90.158-0.104-164.612-70.586-169.539-160.546c-0.034-0.622-0.124-1.228-0.266-1.812V225
				c0-24.813,20.187-45,45-45s45,20.187,45,45v115c0,5.523,4.477,10,10,10h36.717c30.171,0,58.696-12.353,79.248-33.721
				c0.109-0.104,0.216-0.211,0.321-0.322c3.432-3.594,6.606-7.404,9.507-11.409c34.198-14.585,69.388-22.752,104.64-24.282
				c0.653-0.028,1.289-0.119,1.902-0.266h48.979L424.648,319.999z"/>
			<path d="M110,203.999c-5.523,0-10,4.477-10,10v2c0,5.523,4.477,10,10,10s10-4.477,10-10v-2
				C120,208.476,115.524,203.999,110,203.999z"/>
			<path d="M15.951,86.715l48.743,43.204c4.536,4.02,10.32,6.234,16.288,6.234s11.752-2.214,16.288-6.234l19.566-17.344
				l20.89,18.517c3.682,3.264,8.383,5.061,13.24,5.061s9.558-1.797,13.239-5.061l33.349-29.561
				c7.612-6.746,11.977-16.601,11.977-27.036c0-20.851-16.217-37.816-36.15-37.816c-4.385,0-8.676,0.846-12.683,2.425
				C155.709,16.721,136.549,0,113.74,0c-12.243,0-23.947,4.974-32.76,13.514C72.167,4.972,60.464,0,48.221,0
				C21.631,0,0,22.723,0,50.654C0,64.585,5.813,77.729,15.951,86.715z M150.964,70.165c3.603,0,6.926-1.937,8.702-5.072
				c2.983-5.268,8.11-8.413,13.713-8.413c8.905,0,16.15,7.992,16.15,17.816c0,4.717-1.911,9.116-5.243,12.069l-33.327,29.533
				l-33.318-29.533c-3.332-2.953-5.243-7.353-5.243-12.069c0-9.824,7.245-17.816,16.151-17.816c5.604,0,10.73,3.145,13.713,8.413
				C144.039,68.227,147.363,70.165,150.964,70.165z M48.221,20c9.875,0,18.869,5.472,24.059,14.637
				c1.775,3.135,5.099,5.072,8.702,5.072c3.603,0,6.927-1.937,8.702-5.073C94.873,25.472,103.867,20,113.742,20
				c11.597,0,21.583,7.639,25.917,18.528c-3.548-1.207-7.292-1.848-11.109-1.848c-19.934,0-36.15,16.964-36.15,37.816
				c0,9.241,3.423,18.025,9.491,24.6l-17.889,15.857c-1.747,1.549-4.295,1.548-6.042,0L29.217,71.748
				C23.36,66.556,20,58.867,20,50.654C20,33.751,32.66,20,48.221,20z"/>
		</g>
	</g>
</g>
<g>
</g>
<g>
</g>
<g>
</g>
<g>
</g>
<g>
</g>
<g>
</g>
<g>
</g>
<g>
</g>
<g>
</g>
<g>
</g>
<g>
</g>
<g>
</g>
<g>
</g>
<g>
</g>
<g>
</g>
</svg>
